<svg width="190" height="75" viewBox="0 0 190 75" fill="none" xmlns="http://www.w3.org/2000/svg">
<path d="M24.9688 54.9293C24.8276 54.9293 24.6953 54.8386 24.6474 54.6986L24.0709 53.0133L19.1032 54.7106C18.9245 54.7719 18.7318 54.6773 18.6713 54.4986C18.61 54.3213 18.7052 54.1279 18.8828 54.0666L26.7516 51.3786C26.9292 51.3159 27.1224 51.4119 27.1828 51.5906C27.2442 51.7679 27.1489 51.9613 26.9713 52.0226L24.7146 52.7933L25.2906 54.4786C25.3516 54.6559 25.2568 54.8493 25.0786 54.9106C25.0428 54.9226 25.0052 54.9293 24.9688 54.9293ZM2.31987 54.2826H5.27095V47.1826H2.31987V54.2826ZM5.61095 54.9626H1.98027C1.79174 54.9626 1.64014 54.8106 1.64014 54.6226V46.8426C1.64014 46.6546 1.79174 46.5026 1.98027 46.5026H5.61095C5.79895 46.5026 5.95055 46.6546 5.95055 46.8426V54.6226C5.95055 54.8106 5.79895 54.9626 5.61095 54.9626Z" fill="#4C6186"/>
<path d="M19.5256 54.4679C19.5844 54.6146 19.5141 54.7812 19.3677 54.8399C19.2213 54.8999 19.0542 54.8293 18.9948 54.6826L17.6266 51.3239C17.5672 51.1773 17.6376 51.0106 17.7838 50.9506C17.8224 50.9346 17.8636 50.9293 17.9021 50.9306L25.9822 51.0559C26.0021 51.0559 26.0224 51.0586 26.0417 51.0626L35.3729 53.1772C35.5266 53.2119 36.9912 54.0759 36.9568 54.2293C36.9224 54.3839 35.237 54.4799 35.0833 54.4452L26.3614 51.8706L18.3193 51.5079L19.5256 54.4679Z" fill="#4C6186"/>
<path fill-rule="evenodd" clip-rule="evenodd" d="M13.8288 50.9626C15.8293 50.9626 17.3277 52.5746 17.3277 53.8319C17.3277 55.0906 15.8293 55.5173 13.8288 55.5173C11.8288 55.5173 10.322 56.3119 10.322 53.8119C10.322 51.3133 11.8288 50.9626 13.8288 50.9626Z" fill="#4C6186"/>
<path fill-rule="evenodd" clip-rule="evenodd" d="M13.8286 50.9626C15.4942 50.9626 16.8104 52.0799 17.2052 53.1799C16.6302 53.3412 15.9136 53.4106 15.1156 53.4106C13.1156 53.4106 11.6089 54.2052 11.6089 51.7052C11.6089 51.5599 11.6146 51.4212 11.625 51.2892C12.2188 51.0252 12.9792 50.9626 13.8286 50.9626Z" fill="#7894AE"/>
<path fill-rule="evenodd" clip-rule="evenodd" d="M13.8286 50.9626C15.2928 50.9626 16.4854 51.8252 17.0213 52.7812L16.8068 52.7826C14.6089 52.7826 12.9464 53.6439 12.9005 50.9973C13.1942 50.9719 13.5046 50.9626 13.8286 50.9626Z" fill="#A3B9C6"/>
<path fill-rule="evenodd" clip-rule="evenodd" d="M61.3141 50.5919L63.5033 45.4439L64.8172 36.9959H75.9855L79.8147 42.9199H105.581L107.95 38.6412H123.606L129.154 50.9959L61.3141 50.5919Z" fill="#7894AE"/>
<path fill-rule="evenodd" clip-rule="evenodd" d="M67.8823 36.9959H75.9855L79.8147 42.9199H105.581L107.95 38.6412H123.606L129.154 50.9959L66.2162 50.6213L65.8022 50.5919L67.9918 45.4439L67.8823 36.9959Z" fill="#A3B9C6"/>
<path fill-rule="evenodd" clip-rule="evenodd" d="M144.089 46.6573H152.828C153.085 46.6573 153.294 46.9052 153.294 47.2106V49.8719C153.294 50.1772 153.085 50.4266 152.828 50.4266H144.089C143.832 50.4266 143.621 50.1772 143.621 49.8719V47.2106C143.621 46.9052 143.832 46.6573 144.089 46.6573Z" fill="#D3E0EA"/>
<path fill-rule="evenodd" clip-rule="evenodd" d="M152.437 50.4266H144.089C143.832 50.4266 143.621 50.1772 143.621 49.8719V47.2106C143.621 47.0932 143.653 46.9826 143.706 46.8933H152.056C152.313 46.8933 152.524 47.1412 152.524 47.4466V50.1079C152.524 50.2266 152.492 50.3359 152.437 50.4266Z" fill="#A3B9C6"/>
<path fill-rule="evenodd" clip-rule="evenodd" d="M149.244 50.4266H144.089C143.832 50.4266 143.621 50.1772 143.621 49.8719V47.2106C143.621 47.1399 143.634 47.0746 143.654 47.0119H148.808C149.065 47.0119 149.274 47.2613 149.274 47.5653V50.2279C149.274 50.2986 149.264 50.3639 149.244 50.4266Z" fill="#7894AE"/>
<path fill-rule="evenodd" clip-rule="evenodd" d="M116.24 38.6412H123.606L129.154 50.9959L122.162 50.9546L116.24 38.6412Z" fill="#D3E0EA"/>
<path d="M126.616 48.2239H132.149V47.3933H126.616V48.2239ZM132.649 48.2239H138.184V47.3933H132.649V48.2239ZM138.684 48.2239H144.217V47.3933H138.684V48.2239ZM144.717 48.2239H150.25V47.3933H144.717V48.2239ZM126.616 49.3866H132.149V48.5119H126.616V49.3866ZM132.649 49.3866H138.184V48.5119H132.649V49.3866ZM138.684 49.3866H144.217V48.5119H138.684V49.3866ZM144.717 49.3866H150.25V48.5119H144.717V49.3866ZM126.616 50.2359H132.149V49.6746H126.616V50.2359ZM132.649 50.2359H138.184V49.6746H132.649V50.2359ZM138.684 50.2359H144.217V49.6746H138.684V50.2359ZM144.717 50.2359H150.25V49.6746H144.717V50.2359ZM156.785 50.5239H122.009V50.2359H126.114V49.6746H121.604V49.3866H126.114V48.5119H121.05V48.2239H126.114V47.3933H120.518V47.1052H126.114V47.0346H126.616V47.1052H132.149V47.0346H132.649V47.1052H138.184V47.0346H138.684V47.1052H144.217V47.0346H144.717V47.1052H150.25V47.0346H150.752V47.1052H156.261V47.3933H150.752V48.2239H156.261V48.5119H150.752V49.3866H156.261V49.6746H150.752V50.2359H156.285V47.0346H156.785V50.5239Z" fill="#231F20"/>
<path d="M112.636 36.3746C112.5 36.3746 112.39 36.2653 112.39 36.1293V16.8746C112.39 16.7399 112.5 16.6293 112.636 16.6293C112.772 16.6293 112.881 16.7399 112.881 16.8746V36.1293C112.881 36.2653 112.772 36.3746 112.636 36.3746ZM119.22 36.3746C119.084 36.3746 118.974 36.2653 118.974 36.1293V13.1839C118.974 13.0479 119.084 12.9386 119.22 12.9386C119.356 12.9386 119.465 13.0479 119.465 13.1839V36.1293C119.465 36.2653 119.356 36.3746 119.22 36.3746Z" fill="#7E95B2"/>
<path fill-rule="evenodd" clip-rule="evenodd" d="M153.854 43.5759H149.932V43.9613H153.854V43.5759Z" fill="#7894AE"/>
<path fill-rule="evenodd" clip-rule="evenodd" d="M148.984 42.5759H147.702C146.814 42.5759 146.088 43.3026 146.088 44.1906V46.0666C146.088 46.2413 146.117 46.4079 146.169 46.5666H150.517C150.569 46.4079 150.598 46.2413 150.598 46.0666V44.1906C150.598 43.3026 149.872 42.5759 148.984 42.5759Z" fill="#C9D5DC"/>
<path fill-rule="evenodd" clip-rule="evenodd" d="M146.306 43.3826C146.169 43.6199 146.088 43.8959 146.088 44.1906V46.0666C146.088 46.2413 146.117 46.4079 146.169 46.5666H149.801V44.8826C149.801 43.9946 149.073 43.2679 148.186 43.2679H146.904C146.693 43.2679 146.492 43.3079 146.306 43.3826Z" fill="#7894AE"/>
<path fill-rule="evenodd" clip-rule="evenodd" d="M150.821 44.7893H145.87L145.205 46.6333H151.54L150.821 44.7893Z" fill="#4C6186"/>
<path fill-rule="evenodd" clip-rule="evenodd" d="M150.658 45.0399H150.296L150.858 46.4613H151.221L150.658 45.0399Z" fill="#7894AE"/>
<path fill-rule="evenodd" clip-rule="evenodd" d="M149.821 45.0399C149.701 45.0399 149.58 45.0399 149.458 45.0399C149.572 45.5146 149.685 45.9879 149.798 46.4613C149.92 46.4613 150.041 46.4613 150.161 46.4613C150.048 45.9879 149.934 45.5146 149.821 45.0399Z" fill="#7894AE"/>
<path fill-rule="evenodd" clip-rule="evenodd" d="M148.982 45.0399C148.862 45.0399 148.741 45.0399 148.621 45.0399C148.66 45.5146 148.7 45.9879 148.738 46.4613C148.86 46.4613 148.98 46.4613 149.101 46.4613C149.062 45.9879 149.022 45.5146 148.982 45.0399Z" fill="#7894AE"/>
<path fill-rule="evenodd" clip-rule="evenodd" d="M148.145 45.0399C148.024 45.0399 147.904 45.0399 147.782 45.0399C147.748 45.5146 147.713 45.9879 147.678 46.4613C147.8 46.4613 147.921 46.4613 148.041 46.4613C148.076 45.9879 148.11 45.5146 148.145 45.0399Z" fill="#7894AE"/>
<path fill-rule="evenodd" clip-rule="evenodd" d="M147.306 45.0399C147.186 45.0399 147.065 45.0399 146.944 45.0399C146.836 45.5146 146.726 45.9879 146.618 46.4613C146.738 46.4613 146.86 46.4613 146.981 46.4613C147.09 45.9879 147.198 45.5146 147.306 45.0399Z" fill="#7894AE"/>
<path fill-rule="evenodd" clip-rule="evenodd" d="M146.469 45.0399H146.106L145.558 46.4613H145.921L146.469 45.0399Z" fill="#7894AE"/>
<path fill-rule="evenodd" clip-rule="evenodd" d="M186.453 44.8533L184.742 47.3866L184.741 47.3772L184.621 47.3279L186.48 44.5786L186.453 44.8533Z" fill="#7894AE"/>
<path fill-rule="evenodd" clip-rule="evenodd" d="M187.365 39.4906H187.169V39.9706H187.365V39.4906Z" fill="#7894AE"/>
<path fill-rule="evenodd" clip-rule="evenodd" d="M185.792 39.6626H187.365V39.7986H185.792V39.6626Z" fill="#7894AE"/>
<path fill-rule="evenodd" clip-rule="evenodd" d="M186.282 40.3146H186.48V40.4493H186.282V40.3146Z" fill="#7894AE"/>
<path fill-rule="evenodd" clip-rule="evenodd" d="M186.014 39.4906H185.818V39.9706H186.014V39.4906Z" fill="#7894AE"/>
<path fill-rule="evenodd" clip-rule="evenodd" d="M186.48 39.6626H186.676V47.0119H186.48V39.6626Z" fill="#7894AE"/>
<path fill-rule="evenodd" clip-rule="evenodd" d="M104.35 35.7333H115.148V40.0813H104.35V35.7333Z" fill="#A3B9C6"/>
<path fill-rule="evenodd" clip-rule="evenodd" d="M1.54855 54.3573L2.74855 64.9226C2.87189 66.008 3.74015 66.8306 4.83085 66.8946C26.1366 68.148 57.5434 72.9306 66.3861 72.9773L153.192 73.424C157.956 73.4493 163.581 72.8946 166.941 69.5173L189.481 46.8693L154.242 46.9333L156.001 49.9799L126.328 49.9773L126.249 50.996L34.959 50.4346L32.8314 54.4466L1.54855 54.3573Z" fill="#4C6186"/>
<path fill-rule="evenodd" clip-rule="evenodd" d="M185.42 46.8773L154.242 46.9333L156.001 49.9799L126.328 49.9773L126.249 50.996L34.959 50.4346L32.8314 54.4466L8.49426 54.3773C19.0246 64.2959 51.421 68.8599 93.2438 68.6079C106.457 68.5293 129.945 69.9079 140.798 68.2786C168.54 64.1133 176.849 57.2439 185.42 46.8773Z" fill="#7894AE"/>
<path fill-rule="evenodd" clip-rule="evenodd" d="M151.602 49.9799L126.328 49.9772L126.249 50.9959L34.959 50.4346L32.8314 54.4466L24.5001 54.4226C37.8819 62.2159 59.9412 67.3079 84.885 67.3079C114.305 67.3079 139.714 60.2266 151.602 49.9799ZM154.652 46.9319L154.242 46.9333L154.408 47.2173C154.49 47.1226 154.57 47.0266 154.652 46.9319Z" fill="#A3B9C6"/>
<path fill-rule="evenodd" clip-rule="evenodd" d="M2.79175 65.1773C3.01255 66.1346 3.82765 66.836 4.83085 66.8946C13.8188 67.4226 24.6052 68.5799 34.736 69.7439C34.7516 70.8759 35.3578 71.6293 37.4994 71.784C40.4349 71.9986 45.3923 71.34 47.7771 71.2626C55.6262 72.1653 63.0985 72.9599 66.386 72.9773L153.192 73.424C157.957 73.4493 163.581 72.8933 166.941 69.5173L171.26 65.1773H2.79175Z" fill="#244B9A"/>
<path fill-rule="evenodd" clip-rule="evenodd" d="M156.31 65.1773H38.3376C53.1037 67.6159 71.9521 68.7373 93.2437 68.6079C106.457 68.5293 129.945 69.9079 140.798 68.2786C146.817 67.3746 151.92 66.3439 156.31 65.1773Z" fill="#2056C1"/>
<path fill-rule="evenodd" clip-rule="evenodd" d="M112.093 65.1772H57.6786C66.0995 66.5506 75.2776 67.3079 84.8849 67.3079C94.492 67.3079 103.672 66.5506 112.093 65.1772Z" fill="#1C62ED"/>
<path fill-rule="evenodd" clip-rule="evenodd" d="M22.9943 71.5239L31.8137 70.6466L31.9377 71.8973L23.1189 72.7746L22.9943 71.5239Z" fill="#1C62ED"/>
<path fill-rule="evenodd" clip-rule="evenodd" d="M26.9585 66.5692L25.223 71.3026L27.7047 71.0559L30.9137 66.5826L26.9585 66.5692Z" fill="#1C62ED"/>
<path fill-rule="evenodd" clip-rule="evenodd" d="M21.7552 71.9279L37.4646 70.3652C37.6656 70.3452 37.8453 70.4852 37.8641 70.6759C37.8833 70.8666 37.7344 71.0399 37.5338 71.0599L21.825 72.6226C21.624 72.6426 21.4442 72.5026 21.425 72.3119C21.4062 72.1199 21.5546 71.9479 21.7552 71.9279Z" fill="#1C62ED"/>
<path fill-rule="evenodd" clip-rule="evenodd" d="M23.6062 72.2812C23.3057 72.0532 23.0052 71.8253 22.7052 71.5959C22.5822 70.8639 22.46 70.1319 22.3376 69.3999C23.3937 69.9999 23.901 70.9119 23.6062 72.2812Z" fill="#6C8BC7"/>
<path fill-rule="evenodd" clip-rule="evenodd" d="M23.5646 71.8599C23.3146 72.1439 23.0652 72.4266 22.8152 72.7092C22.8396 73.4519 22.8641 74.1932 22.888 74.9359C23.8057 74.1386 24.1234 73.1453 23.5646 71.8599Z" fill="#6C8BC7"/>
<path fill-rule="evenodd" clip-rule="evenodd" d="M12.5865 68.2106H16.5734V74.0666H12.5865V68.2106Z" fill="#244B9A"/>
<path fill-rule="evenodd" clip-rule="evenodd" d="M5.23083 68.0719H6.74334V68.8986H7.01824V66.4186H7.91203V68.8986H8.80574V70.1386H6.74334V70.8973H5.23083V70.1386V68.8986V68.0719Z" fill="#244B9A"/>
<path fill-rule="evenodd" clip-rule="evenodd" d="M53.9709 71.7079L70.0787 71.8666L103.256 71.6439L113.561 71.5666L116.356 68.5066L104.586 69.732L70.559 69.6213L56.2437 68.1079L53.9709 71.7079Z" fill="#244B9A"/>
<path fill-rule="evenodd" clip-rule="evenodd" d="M57.6568 69.8333L70.1349 70.9173H103.422L111.941 70.2266L116.356 68.5066L104.586 69.732L70.5589 69.6213L56.2437 68.1079L57.6568 69.8333Z" fill="#1C62ED"/>
<path fill-rule="evenodd" clip-rule="evenodd" d="M169.34 51.8066C170.337 51.1719 171.416 51.0359 172.018 51.4559L171.62 53.0533L170.878 53.1773L170.809 53.9946L169.34 51.8066ZM169.02 52.0293C169.089 51.9773 169.157 51.9266 169.228 51.8799L169.754 55.3879C168.937 55.6373 168.19 55.5386 167.821 55.0533C167.258 54.3146 167.796 52.9599 169.02 52.0293Z" fill="#A3B9C6"/>
<path fill-rule="evenodd" clip-rule="evenodd" d="M169.47 52.2439C170.189 51.7879 170.966 51.6893 171.4 51.9906L171.112 53.1412L170.529 53.8186L169.47 52.2439ZM169.241 52.4039C169.29 52.3666 169.34 52.3306 169.39 52.2959L169.769 54.8226C169.181 55.0013 168.644 54.9293 168.377 54.5813C167.973 54.0493 168.36 53.0732 169.241 52.4039Z" fill="#4C6186"/>
<path fill-rule="evenodd" clip-rule="evenodd" d="M169.181 51.5706L169.798 55.6799L171.404 54.8773L169.181 51.5706Z" fill="#A3B9C6"/>
<path fill-rule="evenodd" clip-rule="evenodd" d="M172.237 50.5813L173.162 54.6293L170.662 55.7426L170.706 55.2266L171.404 54.8773L170.809 53.9946L170.878 53.1773L171.62 53.0533L172.237 50.5813Z" fill="#A3B9C6"/>
<path fill-rule="evenodd" clip-rule="evenodd" d="M169.181 51.5706L171.054 55.0519L171.404 54.8773L169.181 51.5706Z" fill="#C9D5DC"/>
<path fill-rule="evenodd" clip-rule="evenodd" d="M172.237 50.5812L173.162 54.6293L172.5 54.9253L172.237 50.5812Z" fill="#C9D5DC"/>
<path fill-rule="evenodd" clip-rule="evenodd" d="M63.4568 45.5533L63.5033 45.4439L64.8172 36.996H73.4L77.5162 45.5533H63.4568Z" fill="#4C6186"/>
<path fill-rule="evenodd" clip-rule="evenodd" d="M67.8823 36.996H73.4L77.5162 45.5533H67.9448L67.9918 45.4439L67.8823 36.996Z" fill="#7894AE"/>
<path fill-rule="evenodd" clip-rule="evenodd" d="M73.4001 36.996H75.9855L79.7877 42.8786L77.5162 45.5533L73.4001 36.996Z" fill="#D3E0EA"/>
<path fill-rule="evenodd" clip-rule="evenodd" d="M90.4214 35.1946H124.932V36.2186H90.4214V35.1946Z" fill="#A3B9C6"/>
<path fill-rule="evenodd" clip-rule="evenodd" d="M113.12 36.2199H124.932L123.606 38.6412H113.92L113.12 36.2199ZM90.4214 36.2199H109.226L107.909 38.6412H91.3402L90.4214 36.2199Z" fill="#4C6186"/>
<path fill-rule="evenodd" clip-rule="evenodd" d="M91.3401 38.6412H107.95L105.581 42.9199H91.3401V38.6412Z" fill="#7894AE"/>
<path fill-rule="evenodd" clip-rule="evenodd" d="M35.9282 47.1626L48.7251 46.7679C48.4147 48.1999 47.7058 49.5946 46.0027 49.5946H37.8131C36.7377 49.1226 36.0662 48.3799 35.9282 47.1626Z" fill="#4C6186"/>
<path fill-rule="evenodd" clip-rule="evenodd" d="M36.1953 47.1546L48.3234 46.7813C47.9094 47.7453 47.1958 48.4959 45.9464 48.4959H37.7568C37.0494 48.1853 36.5166 47.7573 36.1953 47.1546Z" fill="#7894AE"/>
<path fill-rule="evenodd" clip-rule="evenodd" d="M92.3407 35.1946L91.2422 26.6266L93.8439 26.5626L97.2909 35.1946H92.3407Z" fill="#4C6186"/>
<path fill-rule="evenodd" clip-rule="evenodd" d="M98.2859 24.6559H100.253V26.5626H98.2859V24.6559Z" fill="#7894AE"/>
<path fill-rule="evenodd" clip-rule="evenodd" d="M95.748 23.8919H102.792V24.2732L100.298 24.6546H98.304L95.748 24.2732V23.8919Z" fill="#4C6186"/>
<path fill-rule="evenodd" clip-rule="evenodd" d="M90.0881 17.0092L89.3849 11.6826L90.4718 11.7599L91.6218 17.3226L90.0881 17.0092Z" fill="#7894AE"/>
<path fill-rule="evenodd" clip-rule="evenodd" d="M89.8052 4.69598H90.1532V12.0186H89.8052V4.69598Z" fill="#7894AE"/>
<path fill-rule="evenodd" clip-rule="evenodd" d="M89.9798 0C90.2823 0 90.5286 0.047975 90.5286 0.107975V4.58932C90.5286 4.64666 90.2823 4.69466 89.9798 4.69466C89.6762 4.69466 89.4297 4.64666 89.4297 4.58932V0.107975C89.4297 0.047975 89.6762 0 89.9798 0Z" fill="#4C6186"/>
<path fill-rule="evenodd" clip-rule="evenodd" d="M93.0896 4.27597H92.6152V5.4453H93.0896V4.27597Z" fill="#7894AE"/>
<path fill-rule="evenodd" clip-rule="evenodd" d="M89.8052 4.69595H92.8526V5.02528H89.8052V4.69595Z" fill="#7894AE"/>
<path d="M90.7844 17.6399L91.8792 26.2773L93.4019 26.2346L91.0625 17.6479L90.7844 17.6399ZM91.2813 26.9733L90.01 16.9373L91.586 16.9813L94.2859 26.8919L91.2813 26.9733Z" fill="#4C6186"/>
<path d="M93.4699 26.3759L91.162 25.1346L92.5396 23.4746L90.8204 22.3119L92.0485 20.7733L90.7161 19.8719L91.539 18.9893L90.2756 18.292L91.2729 17.3746L91.4682 17.5879L90.7652 18.2333L92.0016 18.9146L91.1562 19.8226L92.4677 20.7093L91.2396 22.2493L92.9646 23.4133L91.6089 25.0466L93.6069 26.1226L93.4699 26.3759Z" fill="#4C6186"/>
<path d="M40.6813 48.2239H45.5933V47.3933H40.6813V48.2239ZM46.0709 48.2239H50.9833V47.3933H46.0709V48.2239ZM51.4604 48.2239H56.3724V47.3933H51.4604V48.2239ZM56.8505 48.2239H61.762V47.3933H56.8505V48.2239ZM40.6813 49.3866H45.5933V48.5119H40.6813V49.3866ZM46.0709 49.3866H50.9833V48.5119H46.0709V49.3866ZM51.4604 49.3866H56.3724V48.5119H51.4604V49.3866ZM56.8505 49.3866H61.762V48.5119H56.8505V49.3866ZM40.6813 50.2359H45.5933V49.6746H40.6813V50.2359ZM46.0709 50.2359H50.9833V49.6746H46.0709V50.2359ZM51.4604 50.2359H56.3724V49.6746H51.4604V50.2359ZM56.8505 50.2359H61.762V49.6746H56.8505V50.2359ZM65.8922 50.5239H34.8146V47.0346H35.2928V50.2359H40.2043V49.6746H35.298V49.3866H40.2043V48.5119H35.298V48.2239H40.2043V47.3933H35.298V47.1052H40.2043V47.0346H40.6813V47.1052H45.5933V47.0346H46.0709V47.1052H50.9833V47.0346H51.4604V47.1052H56.3724V47.0346H56.8505V47.1052H61.762V47.0346H62.2396V47.1052H67.2234V47.3933H62.2396V48.2239H66.7485V48.5119H62.2396V49.3866H66.2537V49.6746H62.2396V50.2359H65.8922V50.5239Z" fill="#231F20"/>
<path fill-rule="evenodd" clip-rule="evenodd" d="M91.8823 26.6039L93.844 26.5626L97.291 35.1946H93.4L91.8823 26.6039Z" fill="#7894AE"/>
<path fill-rule="evenodd" clip-rule="evenodd" d="M93.8439 26.5626H100.253L94.6839 28.6666L93.8439 26.5626Z" fill="#7894AE"/>
<path d="M80.1974 40.9012H84.8046V40.0719H80.1974V40.9012ZM85.2709 40.9012H89.8781V40.0719H85.2709V40.9012ZM90.3442 40.9012H94.9519V40.0719H90.3442V40.9012ZM95.4189 40.9012H100.026V40.0719H95.4189V40.9012ZM100.492 40.9012H105.1V40.0719H100.492V40.9012ZM80.1974 42.0666H84.8046V41.1893H80.1974V42.0666ZM85.2709 42.0666H89.8781V41.1893H85.2709V42.0666ZM90.3442 42.0666H94.9519V41.1893H90.3442V42.0666ZM95.4189 42.0666H100.026V41.1893H95.4189V42.0666ZM100.492 42.0666H105.1V41.1893H100.492V42.0666ZM105.566 43.0653H105.1V42.3533H100.492V43.0653H100.026V42.3533H95.4189V43.0653H94.9519V42.3533H90.3442V43.0653H89.8781V42.3533H85.2709V43.0653H84.8046V42.3533H80.1974V43.0653H79.7308V39.7132H80.1974V39.7839H84.8046V39.7132H85.2709V39.7839H89.8781V39.7132H90.3442V39.7839H94.9519V39.7132H95.4189V39.7839H100.026V39.7132H100.492V39.7839H105.1V39.7132H105.566V39.7839H107.238V40.0719H105.566V40.9012H106.618V41.1893H105.566V42.0666H105.974V42.3533H105.566V43.0653Z" fill="#231F20"/>
<path fill-rule="evenodd" clip-rule="evenodd" d="M113.92 38.6412H123.606L123.817 39.1132H113.92V38.6412Z" fill="#7894AE"/>
<path fill-rule="evenodd" clip-rule="evenodd" d="M116.24 38.6412H123.606L123.817 39.1132H116.466L116.24 38.6412Z" fill="#7894AE"/>
<path d="M91.0689 33.0906H95.676V32.2599H91.0689V33.0906ZM96.142 33.0906H100.749V32.2599H96.142V33.0906ZM101.216 33.0906H105.824V32.2599H101.216V33.0906ZM106.289 33.0906H110.897V32.2599H106.289V33.0906ZM91.0689 34.2546H95.676V33.3786H91.0689V34.2546ZM96.142 34.2546H100.749V33.3786H96.142V34.2546ZM101.216 34.2546H105.824V33.3786H101.216V34.2546ZM106.289 34.2546H110.897V33.3786H106.289V34.2546ZM111.364 35.2533H110.897V34.5426H106.289V35.2533H105.824V34.5426H101.216V35.2533H100.749V34.5426H96.142V35.2533H95.676V34.5426H91.0689V35.2533H90.6017V31.9026H91.0689V31.9732H95.676V31.9026H96.142V31.9732H100.749V31.9026H101.216V31.9732H105.824V31.9026H106.289V31.9732H110.897V31.9026H111.364V35.2533Z" fill="#231F20"/>
<path fill-rule="evenodd" clip-rule="evenodd" d="M124.79 52.9039H125.497C125.617 52.9039 125.714 53.0013 125.714 53.1213V54.4C125.714 54.52 125.617 54.6173 125.497 54.6173H124.79C124.67 54.6173 124.573 54.52 124.573 54.4V53.1213C124.573 53.0013 124.67 52.9039 124.79 52.9039Z" fill="#4C6186"/>
<path fill-rule="evenodd" clip-rule="evenodd" d="M110.352 44.7453H111.06C111.18 44.7453 111.277 44.8426 111.277 44.9626V46.2413C111.277 46.3613 111.18 46.4586 111.06 46.4586H110.352C110.233 46.4586 110.134 46.3613 110.134 46.2413V44.9626C110.134 44.8426 110.233 44.7453 110.352 44.7453Z" fill="#4C6186"/>
<path fill-rule="evenodd" clip-rule="evenodd" d="M84.3349 44.7453H85.0423C85.1621 44.7453 85.2594 44.8426 85.2594 44.9626V46.2413C85.2594 46.3613 85.1621 46.4586 85.0423 46.4586H84.3349C84.2152 46.4586 84.1172 46.3613 84.1172 46.2413V44.9626C84.1172 44.8426 84.2152 44.7453 84.3349 44.7453Z" fill="#4C6186"/>
<path fill-rule="evenodd" clip-rule="evenodd" d="M1.90054 56.9719H117.972L117.445 57.8359H2.00108L1.90054 56.9719Z" fill="#A3B9C6"/>
<path d="M68.6683 42.1933C68.5329 42.1933 68.4225 42.0826 68.4225 41.9479V19.0026C68.4225 18.8666 68.5329 18.7573 68.6683 18.7573C68.8038 18.7573 68.9137 18.8666 68.9137 19.0026V41.9479C68.9137 42.0826 68.8038 42.1933 68.6683 42.1933Z" fill="#7E95B2"/>
<path fill-rule="evenodd" clip-rule="evenodd" d="M91.7465 8.10129H91.2719V9.27196H91.7465V8.10129Z" fill="#7894AE"/>
<path fill-rule="evenodd" clip-rule="evenodd" d="M89.8052 8.52261H91.5094V8.85061H89.8052V8.52261Z" fill="#7894AE"/>
<path fill-rule="evenodd" clip-rule="evenodd" d="M96.2519 16.2106H95.7769V17.3799H96.2519V16.2106Z" fill="#7894AE"/>
<path fill-rule="evenodd" clip-rule="evenodd" d="M90.8557 16.6306H96.0149V16.9599H90.8557V16.6306Z" fill="#7894AE"/>
<path fill-rule="evenodd" clip-rule="evenodd" d="M16.4672 66.5466H15.7928V71.6906H16.4672V66.5466Z" fill="#244B9A"/>
<path fill-rule="evenodd" clip-rule="evenodd" d="M155.136 48.4799L187.926 48.4319L187.064 49.2986L155.634 49.3439L155.136 48.4799Z" fill="#A3B9C6"/>
<path fill-rule="evenodd" clip-rule="evenodd" d="M155.448 49.0199L187.39 48.9706L186.528 49.8372L155.946 49.8852L155.448 49.0199Z" fill="#4C6186"/>
<path fill-rule="evenodd" clip-rule="evenodd" d="M113.504 40.8653H114.212C114.332 40.8653 114.429 40.9626 114.429 41.0826V42.3613C114.429 42.4813 114.332 42.5786 114.212 42.5786H113.504C113.385 42.5786 113.286 42.4813 113.286 42.3613V41.0826C113.286 40.9626 113.385 40.8653 113.504 40.8653Z" fill="#4C6186"/>
<path fill-rule="evenodd" clip-rule="evenodd" d="M0 49.1026H0.47507V50.2719H0V49.1026Z" fill="#4C6186"/>
<path fill-rule="evenodd" clip-rule="evenodd" d="M5.39695 49.5226H0.237091V49.8519H5.39695V49.5226Z" fill="#4C6186"/>
<path fill-rule="evenodd" clip-rule="evenodd" d="M0 51.9759H0.47507V53.1453H0V51.9759Z" fill="#4C6186"/>
<path fill-rule="evenodd" clip-rule="evenodd" d="M5.39695 52.3959H0.237091V52.7253H5.39695V52.3959Z" fill="#4C6186"/>
<path d="M135.72 59.5639C135.72 60.5453 135.546 61.2773 135.201 61.7586C134.854 62.2399 134.3 62.4826 133.536 62.4826C132.772 62.4826 132.236 62.2613 131.929 61.8199C131.622 61.3799 131.47 60.6813 131.47 59.7253V59.0839H132.869V59.7653C132.869 60.3039 132.912 60.6773 132.994 60.8866C133.078 61.0946 133.261 61.1986 133.544 61.1986C133.826 61.1986 134.016 61.0733 134.11 60.8226C134.206 60.5706 134.253 60.1306 134.253 59.4999C134.253 58.8706 134.19 58.4213 134.069 58.1533C133.945 57.8866 133.705 57.7506 133.349 57.7506H132.925V56.6146H133.337C133.688 56.6146 133.928 56.4959 134.057 56.2599C134.186 56.0226 134.253 55.6359 134.253 55.0973C134.253 54.5559 134.198 54.1946 134.088 54.0079C133.977 53.8226 133.804 53.7306 133.566 53.7306C133.328 53.7306 133.162 53.8266 133.068 54.0226C132.972 54.2173 132.925 54.5559 132.925 55.0399V55.3373H131.48V55.0306C131.48 54.1333 131.637 53.4786 131.956 53.0639C132.272 52.6479 132.798 52.4413 133.541 52.4413C134.284 52.4413 134.828 52.6546 135.178 53.0826C135.526 53.5106 135.702 54.1586 135.702 55.0306C135.702 55.5693 135.618 56.0226 135.452 56.3879C135.285 56.7533 135.032 56.9986 134.693 57.1213C135.065 57.2959 135.329 57.5853 135.485 57.9906C135.641 58.3959 135.72 58.9199 135.72 59.5639Z" fill="#C9D5DC"/>
<path d="M138.866 62.4826C137.568 62.4826 136.918 61.8066 136.918 60.4559V59.2239H138.32V60.2999C138.32 60.7533 138.408 61.0359 138.581 61.1413C138.649 61.1839 138.754 61.2053 138.898 61.2053C138.906 61.2053 138.918 61.2053 138.933 61.2053C139.261 61.2053 139.424 60.8826 139.424 60.2386V57.7279C139.424 57.3719 139.386 57.1053 139.312 56.9279C139.238 56.7519 139.093 56.6639 138.878 56.6639C138.492 56.6639 138.297 56.9813 138.297 57.6173L136.982 57.5626V52.5533H140.613V53.8919H138.358V55.8839C138.429 55.7466 138.556 55.6333 138.741 55.5479C138.925 55.4626 139.128 55.4213 139.346 55.4213C139.92 55.4213 140.317 55.6719 140.54 56.1773C140.762 56.6786 140.876 57.4786 140.876 58.5733C140.876 59.6706 140.837 60.4293 140.761 60.8559C140.682 61.2813 140.57 61.6066 140.422 61.8293C140.136 62.2626 139.617 62.4826 138.866 62.4826Z" fill="#C9D5DC"/>
<path fill-rule="evenodd" clip-rule="evenodd" d="M28.9933 56.9719H117.972L117.569 57.8359H29.0688L28.9933 56.9719Z" fill="#D3E0EA"/>
<path fill-rule="evenodd" clip-rule="evenodd" d="M1.90054 57.4573H117.972L117.449 58.3212H1.99894L1.90054 57.4573Z" fill="#4C6186"/>
<path fill-rule="evenodd" clip-rule="evenodd" d="M34.6937 50.9346H116.352L122.136 50.9706L121.75 51.7986H34.2354L34.6937 50.9346Z" fill="#D3E0EA"/>
<path fill-rule="evenodd" clip-rule="evenodd" d="M34.3328 51.3453L121.766 51.5653L121.3 52.4293L33.8745 52.2106L34.3328 51.3453Z" fill="#4C6186"/>
<path fill-rule="evenodd" clip-rule="evenodd" d="M91.3401 38.6413H107.95L107.694 39.1026H91.3401V38.6413Z" fill="#A3B9C6"/>
</svg>
