<svg width="279" height="83" viewBox="0 0 279 83" fill="none" xmlns="http://www.w3.org/2000/svg">
<path fill-rule="evenodd" clip-rule="evenodd" d="M22.1866 43.7535C24.1146 43.7961 25.176 49.6815 22.86 49.6815C21.4893 49.6815 19.532 49.6188 19.532 47.9508C19.532 46.2815 20.2586 43.7081 22.1866 43.7535Z" fill="#7894AE"/>
<path fill-rule="evenodd" clip-rule="evenodd" d="M18.032 46.1974L28.2933 46.0348L28.076 49.3708L18.6373 48.1068L18.032 46.1974Z" fill="#A3B9C6"/>
<path fill-rule="evenodd" clip-rule="evenodd" d="M27.1307 49.2441L18.6373 48.1068L18.396 46.6948L27.28 46.9362L27.1307 49.2441Z" fill="#7894AE"/>
<path fill-rule="evenodd" clip-rule="evenodd" d="M31.3773 39.1241H31.9813V44.1561H31.3773V39.1241Z" fill="#7894AE"/>
<path fill-rule="evenodd" clip-rule="evenodd" d="M31.9813 44.1561C36.3133 44.1561 39.8266 45.8388 39.8266 47.9148C39.8266 49.9908 36.3133 51.6735 31.9813 51.6735C27.6493 51.6735 24.136 49.9908 24.136 47.9148C24.136 45.8388 27.6493 44.1561 31.9813 44.1561Z" fill="#7894AE"/>
<path fill-rule="evenodd" clip-rule="evenodd" d="M31.9813 44.1562C36.3133 44.1562 39.8266 45.8388 39.8266 47.9148C39.8266 48.5348 39.5106 49.1202 38.9546 49.6362C37.748 49.9988 36.3226 50.2095 34.7933 50.2095C30.4613 50.2095 26.948 48.5255 26.948 46.4508C26.948 45.8295 27.264 45.2428 27.8213 44.7268C29.0266 44.3642 30.452 44.1562 31.9813 44.1562Z" fill="#A3B9C6"/>
<path fill-rule="evenodd" clip-rule="evenodd" d="M36.5973 44.8748C38.5533 45.5588 39.8266 46.6655 39.8266 47.9148C39.8266 48.3615 39.6626 48.7895 39.3626 49.1868C36.3453 49.7548 33.4973 49.7548 30.82 49.1868C29.72 48.9548 28.7747 48.2681 28.7747 47.1428V46.9201C28.7747 45.7948 29.6946 44.8748 30.82 44.8748H36.5973Z" fill="#4C6186"/>
<path fill-rule="evenodd" clip-rule="evenodd" d="M18.704 43.7535C20.6333 43.7961 21.6946 49.6815 19.3773 49.6815C18.008 49.6815 16.0493 49.6188 16.0493 47.9508C16.0493 46.2815 16.776 43.7081 18.704 43.7535Z" fill="#A3B9C6"/>
<path d="M48.4853 39.7561C48.4827 39.7561 48.4787 39.7561 48.4747 39.7561C35.6067 38.8535 25.6493 38.5668 16.1933 38.8201C16.1147 38.8255 16.048 38.7601 16.0453 38.6815C16.044 38.6015 16.1067 38.5348 16.1853 38.5335C25.6507 38.2775 35.616 38.5655 48.496 39.4681C48.576 39.4748 48.636 39.5441 48.6293 39.6228C48.624 39.6988 48.5613 39.7561 48.4853 39.7561ZM9.61734 42.9295C9.54001 42.9295 9.47602 42.8695 9.47335 42.7921C9.47068 42.7121 9.532 42.6455 9.61067 42.6415C22.5147 42.1068 32.484 42.1015 41.9347 42.6281C42.0147 42.6321 42.076 42.7001 42.0707 42.7801C42.0667 42.8588 42.0093 42.9241 41.9187 42.9161C32.476 42.3895 22.516 42.3935 9.62268 42.9295C9.62135 42.9295 9.61868 42.9295 9.61734 42.9295Z" fill="#7894AE"/>
<path fill-rule="evenodd" clip-rule="evenodd" d="M190.123 44.0815L197.175 44.3042L197.149 45.0895L190.099 44.8668L190.123 44.0815Z" fill="#7894AE"/>
<path fill-rule="evenodd" clip-rule="evenodd" d="M225.891 44.3535C224.819 44.3575 223.747 44.3628 222.675 44.3668C222.705 43.8335 222.796 43.4535 223.295 42.9415C224.344 43.0735 225.827 43.5308 225.891 44.3535Z" fill="#BBC4D4"/>
<path fill-rule="evenodd" clip-rule="evenodd" d="M274.945 44.9174L271.588 49.8854L271.587 49.8655L271.352 49.7708L274.997 44.3788L274.945 44.9174Z" fill="#7894AE"/>
<path fill-rule="evenodd" clip-rule="evenodd" d="M74.3947 31.6228H77.8186V31.9588H74.3947V31.6228Z" fill="#7894AE"/>
<path fill-rule="evenodd" clip-rule="evenodd" d="M129.392 10.4574L130.153 10.2921L136.964 41.5174L136.203 41.6828L129.392 10.4574Z" fill="#7894AE"/>
<path fill-rule="evenodd" clip-rule="evenodd" d="M212.576 42.7561H209.152V43.0921H212.576V42.7561Z" fill="#7894AE"/>
<path fill-rule="evenodd" clip-rule="evenodd" d="M276.732 34.3975H276.349V35.3415H276.732V34.3975Z" fill="#7894AE"/>
<path fill-rule="evenodd" clip-rule="evenodd" d="M273.648 34.7361H276.732V35.0015H273.648V34.7361Z" fill="#7894AE"/>
<path fill-rule="evenodd" clip-rule="evenodd" d="M274.609 36.0148H274.997V36.2801H274.609V36.0148Z" fill="#7894AE"/>
<path fill-rule="evenodd" clip-rule="evenodd" d="M274.084 34.3975H273.7V35.3415H274.084V34.3975Z" fill="#7894AE"/>
<path fill-rule="evenodd" clip-rule="evenodd" d="M208.324 41.8828H207.205C206.429 41.8828 205.795 42.5175 205.795 43.2921V44.9308C205.795 45.7068 206.429 46.3401 207.205 46.3401H208.324C209.099 46.3401 209.733 45.7068 209.733 44.9308V43.2921C209.733 42.5175 209.099 41.8828 208.324 41.8828Z" fill="#C9D5DC"/>
<path fill-rule="evenodd" clip-rule="evenodd" d="M205.985 42.5881C205.865 42.7948 205.795 43.0361 205.795 43.2921V44.9308C205.795 45.7068 206.429 46.3401 207.205 46.3401H208.324C208.508 46.3401 208.684 46.3041 208.845 46.2388C208.967 46.0308 209.036 45.7908 209.036 45.5348V43.8975C209.036 43.1215 208.403 42.4868 207.627 42.4868H206.508C206.323 42.4868 206.148 42.5228 205.985 42.5881Z" fill="#A3B9C6"/>
<path fill-rule="evenodd" clip-rule="evenodd" d="M209.928 43.8148H205.605L205.024 45.4254H210.555L209.928 43.8148Z" fill="#7894AE"/>
<path fill-rule="evenodd" clip-rule="evenodd" d="M209.785 44.0348H209.468L209.96 45.2761H210.276L209.785 44.0348Z" fill="#A3B9C6"/>
<path fill-rule="evenodd" clip-rule="evenodd" d="M209.053 44.0348C208.948 44.0348 208.843 44.0348 208.737 44.0348C208.836 44.4481 208.935 44.8628 209.035 45.2761C209.14 45.2761 209.245 45.2761 209.351 45.2761C209.252 44.8628 209.153 44.4481 209.053 44.0348Z" fill="#A3B9C6"/>
<path fill-rule="evenodd" clip-rule="evenodd" d="M208.323 44.0348C208.216 44.0348 208.111 44.0348 208.005 44.0348C208.04 44.4481 208.075 44.8628 208.109 45.2761C208.215 45.2761 208.32 45.2761 208.425 45.2761C208.391 44.8628 208.356 44.4481 208.323 44.0348Z" fill="#A3B9C6"/>
<path fill-rule="evenodd" clip-rule="evenodd" d="M207.591 44.0348C207.485 44.0348 207.379 44.0348 207.273 44.0348C207.244 44.4481 207.213 44.8628 207.184 45.2761C207.289 45.2761 207.395 45.2761 207.5 45.2761C207.531 44.8628 207.56 44.4481 207.591 44.0348Z" fill="#A3B9C6"/>
<path fill-rule="evenodd" clip-rule="evenodd" d="M206.859 44.0348C206.753 44.0348 206.648 44.0348 206.543 44.0348C206.448 44.4481 206.353 44.8628 206.257 45.2761C206.364 45.2761 206.469 45.2761 206.575 45.2761C206.669 44.8628 206.764 44.4481 206.859 44.0348Z" fill="#A3B9C6"/>
<path fill-rule="evenodd" clip-rule="evenodd" d="M206.128 44.0348H205.811L205.333 45.2761H205.649L206.128 44.0348Z" fill="#A3B9C6"/>
<path fill-rule="evenodd" clip-rule="evenodd" d="M78.6467 30.7495H79.7653C80.54 30.7495 81.1747 31.3841 81.1747 32.1588V33.7975C81.1747 34.5721 80.54 35.2068 79.7653 35.2068H78.6467C77.8707 35.2068 77.236 34.5721 77.236 33.7975V32.1588C77.236 31.3841 77.8707 30.7495 78.6467 30.7495Z" fill="#D3E0EA"/>
<path fill-rule="evenodd" clip-rule="evenodd" d="M80.0586 35.1748C79.964 35.1962 79.8653 35.2068 79.7653 35.2068H78.6467C77.8707 35.2068 77.236 34.5721 77.236 33.7975V32.1588C77.236 31.8188 77.36 31.5041 77.564 31.2588C77.6587 31.2388 77.756 31.2281 77.8573 31.2281H78.976C79.752 31.2281 80.3866 31.8628 80.3866 32.6375V34.2761C80.3866 34.6188 80.2626 34.9308 80.0586 35.1748Z" fill="#A3B9C6"/>
<path d="M124.531 30.8828H128.211V30.1402H124.531V30.8828ZM128.664 30.8828H132.344V30.1402H128.664V30.8828ZM132.799 30.8828H136.477V30.1402H132.799V30.8828ZM136.931 30.8828H140.611V30.1402H136.931V30.8828ZM141.064 30.8828H144.941V30.1402H141.064V30.8828ZM124.531 31.9548H128.211V31.1708H124.531V31.9548ZM128.664 31.9548H132.344V31.1708H128.664V31.9548ZM132.799 31.9548H136.477V31.1708H132.799V31.9548ZM136.931 31.9548H140.611V31.1708H136.931V31.9548ZM141.064 31.9548H144.941V31.1708H141.064V31.9548ZM124.531 32.7388H128.211V32.2428H124.531V32.7388ZM128.664 32.7388H132.344V32.2428H128.664V32.7388ZM132.799 32.7388H136.477V32.2428H132.799V32.7388ZM136.931 32.7388H140.611V32.2428H136.931V32.7388ZM141.064 32.7388H144.941V32.2428H141.064V32.7388ZM145.395 33.0562H144.941V33.0255H124.077V29.7868H124.531V29.8521H128.211V29.7868H128.664V29.8521H132.344V29.7868H132.799V29.8521H136.477V29.7868H136.931V29.8521H140.611V29.7868H141.064V29.8521H144.941V29.8175H145.395V29.8521H145.428V30.1402H145.395V30.8828H145.428V31.1708H145.395V31.9548H145.428V32.2428H145.395V32.7388H145.428V33.0255H145.395V33.0562Z" fill="#231F20"/>
<path fill-rule="evenodd" clip-rule="evenodd" d="M142.344 27.3255L153.236 27.2868L151.797 34.4121H144.444L142.344 27.3255Z" fill="#7894AE"/>
<path fill-rule="evenodd" clip-rule="evenodd" d="M114.497 34.2014H114.892V39.4041H114.497V34.2014Z" fill="#7E95B2"/>
<path fill-rule="evenodd" clip-rule="evenodd" d="M114.104 34.2014H114.499L113.023 39.4041H112.628L114.104 34.2014Z" fill="#7E95B2"/>
<path fill-rule="evenodd" clip-rule="evenodd" d="M115.343 34.2014H114.948L116.423 39.4041H116.817L115.343 34.2014Z" fill="#7E95B2"/>
<path fill-rule="evenodd" clip-rule="evenodd" d="M196.261 74.9401C198.135 76.1828 198.091 77.2348 199.124 79.2201C200.447 81.7641 204.827 82.5668 208.432 82.8961C213.889 83.3948 215.881 79.8588 217.684 76.2588C210.543 75.8188 203.403 75.3788 196.261 74.9401Z" fill="#B9272E"/>
<path fill-rule="evenodd" clip-rule="evenodd" d="M67.3186 39.5015H86.7347L86.44 53.1082L63.4226 52.9788L67.3186 39.5015Z" fill="#7894AE"/>
<path d="M5.02133 50.8455H9.24666V50.1028H5.02133V50.8455ZM9.69866 50.8455H13.9227V50.1028H9.69866V50.8455ZM14.376 50.8455H18.6V50.1028H14.376V50.8455ZM19.0533 50.8455H23.2773V50.1028H19.0533V50.8455ZM23.7307 50.8455H27.9546V50.1028H23.7307V50.8455ZM28.408 50.8455H32.632V50.1028H28.408V50.8455ZM33.084 50.8455H37.308V50.1028H33.084V50.8455ZM37.7613 50.8455H41.9853V50.1028H37.7613V50.8455ZM42.4387 50.8455H46.6627V50.1028H42.4387V50.8455ZM47.116 50.8455H51.34V50.1028H47.116V50.8455ZM51.7933 50.8455H56.0173V50.1028H51.7933V50.8455ZM56.4707 50.8455H60.6947V50.1028H56.4707V50.8455ZM61.1467 50.8455H65.3707V50.1028H61.1467V50.8455ZM65.824 50.8455H69.7013V50.1028H65.824V50.8455ZM5.02133 51.9188H9.24666V51.1335H5.02133V51.9188ZM9.69866 51.9188H13.9227V51.1335H9.69866V51.9188ZM14.376 51.9188H18.6V51.1335H14.376V51.9188ZM19.0533 51.9188H23.2773V51.1335H19.0533V51.9188ZM23.7307 51.9188H27.9546V51.1335H23.7307V51.9188ZM28.408 51.9188H32.632V51.1335H28.408V51.9188ZM33.084 51.9188H37.308V51.1335H33.084V51.9188ZM37.7613 51.9188H41.9853V51.1335H37.7613V51.9188ZM42.4387 51.9188H46.6627V51.1335H42.4387V51.9188ZM47.116 51.9188H51.34V51.1335H47.116V51.9188ZM51.7933 51.9188H56.0173V51.1335H51.7933V51.9188ZM56.4707 51.9188H60.6947V51.1335H56.4707V51.9188ZM61.1467 51.9188H65.3707V51.1335H61.1467V51.9188ZM65.824 51.9188H69.7013V51.1335H65.824V51.9188ZM5.02133 52.7015H9.24666V52.2068H5.02133V52.7015ZM9.69866 52.7015H13.9227V52.2068H9.69866V52.7015ZM14.376 52.7015H18.6V52.2068H14.376V52.7015ZM19.0533 52.7015H23.2773V52.2068H19.0533V52.7015ZM23.7307 52.7015H27.9546V52.2068H23.7307V52.7015ZM28.408 52.7015H32.632V52.2068H28.408V52.7015ZM33.084 52.7015H37.308V52.2068H33.084V52.7015ZM37.7613 52.7015H41.9853V52.2068H37.7613V52.7015ZM42.4387 52.7015H46.6627V52.2068H42.4387V52.7015ZM47.116 52.7015H51.34V52.2068H47.116V52.7015ZM51.7933 52.7015H56.0173V52.2068H51.7933V52.7015ZM56.4707 52.7015H60.6947V52.2068H56.4707V52.7015ZM61.1467 52.7015H65.3707V52.2068H61.1467V52.7015ZM65.824 52.7015H69.7013V52.2068H65.824V52.7015ZM70.156 53.0188H69.7013V52.9895H4.56799V49.7508H5.02133V49.8148H9.24666V49.7508H9.69866V49.8148H13.9227V49.7508H14.376V49.8148H18.6V49.7508H19.0533V49.8148H23.2773V49.7508H23.7307V49.8148H27.9546V49.7508H28.408V49.8148H32.632V49.7508H33.084V49.8148H37.308V49.7508H37.7613V49.8148H41.9853V49.7508H42.4387V49.8148H46.6627V49.7508H47.116V49.8148H51.34V49.7508H51.7933V49.8148H56.0173V49.7508H56.4707V49.8148H60.6947V49.7508H61.1467V49.8148H65.3707V49.7508H65.824V49.8148H69.7013V49.7801H70.156V49.8148H70.1893V50.1028H70.156V50.8455H70.1893V51.1335H70.156V51.9188H70.1893V52.2068H70.156V52.7015H70.1893V52.9895H70.156V53.0188Z" fill="#231F20"/>
<path fill-rule="evenodd" clip-rule="evenodd" d="M68.756 34.2921H86.44L85.1306 39.5015H67.3186L68.756 34.2921Z" fill="#A3B9C6"/>
<path fill-rule="evenodd" clip-rule="evenodd" d="M34.7813 52.9215H54.66V59.6215H34.7813V52.9215Z" fill="#4C6186"/>
<path d="M31.4893 57.1428H35.1693V56.3988H31.4893V57.1428ZM35.624 57.1428H39.304V56.3988H35.624V57.1428ZM39.756 57.1428H43.436V56.3988H39.756V57.1428ZM43.8907 57.1428H47.5707V56.3988H43.8907V57.1428ZM48.024 57.1428H51.9V56.3988H48.024V57.1428ZM31.4893 58.2148H35.1693V57.4308H31.4893V58.2148ZM35.624 58.2148H39.304V57.4308H35.624V58.2148ZM39.756 58.2148H43.436V57.4308H39.756V58.2148ZM43.8907 58.2148H47.5707V57.4308H43.8907V58.2148ZM48.024 58.2148H51.9V57.4308H48.024V58.2148ZM31.4893 58.9974H35.1693V58.5028H31.4893V58.9974ZM35.624 58.9974H39.304V58.5028H35.624V58.9974ZM39.756 58.9974H43.436V58.5028H39.756V58.9974ZM43.8907 58.9974H47.5707V58.5028H43.8907V58.9974ZM48.024 58.9974H51.9V58.5028H48.024V58.9974ZM52.3547 59.3161H51.9V59.2854H31.0347V56.0468H31.4893V56.1108H35.1693V56.0468H35.624V56.1108H39.304V56.0468H39.756V56.1108H43.436V56.0468H43.8907V56.1108H47.5707V56.0468H48.024V56.1108H51.9V56.0774H52.3547V56.1108H52.3867V56.3988H52.3547V57.1428H52.3867V57.4308H52.3547V58.2148H52.3867V58.5028H52.3547V58.9974H52.3867V59.2854H52.3547V59.3161Z" fill="#231F20"/>
<path fill-rule="evenodd" clip-rule="evenodd" d="M105.123 31.8362H108.835L108.721 32.3988L105.291 33.2441L105.123 31.8362Z" fill="#7E95B2"/>
<path d="M107.428 32.1761C107.241 32.1761 107.088 32.0241 107.088 31.8361V4.58276C107.088 4.39476 107.241 4.24275 107.428 4.24275C107.616 4.24275 107.768 4.39476 107.768 4.58276V31.8361C107.768 32.0241 107.616 32.1761 107.428 32.1761Z" fill="#7E95B2"/>
<path fill-rule="evenodd" clip-rule="evenodd" d="M77.0413 32.6815H81.364L81.9453 34.2921H76.4147L77.0413 32.6815Z" fill="#7894AE"/>
<path fill-rule="evenodd" clip-rule="evenodd" d="M79.132 34.5334H86.44V41.9734H79.132V34.5334Z" fill="#D3E0EA"/>
<path fill-rule="evenodd" clip-rule="evenodd" d="M184.551 44.6041L212.685 45.4388L214.532 54.7561L183.361 55.1988L184.551 44.6041Z" fill="#A3B9C6"/>
<path fill-rule="evenodd" clip-rule="evenodd" d="M212.616 45.4375L212.685 45.4388L214.532 54.7561L197.171 55.0028L212.616 45.4375Z" fill="#BBC4D4"/>
<path fill-rule="evenodd" clip-rule="evenodd" d="M120.469 40.9615L124.06 32.9988L132.403 32.8868L136.852 21.2081H140.633L145.083 33.2215H152.091L155.205 40.5628L120.469 40.9615Z" fill="#D3E0EA"/>
<path fill-rule="evenodd" clip-rule="evenodd" d="M121.116 39.5281L124.06 32.9988L132.403 32.8868L136.852 21.2082H140.633L142.288 25.6748L136.199 39.5281H121.116Z" fill="#7894AE"/>
<path fill-rule="evenodd" clip-rule="evenodd" d="M128.252 19.9362L144.665 19.9348C144.809 19.9348 144.929 20.0375 144.953 20.1788C144.977 20.3201 144.904 20.4748 144.764 20.5042L141.235 21.2295H131.543L128.164 20.5068C128.023 20.4775 127.941 20.3281 127.963 20.1855C127.984 20.0415 128.105 19.9362 128.252 19.9362Z" fill="#4C6186"/>
<path fill-rule="evenodd" clip-rule="evenodd" d="M128.252 19.9362L144.665 19.9348C144.809 19.9348 144.929 20.0375 144.953 20.1788C144.963 20.2361 144.956 20.2948 144.936 20.3468H127.983C127.963 20.2975 127.955 20.2415 127.963 20.1855C127.984 20.0415 128.105 19.9362 128.252 19.9362Z" fill="#A3B9C6"/>
<path fill-rule="evenodd" clip-rule="evenodd" d="M137.691 10.3948H139.785V19.8801H137.691V10.3948Z" fill="#A3B9C6"/>
<path fill-rule="evenodd" clip-rule="evenodd" d="M138.516 19.8801H137.691V10.4455H138.516V19.8801Z" fill="#7894AE"/>
<path fill-rule="evenodd" clip-rule="evenodd" d="M161.125 39.7375H170.468V37.3228H161.125V39.7375Z" fill="#4C6186"/>
<path fill-rule="evenodd" clip-rule="evenodd" d="M222.875 43.7588H227.499C229.728 43.7588 232.859 47.2441 232.833 48.3321L232.783 50.5254C232.757 51.6148 231.891 52.5081 230.801 52.5081H222.875C221.784 52.5081 220.892 51.6161 220.892 50.5254V45.7401C220.892 44.6508 221.784 43.7588 222.875 43.7588Z" fill="#C9D5DC"/>
<path fill-rule="evenodd" clip-rule="evenodd" d="M230.939 52.5014C230.893 52.5054 230.848 52.5081 230.801 52.5081H222.875C221.784 52.5081 220.892 51.6161 220.892 50.5254V45.7401C220.892 45.2895 221.045 44.8735 221.301 44.5401C221.351 44.5361 221.4 44.5348 221.452 44.5348H226.076C228.305 44.5348 231.436 48.0188 231.411 49.1081L231.36 51.3014C231.349 51.7521 231.195 52.1681 230.939 52.5014Z" fill="#BBC4D4"/>
<path fill-rule="evenodd" clip-rule="evenodd" d="M222.651 44.5348H226.076C228.305 44.5348 231.436 48.0188 231.411 49.1082L231.36 51.3015C231.355 51.5308 231.311 51.7535 231.236 51.9588H224.519C223.429 51.9588 222.537 51.0681 222.537 49.9775V45.1921C222.537 44.9615 222.577 44.7401 222.651 44.5348Z" fill="#A3B9C6"/>
<path fill-rule="evenodd" clip-rule="evenodd" d="M20.948 53.7428H29.928C30.1107 53.7428 30.268 53.8188 30.3813 53.9628C30.4947 54.1055 30.5333 54.2748 30.492 54.4535L30.1187 56.0641C30.0573 56.3295 29.8267 56.5135 29.5547 56.5135H20.5747C20.392 56.5135 20.2347 56.4375 20.1213 56.2935C20.008 56.1508 19.9693 55.9802 20.0107 55.8028L20.384 54.1921C20.4453 53.9255 20.676 53.7428 20.948 53.7428ZM33.836 53.6588H46.636C46.9133 53.6588 47.152 53.7748 47.3213 53.9948C47.492 54.2121 47.5467 54.4722 47.4787 54.7402L46.5253 58.5201C46.4267 58.9108 46.0867 59.1761 45.6827 59.1761H32.8813C32.6053 59.1761 32.3667 59.0602 32.196 58.8415C32.0267 58.6228 31.972 58.3628 32.04 58.0948L32.9933 54.3161C33.092 53.9241 33.432 53.6588 33.836 53.6588ZM278.229 49.1521L253.763 75.4095C253.193 76.0215 252.473 76.3335 251.637 76.3321L39.3787 75.8735L37.7 72.1748L10.4533 70.7868L10.684 62.6975L5.752 62.3175L2.64666 56.5135H16.96C17.2333 56.5135 17.4627 56.3295 17.5253 56.0641L17.8987 54.4535C17.94 54.2748 17.9013 54.1055 17.788 53.9628C17.6747 53.8188 17.516 53.7428 17.3347 53.7428H1.16533L0.690674 52.8548L68.872 52.9895L72.6186 39.8201L79.3827 39.8308C79.5427 39.8308 79.68 39.7735 79.7933 39.6601C79.9067 39.5468 79.9627 39.4081 79.9627 39.2495L80.0453 36.8201L91.8813 36.8281L91.8667 38.9481C91.8653 39.1081 91.9213 39.2468 92.0347 39.3601C92.148 39.4735 92.2853 39.5308 92.444 39.5308L176.292 39.7655L204.643 50.4468L278.229 49.1521Z" fill="#7894AE"/>
<path fill-rule="evenodd" clip-rule="evenodd" d="M20.948 53.7428H29.928C30.1106 53.7428 30.268 53.8188 30.3813 53.9628C30.4947 54.1055 30.5333 54.2748 30.492 54.4535L30.1186 56.0642C30.0573 56.3295 29.8266 56.5135 29.5546 56.5135H20.5747C20.392 56.5135 20.2347 56.4375 20.1213 56.2935C20.008 56.1508 19.9693 55.9802 20.0106 55.8028L20.384 54.1921C20.4453 53.9255 20.676 53.7428 20.948 53.7428ZM33.836 53.6588H46.636C46.9133 53.6588 47.152 53.7748 47.3213 53.9948C47.492 54.2122 47.5467 54.4722 47.4787 54.7402L46.5253 58.5201C46.4266 58.9108 46.0867 59.1761 45.6827 59.1761H32.8813C32.6053 59.1761 32.3666 59.0602 32.196 58.8415C32.0266 58.6228 31.972 58.3628 32.04 58.0948L32.9933 54.3161C33.092 53.9241 33.432 53.6588 33.836 53.6588ZM278.229 49.1521L253.763 75.4095C253.523 75.6668 253.257 75.8708 252.967 76.0201L41.2373 75.5642L39.56 71.8642L12.3133 70.4775L12.544 62.3868L7.61064 62.0082C-1.02402 45.8642 13.1267 72.3188 4.67332 56.5135H16.96C17.2333 56.5135 17.4626 56.3295 17.5253 56.0642L17.8986 54.4535C17.94 54.2748 17.9013 54.1055 17.788 53.9628C17.6747 53.8188 17.516 53.7428 17.3346 53.7428H3.19066L2.71732 52.8588L68.872 52.9895L72.6186 39.8201L79.3827 39.8308C79.5427 39.8308 79.68 39.7735 79.7933 39.6602C79.9066 39.5468 79.9626 39.4081 79.9626 39.2495L80.0453 36.8201L91.8813 36.8282L91.8666 38.9481C91.8653 39.1081 91.9213 39.2468 92.0346 39.3602C92.148 39.4735 92.2853 39.5308 92.444 39.5308L176.292 39.7655L204.643 50.4468L278.229 49.1521Z" fill="#A3B9C6"/>
<path fill-rule="evenodd" clip-rule="evenodd" d="M166.267 39.7375L176.292 39.7655L204.643 50.4468L205.593 50.4308L205.379 51.0255L166.267 39.7375Z" fill="#C9D5DC"/>
<path fill-rule="evenodd" clip-rule="evenodd" d="M278.229 49.1521L253.763 75.4095C253.193 76.0215 252.473 76.3335 251.637 76.3321L39.3787 75.8735L37.7 72.1748L10.4533 70.7868L10.684 62.6975L5.75199 62.3175L3.95065 61.7042L84.3546 63.7948L203.917 56.0708L278.229 49.1521Z" fill="#4C6186"/>
<path fill-rule="evenodd" clip-rule="evenodd" d="M165.459 76.1454L39.3787 75.8735L37.7 72.1748L10.4533 70.7868L10.684 62.6975L5.752 62.3175L4.53467 60.0415L83.628 60.1668L204.643 50.4468L275.055 49.2081C252.485 59.7295 213.447 69.3694 165.459 76.1454Z" fill="#4C6186"/>
<path fill-rule="evenodd" clip-rule="evenodd" d="M165.459 76.1454L40.9186 75.8761L39.2813 72.2668L12.092 70.2601L12.3227 62.1708L7.38933 61.7908L6.45599 60.0441L83.628 60.1668L204.643 50.4468L275.055 49.2081C252.485 59.7295 213.447 69.3694 165.459 76.1454Z" fill="#7894AE"/>
<path fill-rule="evenodd" clip-rule="evenodd" d="M261.077 67.5601L253.763 75.4095C253.193 76.0215 252.473 76.3335 251.637 76.3321L39.3786 75.8735L37.7 72.1748L10.4533 70.7868L10.5453 67.5601H261.077Z" fill="#9A2429"/>
<path fill-rule="evenodd" clip-rule="evenodd" d="M165.46 76.1454L39.3786 75.8735L37.7 72.1748L10.4533 70.7868L10.5453 67.5601H214.613C199.701 70.7455 183.195 73.6414 165.46 76.1454Z" fill="#9A2429"/>
<path fill-rule="evenodd" clip-rule="evenodd" d="M165.46 76.1454L40.9186 75.8761L39.2813 72.2668L12.092 70.2601L12.1693 67.5601H214.613C199.701 70.7455 183.195 73.6414 165.46 76.1454Z" fill="#C12025"/>
<path fill-rule="evenodd" clip-rule="evenodd" d="M9.72402 63.4801H10.6627L10.464 70.4295H9.72402C8.65202 70.4295 7.776 69.5535 7.776 68.4815V65.4281C7.776 64.3561 8.65202 63.4801 9.72402 63.4801Z" fill="#4C6186"/>
<path fill-rule="evenodd" clip-rule="evenodd" d="M10.1733 64.4801L10.004 70.4295H9.72402C8.65202 70.4295 7.776 69.5535 7.776 68.4815V66.4281C7.776 65.3561 8.65202 64.4801 9.72402 64.4801H10.1733Z" fill="#7894AE"/>
<path fill-rule="evenodd" clip-rule="evenodd" d="M10.5453 67.5601L10.464 70.4295H9.72402C8.65202 70.4295 7.776 69.5535 7.776 68.4815V67.5601H10.5453Z" fill="#9A2429"/>
<path fill-rule="evenodd" clip-rule="evenodd" d="M7.77734 68.5761L7.776 68.4815V67.5601H10.0973L10.0453 69.4935H9.34267C8.68533 69.4935 8.10534 69.1255 7.77734 68.5761Z" fill="#C12025"/>
<path fill-rule="evenodd" clip-rule="evenodd" d="M6.92932 64.6028H7.95999C7.84132 64.8535 7.77598 65.1334 7.77598 65.4281V68.4814C7.77598 68.7761 7.84132 69.0561 7.95999 69.3068H6.92932V64.6028Z" fill="#4C6186"/>
<path fill-rule="evenodd" clip-rule="evenodd" d="M7.51866 65.9441V68.4814C7.51866 68.7761 7.56399 69.0561 7.64666 69.3068H6.92932V65.9441H7.51866Z" fill="#7894AE"/>
<path fill-rule="evenodd" clip-rule="evenodd" d="M7.77598 67.5601V68.4814C7.77598 68.7761 7.84132 69.0561 7.95999 69.3068H6.92932V67.5601H7.77598Z" fill="#9A2429"/>
<path fill-rule="evenodd" clip-rule="evenodd" d="M7.77598 67.5601V68.4455H6.92932V67.5601H7.77598Z" fill="#9A2429"/>
<path fill-rule="evenodd" clip-rule="evenodd" d="M18.22 71.1828L17.0467 78.8188H13.068V70.9201L18.22 71.1828Z" fill="#9A2429"/>
<path fill-rule="evenodd" clip-rule="evenodd" d="M26.8186 69.1908L24.8533 71.5201L27.756 71.6681L30.7 69.2028L26.8186 69.1908Z" fill="#9A2429"/>
<path fill-rule="evenodd" clip-rule="evenodd" d="M93.6893 40.8241H97.2373C97.488 40.8241 97.692 41.0281 97.692 41.2788V45.6508C97.692 45.9014 97.488 46.1055 97.2373 46.1055H93.6893C93.44 46.1055 93.2346 45.9014 93.2346 45.6508V41.2788C93.2346 41.0281 93.44 40.8241 93.6893 40.8241Z" fill="#4C6186"/>
<path fill-rule="evenodd" clip-rule="evenodd" d="M98.7387 40.8241H102.287C102.537 40.8241 102.741 41.0281 102.741 41.2788V45.6508C102.741 45.9014 102.537 46.1055 102.287 46.1055H98.7387C98.488 46.1055 98.284 45.9014 98.284 45.6508V41.2788C98.284 41.0281 98.488 40.8241 98.7387 40.8241Z" fill="#4C6186"/>
<path fill-rule="evenodd" clip-rule="evenodd" d="M103.787 40.8241H107.335C107.585 40.8241 107.789 41.0281 107.789 41.2788V45.6508C107.789 45.9014 107.585 46.1055 107.335 46.1055H103.787C103.537 46.1055 103.332 45.9014 103.332 45.6508V41.2788C103.332 41.0281 103.537 40.8241 103.787 40.8241Z" fill="#4C6186"/>
<path fill-rule="evenodd" clip-rule="evenodd" d="M114.203 40.9615H121.297C121.548 40.9615 121.752 41.1655 121.752 41.4161V44.5588C121.752 44.8081 121.548 45.0135 121.297 45.0135H114.203C113.952 45.0135 113.748 44.8081 113.748 44.5588V41.4161C113.748 41.1655 113.952 40.9615 114.203 40.9615Z" fill="#4C6186"/>
<path fill-rule="evenodd" clip-rule="evenodd" d="M231.879 46.5655H235.28V48.3068H232.832C232.825 47.9228 232.453 47.2655 231.879 46.5668V46.5655Z" fill="#A3B9C6"/>
<path fill-rule="evenodd" clip-rule="evenodd" d="M235.279 46.9775H245.288V47.8961H235.279V46.9775Z" fill="#7894AE"/>
<path fill-rule="evenodd" clip-rule="evenodd" d="M160.5 37.3228V30.8561C160.5 27.9641 162.865 25.5988 165.756 25.5988C168.648 25.5988 171.013 27.9641 171.013 30.8561V37.3228H160.5Z" fill="#A3B9C6"/>
<path fill-rule="evenodd" clip-rule="evenodd" d="M163.9 25.9402C164.477 25.7202 165.104 25.5988 165.756 25.5988C168.648 25.5988 171.013 27.9641 171.013 30.8561V36.3108H162.155V29.8428C162.155 28.2975 162.829 26.9042 163.9 25.9402Z" fill="#C9D5DC"/>
<path fill-rule="evenodd" clip-rule="evenodd" d="M164.372 26.2801C164.863 26.1028 165.391 26.0055 165.939 26.0055H165.94C168.5 26.0055 170.595 28.1001 170.595 30.6614V31.8601C170.001 32.1454 169.337 32.3068 168.636 32.3068C166.139 32.3068 164.115 30.2814 164.115 27.7854C164.115 27.2574 164.205 26.7508 164.372 26.2801Z" fill="white"/>
<path fill-rule="evenodd" clip-rule="evenodd" d="M171.013 37.3228V35.6868H160.499V37.3228H171.013Z" fill="#A3B9C6"/>
<path fill-rule="evenodd" clip-rule="evenodd" d="M163.367 35.8828H177.256L176.292 39.7654H164.517L163.367 35.8828Z" fill="#7894AE"/>
<path fill-rule="evenodd" clip-rule="evenodd" d="M166.313 35.8828H177.256L176.292 39.7654H166.935L166.313 35.8828Z" fill="#BBC4D4"/>
<path fill-rule="evenodd" clip-rule="evenodd" d="M170.52 35.8828H177.256L176.292 39.7654H170.333L170.52 35.8828Z" fill="#A3B9C6"/>
<path fill-rule="evenodd" clip-rule="evenodd" d="M96.2853 30.6962H105.483L107.784 39.5748L94.4706 39.5375L96.2853 30.6962Z" fill="#7894AE"/>
<path fill-rule="evenodd" clip-rule="evenodd" d="M98.5186 30.6961H105.483L107.781 39.5681L97.852 39.5375L98.5186 30.6961Z" fill="#D3E0EA"/>
<path fill-rule="evenodd" clip-rule="evenodd" d="M98.5186 30.6961H103.393L105.691 39.5615L97.852 39.5375L98.5186 30.6961Z" fill="#A3B9C6"/>
<path fill-rule="evenodd" clip-rule="evenodd" d="M96.9213 34.8188H97.9107C98.1373 34.8188 98.3227 35.0041 98.3227 35.2308V38.5321C98.3227 38.7588 98.1373 38.9441 97.9107 38.9441H96.9213C96.6947 38.9441 96.5093 38.7588 96.5093 38.5321V35.2308C96.5093 35.0041 96.6947 34.8188 96.9213 34.8188Z" fill="#4C6186"/>
<path fill-rule="evenodd" clip-rule="evenodd" d="M99.368 34.8188H100.356C100.583 34.8188 100.768 35.0041 100.768 35.2308V38.5321C100.768 38.7588 100.583 38.9441 100.356 38.9441H99.368C99.14 38.9441 98.9547 38.7588 98.9547 38.5321V35.2308C98.9547 35.0041 99.14 34.8188 99.368 34.8188Z" fill="#4C6186"/>
<path fill-rule="evenodd" clip-rule="evenodd" d="M101.813 34.8188H102.801C103.029 34.8188 103.215 35.0041 103.215 35.2308V38.5321C103.215 38.7588 103.029 38.9441 102.801 38.9441H101.813C101.587 38.9441 101.4 38.7588 101.4 38.5321V35.2308C101.4 35.0041 101.587 34.8188 101.813 34.8188Z" fill="#4C6186"/>
<path fill-rule="evenodd" clip-rule="evenodd" d="M104.259 34.8188H105.248C105.475 34.8188 105.66 35.0041 105.66 35.2308V38.5321C105.66 38.7588 105.475 38.9441 105.248 38.9441H104.259C104.032 38.9441 103.847 38.7588 103.847 38.5321V35.2308C103.847 35.0041 104.032 34.8188 104.259 34.8188Z" fill="#4C6186"/>
<path fill-rule="evenodd" clip-rule="evenodd" d="M114.695 29.1961C115.845 29.1961 116.777 30.1295 116.777 31.2788C116.777 31.5188 116.737 31.7481 116.663 31.9628L116.284 34.2015H113.081L112.716 31.9308C112.649 31.7255 112.612 31.5068 112.612 31.2788C112.612 30.1295 113.544 29.1961 114.695 29.1961Z" fill="#A3B9C6"/>
<path fill-rule="evenodd" clip-rule="evenodd" d="M114.695 29.1961C115.845 29.1961 116.777 30.1294 116.777 31.2788C116.777 31.5188 116.737 31.7481 116.663 31.9628L116.331 33.9228H114.011L113.645 31.6521C113.577 31.4468 113.54 31.2281 113.54 31.0001C113.54 30.2308 113.957 29.5601 114.577 29.1988C114.616 29.1975 114.655 29.1961 114.695 29.1961Z" fill="#D3E0EA"/>
<path fill-rule="evenodd" clip-rule="evenodd" d="M77.184 32.9015H77.5013L77.0106 34.1415H76.6933L77.184 32.9015Z" fill="#A3B9C6"/>
<path fill-rule="evenodd" clip-rule="evenodd" d="M77.916 32.9015C78.0213 32.9015 78.1267 32.9015 78.2333 32.9015C78.1333 33.3148 78.0347 33.7295 77.936 34.1415C77.8293 34.1415 77.724 34.1415 77.6187 34.1415C77.7173 33.7295 77.8173 33.3148 77.916 32.9015Z" fill="#A3B9C6"/>
<path fill-rule="evenodd" clip-rule="evenodd" d="M78.648 32.9015C78.7533 32.9015 78.8587 32.9015 78.964 32.9015C78.9307 33.3148 78.896 33.7295 78.8613 34.1415C78.756 34.1415 78.6507 34.1415 78.544 34.1415C78.5787 33.7295 78.6133 33.3148 78.648 32.9015Z" fill="#A3B9C6"/>
<path fill-rule="evenodd" clip-rule="evenodd" d="M79.38 32.9015C79.4853 32.9015 79.5907 32.9015 79.696 32.9015C79.7267 33.3148 79.756 33.7295 79.7866 34.1415C79.6813 34.1415 79.576 34.1415 79.4707 34.1415C79.44 33.7295 79.4093 33.3148 79.38 32.9015Z" fill="#A3B9C6"/>
<path fill-rule="evenodd" clip-rule="evenodd" d="M80.1107 32.9015C80.2173 32.9015 80.3226 32.9015 80.428 32.9015C80.5226 33.3148 80.6173 33.7295 80.712 34.1415C80.6067 34.1415 80.5013 34.1415 80.396 34.1415C80.3013 33.7295 80.2067 33.3148 80.1107 32.9015Z" fill="#A3B9C6"/>
<path fill-rule="evenodd" clip-rule="evenodd" d="M80.8427 32.9015H81.1586L81.6373 34.1415H81.32L80.8427 32.9015Z" fill="#A3B9C6"/>
<path d="M92.376 37.4055H96.6V36.6615H92.376V37.4055ZM97.0533 37.4055H101.277V36.6615H97.0533V37.4055ZM101.731 37.4055H105.955V36.6615H101.731V37.4055ZM106.408 37.4055H110.632V36.6615H106.408V37.4055ZM111.084 37.4055H115.308V36.6615H111.084V37.4055ZM115.761 37.4055H119.985V36.6615H115.761V37.4055ZM120.439 37.4055H124.664V36.6615H120.439V37.4055ZM125.117 37.4055H129.341V36.6615H125.117V37.4055ZM129.795 37.4055H134.019V36.6615H129.795V37.4055ZM134.472 37.4055H138.695V36.6615H134.472V37.4055ZM139.148 37.4055H143.372V36.6615H139.148V37.4055ZM143.825 37.4055H148.049V36.6615H143.825V37.4055ZM148.503 37.4055H152.727V36.6615H148.503V37.4055ZM153.18 37.4055H157.056V36.6615H153.18V37.4055ZM92.376 38.4775H96.6V37.6921H92.376V38.4775ZM97.0533 38.4775H101.277V37.6921H97.0533V38.4775ZM101.731 38.4775H105.955V37.6921H101.731V38.4775ZM106.408 38.4775H110.632V37.6921H106.408V38.4775ZM111.084 38.4775H115.308V37.6921H111.084V38.4775ZM115.761 38.4775H119.985V37.6921H115.761V38.4775ZM120.439 38.4775H124.664V37.6921H120.439V38.4775ZM125.117 38.4775H129.341V37.6921H125.117V38.4775ZM129.795 38.4775H134.019V37.6921H129.795V38.4775ZM134.472 38.4775H138.695V37.6921H134.472V38.4775ZM139.148 38.4775H143.372V37.6921H139.148V38.4775ZM143.825 38.4775H148.049V37.6921H143.825V38.4775ZM148.503 38.4775H152.727V37.6921H148.503V38.4775ZM153.18 38.4775H157.056V37.6921H153.18V38.4775ZM92.376 39.2601H96.6V38.7655H92.376V39.2601ZM97.0533 39.2601H101.277V38.7655H97.0533V39.2601ZM101.731 39.2601H105.955V38.7655H101.731V39.2601ZM106.408 39.2601H110.632V38.7655H106.408V39.2601ZM111.084 39.2601H115.308V38.7655H111.084V39.2601ZM115.761 39.2601H119.985V38.7655H115.761V39.2601ZM120.439 39.2601H124.664V38.7655H120.439V39.2601ZM125.117 39.2601H129.341V38.7655H125.117V39.2601ZM129.795 39.2601H134.019V38.7655H129.795V39.2601ZM134.472 39.2601H138.695V38.7655H134.472V39.2601ZM139.148 39.2601H143.372V38.7655H139.148V39.2601ZM143.825 39.2601H148.049V38.7655H143.825V39.2601ZM148.503 39.2601H152.727V38.7655H148.503V39.2601ZM153.18 39.2601H157.056V38.7655H153.18V39.2601ZM157.511 39.5775H157.056V39.5468H91.9213V36.3095H92.376V36.3735H96.6V36.3095H97.0533V36.3735H101.277V36.3095H101.731V36.3735H105.955V36.3095H106.408V36.3735H110.632V36.3095H111.084V36.3735H115.308V36.3095H115.761V36.3735H119.985V36.3095H120.439V36.3735H124.664V36.3095H125.117V36.3735H129.341V36.3095H129.795V36.3735H134.019V36.3095H134.472V36.3735H138.695V36.3095H139.148V36.3735H143.372V36.3095H143.825V36.3735H148.049V36.3095H148.503V36.3735H152.727V36.3095H153.18V36.3735H157.056V36.3388H157.511V36.3735H157.543V36.6615H157.511V37.4055H157.543V37.6921H157.511V38.4775H157.543V38.7655H157.511V39.2601H157.543V39.5468H157.511V39.5775Z" fill="#231F20"/>
<path fill-rule="evenodd" clip-rule="evenodd" d="M112.388 76.0308L39.3787 75.8735L37.7053 72.1854L112.388 76.0308Z" fill="#9A2429"/>
<path fill-rule="evenodd" clip-rule="evenodd" d="M46.452 75.8895L54.3506 71.2534C54.5213 71.1534 54.7386 71.2041 54.836 71.3695C54.9333 71.5308 54.8693 71.7441 54.6986 71.8454L47.8026 75.8921L46.452 75.8895Z" fill="#9A2429"/>
<path fill-rule="evenodd" clip-rule="evenodd" d="M22.9226 74.0588L31.5906 73.1975L31.712 74.4268L23.0453 75.2881L22.9226 74.0588Z" fill="#ED1C24"/>
<path fill-rule="evenodd" clip-rule="evenodd" d="M274.997 34.7375H275.381V49.1494H274.997V34.7375Z" fill="#7894AE"/>
<path d="M130.895 17.8801H134.601V17.1375H130.895V17.8801ZM135.056 17.8801H138.763V17.1375H135.056V17.8801ZM139.216 17.8801H142.923V17.1375H139.216V17.8801ZM130.895 18.9535H134.601V18.1681H130.895V18.9535ZM135.056 18.9535H138.763V18.1681H135.056V18.9535ZM139.216 18.9535H142.923V18.1681H139.216V18.9535ZM130.895 19.7361H134.601V19.2415H130.895V19.7361ZM135.056 19.7361H138.763V19.2415H135.056V19.7361ZM139.216 19.7361H142.923V19.2415H139.216V19.7361ZM143.377 20.0535H142.923V20.0228H139.216V20.0441H138.763V20.0228H130.44V16.7855H130.895V16.8495H134.601V16.7948H135.056V16.8495H138.763V16.8042H139.216V16.8495H142.923V16.8148H143.377V20.0535Z" fill="#231F20"/>
<path fill-rule="evenodd" clip-rule="evenodd" d="M258.665 55.1334C259.687 54.4841 260.792 54.3428 261.411 54.7734L261.001 56.4108L260.243 56.5374L260.171 57.3748L258.665 55.1334ZM258.337 55.3614C258.408 55.3081 258.479 55.2561 258.549 55.2081L259.091 58.8028C258.253 59.0588 257.487 58.9574 257.109 58.4614C256.533 57.7028 257.083 56.3148 258.337 55.3614Z" fill="#A3B9C6"/>
<path fill-rule="evenodd" clip-rule="evenodd" d="M258.799 55.5815C259.535 55.1135 260.331 55.0121 260.776 55.3228L260.481 56.5015L259.884 57.1948L258.799 55.5815ZM258.564 55.7455C258.615 55.7068 258.665 55.6708 258.716 55.6348L259.105 58.2228C258.503 58.4081 257.951 58.3348 257.679 57.9761C257.264 57.4308 257.66 56.4321 258.564 55.7455Z" fill="#4C6186"/>
<path fill-rule="evenodd" clip-rule="evenodd" d="M258.503 54.8921L259.135 59.1028L260.78 58.2801L258.503 54.8921Z" fill="#A3B9C6"/>
<path fill-rule="evenodd" clip-rule="evenodd" d="M261.635 53.8788L262.583 58.0268L260.02 59.1655L260.065 58.6375L260.78 58.2801L260.171 57.3748L260.243 56.5375L261.001 56.4108L261.635 53.8788Z" fill="#A3B9C6"/>
<path fill-rule="evenodd" clip-rule="evenodd" d="M258.503 54.8921L260.423 58.4588L260.78 58.2801L258.503 54.8921Z" fill="#C9D5DC"/>
<path fill-rule="evenodd" clip-rule="evenodd" d="M261.635 53.8788L262.583 58.0268L261.903 58.3281L261.635 53.8788Z" fill="#C9D5DC"/>
<path fill-rule="evenodd" clip-rule="evenodd" d="M125.376 72.3535L122.777 76.0535L117.885 76.0428L119.625 72.3348L125.376 72.3535Z" fill="#9A2429"/>
<path fill-rule="evenodd" clip-rule="evenodd" d="M167.756 36.8015H169.337C169.544 36.8015 169.713 36.9708 169.713 37.1774V38.8148C169.713 39.0215 169.544 39.1908 169.337 39.1908H167.997C167.791 39.1908 167.652 39.0188 167.621 38.8148L167.38 37.1774C167.351 36.9734 167.549 36.8015 167.756 36.8015Z" fill="#4C6186"/>
<path fill-rule="evenodd" clip-rule="evenodd" d="M171.632 36.8015H172.652C172.883 36.8015 173.097 36.9734 173.072 37.1774L172.861 38.8148C172.836 39.0188 172.672 39.1908 172.443 39.1908H171.543C171.313 39.1908 171.111 39.0215 171.123 38.8148L171.212 37.1774C171.224 36.9708 171.401 36.8015 171.632 36.8015Z" fill="#4C6186"/>
<path fill-rule="evenodd" clip-rule="evenodd" d="M164.768 36.8015H165.545C165.752 36.8015 165.891 36.9734 165.921 37.1774L166.163 38.8148C166.192 39.0175 165.992 39.1908 165.787 39.1908H165.251C165.045 39.1908 164.933 39.0135 164.876 38.8148L164.393 37.1774C164.335 36.9788 164.561 36.8015 164.768 36.8015Z" fill="#4C6186"/>
<path fill-rule="evenodd" clip-rule="evenodd" d="M174.421 36.8015H175.441C175.673 36.8015 175.876 36.9734 175.835 37.1774L175.509 38.8148C175.469 39.0188 175.292 39.1908 175.063 39.1908H174.163C173.933 39.1908 173.744 39.0215 173.769 38.8148L173.976 37.1774C174.001 36.9708 174.191 36.8015 174.421 36.8015Z" fill="#4C6186"/>
<path fill-rule="evenodd" clip-rule="evenodd" d="M163.205 35.5215H177.439V35.8828H163.205V35.5215Z" fill="#7894AE"/>
<path fill-rule="evenodd" clip-rule="evenodd" d="M177.44 29.9975H177.72V35.8988H177.44V29.9975Z" fill="#7E95B2"/>
<path fill-rule="evenodd" clip-rule="evenodd" d="M180.087 29.6588H179.704V30.6015H180.087V29.6588Z" fill="#7E95B2"/>
<path fill-rule="evenodd" clip-rule="evenodd" d="M180.087 35.0308H179.704V35.9734H180.087V35.0308Z" fill="#7E95B2"/>
<path fill-rule="evenodd" clip-rule="evenodd" d="M177.44 29.9975H179.896V30.2628H177.44V29.9975Z" fill="#7E95B2"/>
<path fill-rule="evenodd" clip-rule="evenodd" d="M177.44 35.3708H179.896V35.6348H177.44V35.3708Z" fill="#7E95B2"/>
<path fill-rule="evenodd" clip-rule="evenodd" d="M151.559 25.0081C151.528 25.0108 151.496 25.0108 151.465 25.0081H151.559ZM150.261 21.3735L151.509 20.8335C151.885 20.6708 152.325 20.8468 152.488 21.2228L153.441 23.4321C153.604 23.8081 153.429 24.2494 153.053 24.4121L151.805 24.9508C151.731 24.9828 151.652 25.0001 151.576 25.0068L149.949 21.6268C150.025 21.5175 150.131 21.4295 150.261 21.3735Z" fill="#D3E0EA"/>
<path fill-rule="evenodd" clip-rule="evenodd" d="M151.559 25.0081C151.528 25.0108 151.496 25.0108 151.465 25.0081H151.559ZM153.053 24.4108V24.4121L151.805 24.9508C151.731 24.9828 151.652 25.0001 151.576 25.0068L150.127 21.9948L151.065 21.5894C151.441 21.4268 151.881 21.6028 152.044 21.9774L152.997 24.1881C153.029 24.2614 153.047 24.3361 153.053 24.4108Z" fill="#A3B9C6"/>
<path fill-rule="evenodd" clip-rule="evenodd" d="M149.949 21.6255C148.956 22.2161 148.379 22.9161 148.511 24.2295C148.555 24.6775 148.929 25.0161 149.38 25.0148L151.576 25.0082L149.949 21.6255Z" fill="#BBC4D4"/>
<path fill-rule="evenodd" clip-rule="evenodd" d="M148.533 23.3961C148.489 23.6441 148.479 23.9201 148.511 24.2295C148.555 24.6775 148.929 25.0161 149.38 25.0148L151.576 25.0082L150.123 21.9868C149.447 22.3961 148.903 22.8415 148.533 23.3961Z" fill="#7894AE"/>
<path fill-rule="evenodd" clip-rule="evenodd" d="M149.38 25.0148H151.284V25.7681H149.38V25.0148Z" fill="#4C6186"/>
<path fill-rule="evenodd" clip-rule="evenodd" d="M148.445 26.2348H152.219V26.8441H148.445V26.2348Z" fill="#4C6186"/>
<path fill-rule="evenodd" clip-rule="evenodd" d="M129.997 4.37348H130.279V10.2748H129.997V4.37348Z" fill="#7894AE"/>
<path fill-rule="evenodd" clip-rule="evenodd" d="M130.137 0.588106C130.383 0.588106 130.581 0.626791 130.581 0.673458V4.28544C130.581 4.3321 130.383 4.37079 130.137 4.37079C129.893 4.37079 129.695 4.3321 129.695 4.28544V0.673458C129.695 0.626791 129.893 0.588106 130.137 0.588106Z" fill="#7894AE"/>
<path fill-rule="evenodd" clip-rule="evenodd" d="M132.644 4.03346H132.261V4.9761H132.644V4.03346Z" fill="#7894AE"/>
<path fill-rule="evenodd" clip-rule="evenodd" d="M129.997 4.37348H132.453V4.63748H129.997V4.37348Z" fill="#7894AE"/>
<path fill-rule="evenodd" clip-rule="evenodd" d="M158.809 39.7295H163.272L162.1 45.2188H160.284L158.809 39.7295Z" fill="#BBC4D4"/>
<path fill-rule="evenodd" clip-rule="evenodd" d="M158.809 39.7295H156.767L160.284 45.2188L158.809 39.7295Z" fill="#7894AE"/>
<path fill-rule="evenodd" clip-rule="evenodd" d="M163.272 39.7295H166.487L162.1 45.2188L163.272 39.7295Z" fill="#7894AE"/>
<path fill-rule="evenodd" clip-rule="evenodd" d="M136.52 21.1975L138.88 21.1895L138.877 23.2561L136.52 21.1975Z" fill="#4C6186"/>
<path fill-rule="evenodd" clip-rule="evenodd" d="M141.24 21.1975L138.881 21.1895L138.883 23.2561L141.24 21.1975Z" fill="#A3B9C6"/>
<path fill-rule="evenodd" clip-rule="evenodd" d="M148.22 25.7228H152.444C152.585 25.7228 152.701 25.8374 152.701 25.9788C152.701 26.1201 152.585 26.2348 152.444 26.2348H148.22C148.079 26.2348 147.963 26.1201 147.963 25.9788C147.963 25.8374 148.079 25.7228 148.22 25.7228Z" fill="#BBC4D4"/>
<path fill-rule="evenodd" clip-rule="evenodd" d="M148.22 26.8441H152.444C152.585 26.8441 152.701 26.9588 152.701 27.1001C152.701 27.2415 152.585 27.3561 152.444 27.3561H148.22C148.079 27.3561 147.963 27.2415 147.963 27.1001C147.963 26.9588 148.079 26.8441 148.22 26.8441Z" fill="#BBC4D4"/>
<path d="M137.967 4.76014V5.64412L138.812 4.76014H137.967ZM138.16 5.8588H139.111V4.86547L138.16 5.8588ZM137.967 6.14679V7.03081L138.813 6.14679H137.967ZM138.159 7.24679H139.111V6.25213L138.159 7.24679ZM137.967 7.53348V8.4188L138.813 7.53348H137.967ZM138.159 8.63348H139.111V7.64015L138.159 8.63348ZM137.967 8.92146V9.80682L138.813 8.92146H137.967ZM137.967 10.2508H139.111V9.02814L137.967 10.2228V10.2508ZM135.256 10.1828L135.821 11.9028L137.575 10.4015L137.547 9.60548L135.256 10.1828ZM133.099 12.8988L134.44 13.0855L135.584 12.1055L134.976 10.2535L133.392 10.6535L133.099 12.8988ZM134.528 13.3895L132.776 13.1441L133.132 10.4215L133.227 10.3988L137.677 9.27482V4.47081H139.488L139.4 4.56414V5.8588H139.488L139.4 5.95213V7.24679H139.488L139.4 7.34015V8.63348H139.488L139.4 8.7268V10.5388H137.857L137.813 10.5748L134.528 13.3895Z" fill="#231F20"/>
<path fill-rule="evenodd" clip-rule="evenodd" d="M139.103 3.17878L139.125 3.17348L143.231 16.5988C143.223 16.6028 143.216 16.6068 143.208 16.6094C142.615 16.7908 141.215 13.9308 140.08 10.2241C138.941 6.51479 138.505 3.36145 139.103 3.17878Z" fill="#7894AE"/>
<path fill-rule="evenodd" clip-rule="evenodd" d="M140.008 6.06282L143.231 16.5988C143.223 16.6028 143.216 16.6068 143.208 16.6095C142.732 16.7535 141.739 14.9468 140.779 12.3175C139.784 9.03614 139.449 6.46015 140.008 6.06282Z" fill="#4C6186"/>
<path d="M219.671 61.7255H221.08V56.3281L219.671 61.7255ZM221.08 65.0002V63.0682H218.387V61.8441L220.788 54.0561H222.565V61.7255H223.411V63.0682H222.565V65.0002H221.08Z" fill="#C9D5DC"/>
<path d="M225.336 64.9935V56.1228C225.193 56.2921 224.996 56.4241 224.74 56.5175C224.484 56.6108 224.229 56.6575 223.981 56.6575V55.4215C224.333 55.3721 224.668 55.2308 224.984 54.9921C225.301 54.7575 225.543 54.4441 225.709 54.0561H227V64.9935H225.336Z" fill="#C9D5DC"/>
<path d="M229.533 64.9935V56.1228C229.391 56.2921 229.193 56.4241 228.937 56.5175C228.681 56.6108 228.427 56.6575 228.179 56.6575V55.4215C228.531 55.3721 228.865 55.2308 229.181 54.9921C229.5 54.7575 229.741 54.4441 229.907 54.0561H231.197V64.9935H229.533Z" fill="#C9D5DC"/>
<path fill-rule="evenodd" clip-rule="evenodd" d="M114.397 29.6641C114.545 29.6095 114.707 29.5801 114.872 29.5801C115.649 29.5801 116.285 30.2161 116.285 30.9935V31.3575C116.105 31.4441 115.904 31.4921 115.691 31.4921C114.933 31.4921 114.319 30.8788 114.319 30.1201C114.319 29.9601 114.347 29.8068 114.397 29.6641Z" fill="white"/>
<path fill-rule="evenodd" clip-rule="evenodd" d="M239.296 51.9095L243.944 51.8668C244.176 51.8655 244.368 52.0535 244.371 52.2855V52.2868C244.372 52.5188 244.184 52.7108 243.952 52.7135L239.304 52.7561C239.071 52.7588 238.879 52.5695 238.877 52.3361C238.875 52.1041 239.063 51.9121 239.296 51.9095Z" fill="#4C6186"/>
<path fill-rule="evenodd" clip-rule="evenodd" d="M213.877 52.3135L218.525 52.2708C218.757 52.2682 218.949 52.4561 218.952 52.6895C218.955 52.9228 218.765 53.1135 218.533 53.1161L213.885 53.1588C213.652 53.1615 213.46 52.9722 213.459 52.7402C213.456 52.5068 213.644 52.3148 213.877 52.3135Z" fill="#4C6186"/>
<path d="M222.323 46.5588C222.144 46.5588 222 46.7041 222 46.8828V50.4735C222 50.6521 222.144 50.7975 222.323 50.7975H223.623C223.801 50.7975 223.945 50.6521 223.945 50.4735V46.8828C223.945 46.7041 223.801 46.5588 223.623 46.5588H222.323ZM223.623 51.0854H222.323C221.985 51.0854 221.711 50.8108 221.711 50.4735V46.8828C221.711 46.5454 221.985 46.2708 222.323 46.2708H223.623C223.96 46.2708 224.235 46.5454 224.235 46.8828V50.4735C224.235 50.8108 223.96 51.0854 223.623 51.0854ZM226.119 46.5588C225.939 46.5588 225.795 46.7041 225.795 46.8828V50.4735C225.795 50.6521 225.939 50.7975 226.119 50.7975H227.417C227.596 50.7975 227.741 50.6521 227.741 50.4735V46.8828C227.741 46.7041 227.596 46.5588 227.417 46.5588H226.119ZM227.417 51.0854H226.119C225.781 51.0854 225.505 50.8108 225.505 50.4735V46.8828C225.505 46.5454 225.781 46.2708 226.119 46.2708H227.417C227.753 46.2708 228.029 46.5454 228.029 46.8828V50.4735C228.029 50.8108 227.753 51.0854 227.417 51.0854Z" fill="#7894AE"/>
<path fill-rule="evenodd" clip-rule="evenodd" d="M93.48 49.1228H113.415C113.613 49.1228 113.775 49.2855 113.775 49.4828V52.2361C113.775 52.4348 113.613 52.5961 113.415 52.5961H93.48C93.2827 52.5961 93.1213 52.4348 93.1213 52.2361V49.4828C93.1213 49.2855 93.2827 49.1228 93.48 49.1228Z" fill="#D3E0EA"/>
<path d="M93.48 49.2668C93.3613 49.2668 93.2653 49.3641 93.2653 49.4828V52.2361C93.2653 52.3548 93.3613 52.4521 93.48 52.4521H113.416C113.533 52.4521 113.631 52.3548 113.631 52.2361V49.4828C113.631 49.3641 113.533 49.2668 113.416 49.2668H93.48ZM113.416 52.7401H93.48C93.2027 52.7401 92.976 52.5135 92.976 52.2361V49.4828C92.976 49.2055 93.2027 48.9788 93.48 48.9788H113.416C113.693 48.9788 113.919 49.2055 113.919 49.4828V52.2361C113.919 52.5135 113.693 52.7401 113.416 52.7401Z" fill="#4C6186"/>
<path fill-rule="evenodd" clip-rule="evenodd" d="M113.188 52.3774H93.6546C93.46 52.3774 93.3 52.2281 93.3 52.0441V49.6068H112.832C113.028 49.6068 113.188 49.7561 113.188 49.9401V52.3774Z" fill="#A3B9C6"/>
<path fill-rule="evenodd" clip-rule="evenodd" d="M114.084 45.8041H117.039C117.232 45.8041 117.389 45.9614 117.389 46.1534V52.2641C117.389 52.4575 117.232 52.6148 117.039 52.6148H114.084C113.892 52.6148 113.735 52.4575 113.735 52.2641V46.1534C113.735 45.9614 113.892 45.8041 114.084 45.8041Z" fill="#D3E0EA"/>
<path d="M114.084 45.9481C113.972 45.9481 113.879 46.0401 113.879 46.1535V52.2641C113.879 52.3788 113.972 52.4708 114.084 52.4708H117.039C117.152 52.4708 117.245 52.3788 117.245 52.2641V46.1535C117.245 46.0401 117.152 45.9481 117.039 45.9481H114.084ZM117.039 52.7588H114.084C113.812 52.7588 113.589 52.5375 113.589 52.2641V46.1535C113.589 45.8815 113.812 45.6615 114.084 45.6615H117.039C117.311 45.6615 117.533 45.8815 117.533 46.1535V52.2641C117.533 52.5375 117.311 52.7588 117.039 52.7588Z" fill="#4C6186"/>
<path fill-rule="evenodd" clip-rule="evenodd" d="M116.891 52.4641H114.267C114.085 52.4641 113.939 52.3108 113.939 52.1228V46.2841H116.563C116.743 46.2841 116.891 46.4375 116.891 46.6255V52.4641Z" fill="#A3B9C6"/>
<path fill-rule="evenodd" clip-rule="evenodd" d="M12.0133 57.7588C12.2946 57.7588 12.524 57.9881 12.524 58.2695C12.524 58.5521 12.2946 58.7801 12.0133 58.7801C11.7306 58.7801 11.5013 58.5521 11.5013 58.2695C11.5013 57.9881 11.7306 57.7588 12.0133 57.7588ZM12.0133 57.1641C12.6226 57.1641 13.1187 57.6588 13.1187 58.2695C13.1187 58.8801 12.6226 59.3748 12.0133 59.3748C11.4026 59.3748 10.908 58.8801 10.908 58.2695C10.908 57.6588 11.4026 57.1641 12.0133 57.1641Z" fill="#7894AE"/>
<path d="M12.0133 57.9028C11.8106 57.9028 11.6453 58.0681 11.6453 58.2695C11.6453 58.4721 11.8106 58.6375 12.0133 58.6375C12.2146 58.6375 12.38 58.4721 12.38 58.2695C12.38 58.0681 12.2146 57.9028 12.0133 57.9028ZM12.0133 58.9241C11.652 58.9241 11.3586 58.6308 11.3586 58.2695C11.3586 57.9081 11.652 57.6148 12.0133 57.6148C12.3733 57.6148 12.6666 57.9081 12.6666 58.2695C12.6666 58.6308 12.3733 58.9241 12.0133 58.9241ZM12.0133 57.3082C11.4826 57.3082 11.052 57.7401 11.052 58.2695C11.052 58.7988 11.4826 59.2308 12.0133 59.2308C12.5426 59.2308 12.9733 58.7988 12.9733 58.2695C12.9733 57.7401 12.5426 57.3082 12.0133 57.3082ZM12.0133 59.5188C11.324 59.5188 10.764 58.9588 10.764 58.2695C10.764 57.5801 11.324 57.0201 12.0133 57.0201C12.7013 57.0201 13.2613 57.5801 13.2613 58.2695C13.2613 58.9588 12.7013 59.5188 12.0133 59.5188Z" fill="#4C6186"/>
<path fill-rule="evenodd" clip-rule="evenodd" d="M25.6293 57.7588C25.9107 57.7588 26.14 57.9881 26.14 58.2695C26.14 58.5521 25.9107 58.7801 25.6293 58.7801C25.3467 58.7801 25.1186 58.5521 25.1186 58.2695C25.1186 57.9881 25.3467 57.7588 25.6293 57.7588ZM25.6293 57.1641C26.24 57.1641 26.7347 57.6588 26.7347 58.2695C26.7347 58.8801 26.24 59.3748 25.6293 59.3748C25.0187 59.3748 24.524 58.8801 24.524 58.2695C24.524 57.6588 25.0187 57.1641 25.6293 57.1641Z" fill="#7894AE"/>
<path d="M25.6293 57.9028C25.4266 57.9028 25.2626 58.0681 25.2626 58.2695C25.2626 58.4721 25.4266 58.6375 25.6293 58.6375C25.8306 58.6375 25.9946 58.4721 25.9946 58.2695C25.9946 58.0681 25.8306 57.9028 25.6293 57.9028ZM25.6293 58.9241C25.268 58.9241 24.9733 58.6308 24.9733 58.2695C24.9733 57.9081 25.268 57.6148 25.6293 57.6148C25.9893 57.6148 26.284 57.9081 26.284 58.2695C26.284 58.6308 25.9893 58.9241 25.6293 58.9241ZM25.6293 57.3082C25.0986 57.3082 24.668 57.7401 24.668 58.2695C24.668 58.7988 25.0986 59.2308 25.6293 59.2308C26.1586 59.2308 26.5893 58.7988 26.5893 58.2695C26.5893 57.7401 26.1586 57.3082 25.6293 57.3082ZM25.6293 59.5188C24.94 59.5188 24.3787 58.9588 24.3787 58.2695C24.3787 57.5801 24.94 57.0201 25.6293 57.0201C26.3173 57.0201 26.8787 57.5801 26.8787 58.2695C26.8787 58.9588 26.3173 59.5188 25.6293 59.5188Z" fill="#4C6186"/>
<path fill-rule="evenodd" clip-rule="evenodd" d="M166.236 41.0748L168.56 41.0681C168.793 41.0681 168.984 41.2614 168.981 41.4934V41.4948C168.977 41.7268 168.788 41.9148 168.556 41.9148L166.231 41.9201C165.999 41.9214 165.807 41.7281 165.811 41.4961C165.813 41.2628 166.003 41.0761 166.236 41.0748Z" fill="#4C6186"/>
<path fill-rule="evenodd" clip-rule="evenodd" d="M133.505 73.1081L187.673 71.6228L183.453 74.3055L137.179 75.4468L133.505 73.1081Z" fill="#9A2429"/>
<path fill-rule="evenodd" clip-rule="evenodd" d="M90.5707 71.5761L116.82 73.3588L113.784 75.2895L94.244 73.9161L90.5707 71.5761Z" fill="#9A2429"/>
<path fill-rule="evenodd" clip-rule="evenodd" d="M133.505 72.8001L187.673 71.6134L183.453 73.7561L137.179 74.6681L133.505 72.8001Z" fill="#ED1C24"/>
<path fill-rule="evenodd" clip-rule="evenodd" d="M90.5707 71.5761L116.82 73.0002L113.784 74.5415L94.244 73.4455L90.5707 71.5761Z" fill="#ED1C24"/>
<path fill-rule="evenodd" clip-rule="evenodd" d="M125.387 72.3534L124.212 79.9894H120.233L119.625 72.3348L125.387 72.3534Z" fill="#ED1C24"/>
<path fill-rule="evenodd" clip-rule="evenodd" d="M26.8186 69.1908L25.1133 73.8415L27.552 73.5988L30.7067 69.2028L26.8186 69.1908Z" fill="#ED1C24"/>
<path fill-rule="evenodd" clip-rule="evenodd" d="M21.7053 74.4561L54.8026 71.1641C54.9986 71.1441 55.176 71.2815 55.1946 71.4695C55.2133 71.6575 55.0666 71.8281 54.8693 71.8468L21.7733 75.1401C21.576 75.1588 21.4 75.0215 21.3813 74.8335C21.3626 74.6455 21.508 74.4748 21.7053 74.4561Z" fill="#ED1C24"/>
<path fill-rule="evenodd" clip-rule="evenodd" d="M23.524 74.8041C23.2293 74.5801 22.9347 74.3561 22.6387 74.1308C22.5187 73.4108 22.3987 72.6921 22.2773 71.9721C23.316 72.5615 23.8147 73.4588 23.524 74.8041Z" fill="#6C8BC7"/>
<path fill-rule="evenodd" clip-rule="evenodd" d="M23.484 74.3895C23.2386 74.6681 22.9933 74.9468 22.748 75.2241C22.7707 75.9535 22.7946 76.6828 22.8186 77.4121C23.7213 76.6294 24.032 75.6521 23.484 74.3895Z" fill="#6C8BC7"/>
</svg>
