<svg width="313" height="59" viewBox="0 0 313 59" fill="none" xmlns="http://www.w3.org/2000/svg">
<path fill-rule="evenodd" clip-rule="evenodd" d="M184.877 1.21878C185.093 1.21878 185.269 1.45079 185.269 1.73213V26.0534C185.269 26.3348 185.093 26.5655 184.877 26.5655C184.66 26.5655 184.484 26.3348 184.484 26.0534V1.73213C184.484 1.45079 184.66 1.21878 184.877 1.21878Z" fill="#4D6987"/>
<path fill-rule="evenodd" clip-rule="evenodd" d="M183.452 4.45612H186.301V4.77347H183.452V4.45612Z" fill="#4D6987"/>
<path fill-rule="evenodd" clip-rule="evenodd" d="M193.527 3.96145C193.743 3.96145 193.92 4.16811 193.92 4.42011V26.1081C193.92 26.3601 193.743 26.5655 193.527 26.5655C193.311 26.5655 193.135 26.3601 193.135 26.1081V4.42011C193.135 4.16811 193.311 3.96145 193.527 3.96145Z" fill="#4D6987"/>
<path fill-rule="evenodd" clip-rule="evenodd" d="M192.607 4.45612H194.448V4.77347H192.607V4.45612Z" fill="#4D6987"/>
<path fill-rule="evenodd" clip-rule="evenodd" d="M197.167 2.53747C197.383 2.53747 197.559 2.75745 197.559 3.02412V26.0801C197.559 26.3481 197.383 26.5655 197.167 26.5655C196.951 26.5655 196.773 26.3481 196.773 26.0801V3.02412C196.773 2.75745 196.951 2.53747 197.167 2.53747Z" fill="#4D6987"/>
<path fill-rule="evenodd" clip-rule="evenodd" d="M196.404 3.22411H197.928V5.70279H196.404V3.22411Z" fill="#4D6987"/>
<path fill-rule="evenodd" clip-rule="evenodd" d="M207.821 2.53747C208.037 2.53747 208.213 2.75745 208.213 3.02412V26.0801C208.213 26.3481 208.037 26.5655 207.821 26.5655C207.604 26.5655 207.428 26.3481 207.428 26.0801V3.02412C207.428 2.75745 207.604 2.53747 207.821 2.53747Z" fill="#4D6987"/>
<path fill-rule="evenodd" clip-rule="evenodd" d="M206.515 5.16412H209.125V5.70279H206.515V5.16412Z" fill="#4D6987"/>
<path fill-rule="evenodd" clip-rule="evenodd" d="M206.104 3.90944H209.537V4.44678H206.104V3.90944Z" fill="#4D6987"/>
<path fill-rule="evenodd" clip-rule="evenodd" d="M209.02 3.27743H209.537V3.91077H209.02V3.27743Z" fill="#4D6987"/>
<path fill-rule="evenodd" clip-rule="evenodd" d="M212.389 4.73213C212.605 4.73213 212.781 4.93214 212.781 5.1748V26.1241C212.781 26.3668 212.605 26.5655 212.389 26.5655C212.172 26.5655 211.996 26.3668 211.996 26.1241V5.1748C211.996 4.93214 212.172 4.73213 212.389 4.73213Z" fill="#4D6987"/>
<path fill-rule="evenodd" clip-rule="evenodd" d="M201.364 0.718779C201.476 0.718779 201.568 0.953468 201.568 1.24147V26.0428C201.568 26.3308 201.476 26.5655 201.364 26.5655C201.252 26.5655 201.161 26.3308 201.161 26.0428V1.24147C201.161 0.953468 201.252 0.718779 201.364 0.718779Z" fill="#4D6987"/>
<path fill-rule="evenodd" clip-rule="evenodd" d="M200.719 4.45612H202.011V4.77347H200.719V4.45612Z" fill="#4D6987"/>
<path fill-rule="evenodd" clip-rule="evenodd" d="M2.39732 34.0628C16.1293 28.8134 37.3453 26.3121 52.9867 26.3121H309.284C311.157 26.3121 312.687 27.8414 312.687 29.7148V51.0534C312.687 58.5334 304.951 58.9508 299.576 57.5388C295.991 56.5961 293.219 54.3734 287.568 54.3734H3.61199C1.73732 54.3734 0.20932 52.8441 0.20932 50.9708V37.2428C0.20932 35.8028 1.05332 34.5774 2.39732 34.0628Z" fill="#6987A1"/>
<path fill-rule="evenodd" clip-rule="evenodd" d="M300.671 57.7921C300.297 57.7161 299.932 57.6321 299.576 57.5388C295.991 56.5961 293.219 54.3734 287.568 54.3734H5.45067C5.26133 53.9414 5.15601 53.4614 5.15601 52.9548V39.2268C5.15601 37.7881 5.95867 36.5615 7.23467 36.0481C20.2893 30.7988 40.4573 28.2975 55.3293 28.2975H298.972C300.753 28.2975 305.795 29.8281 305.795 31.7001V53.0374C305.795 55.1428 301.623 56.6894 300.671 57.7921Z" fill="#8CABBA"/>
<path fill-rule="evenodd" clip-rule="evenodd" d="M298.593 57.2441C295.449 56.2015 292.692 54.3735 287.568 54.3735H14.288C14.1427 53.9948 14.06 53.5815 14.06 53.1481V39.9668C14.06 38.5855 14.8307 37.4081 16.0573 36.9148C28.5987 31.8748 47.972 29.4721 62.2573 29.4721H290.851C292.561 29.4721 297.405 30.9415 297.405 32.7401V53.2268C297.405 54.9215 300.043 56.2401 298.593 57.2441Z" fill="#A0BFCE"/>
<path fill-rule="evenodd" clip-rule="evenodd" d="M312.687 35.2348V51.0534C312.687 58.5334 304.951 58.9508 299.576 57.5388C295.991 56.5961 293.219 54.3734 287.568 54.3734H3.61199C1.73732 54.3734 0.20932 52.8441 0.20932 50.9708V37.2428C0.20932 36.4921 0.439995 35.7988 0.850661 35.2348H312.687Z" fill="#244B9A"/>
<path fill-rule="evenodd" clip-rule="evenodd" d="M9.40799 35.2348H305.795V41.5828C305.795 50.5415 284.501 48.8975 278.543 48.8975H29.3507C22.2186 48.8975 9.51599 49.5014 9.45599 41.5681L9.40799 35.2348Z" fill="#2056C1"/>
<path fill-rule="evenodd" clip-rule="evenodd" d="M0.20932 38.1961H7.40932C8.04132 38.1961 8.55865 38.7068 8.55865 39.3321V51.7175C8.55865 52.3428 8.04132 52.8535 7.40932 52.8535H0.779991C0.419991 52.3135 0.20932 51.6668 0.20932 50.9708V38.1961Z" fill="white"/>
<path fill-rule="evenodd" clip-rule="evenodd" d="M312.687 48.9294V51.0534C312.687 58.5334 304.951 58.9508 299.576 57.5388C296.987 56.8574 294.821 55.5094 291.689 54.8121V48.9294H312.687Z" fill="#8CABBA"/>
<path fill-rule="evenodd" clip-rule="evenodd" d="M291.689 52.3668V48.9295H309.803C309.028 55.2801 301.841 55.5815 296.763 54.2468C295.02 53.7881 293.471 53.0268 291.689 52.3668Z" fill="#A3B9C6"/>
<path fill-rule="evenodd" clip-rule="evenodd" d="M291.689 50.7108V48.9295H305.396C303.051 52.3575 297.543 52.3508 293.421 51.2681C292.827 51.1121 292.255 50.9214 291.689 50.7108Z" fill="#C9D5DC"/>
<path fill-rule="evenodd" clip-rule="evenodd" d="M227.876 15.9041H188.152C187.081 15.9041 186.208 16.7774 186.208 17.8481V26.3121H229.82V17.8481C229.82 16.7774 228.947 15.9041 227.876 15.9041Z" fill="#8CABBA"/>
<path fill-rule="evenodd" clip-rule="evenodd" d="M186.388 17.0335C186.273 17.2815 186.208 17.5574 186.208 17.8481V26.3121H224.723V18.9615C224.723 17.8908 223.848 17.0174 222.777 17.0174H186.643C186.556 17.0174 186.472 17.0215 186.388 17.0335Z" fill="#6987A1"/>
<path fill-rule="evenodd" clip-rule="evenodd" d="M201.809 26.3121V19.5921C201.809 18.5214 200.936 17.6481 199.864 17.6481H186.219C186.212 17.7148 186.208 17.7814 186.208 17.8481V26.3121H201.809Z" fill="#4D6987"/>
<path fill-rule="evenodd" clip-rule="evenodd" d="M300.035 28.9748H312.604C312.657 29.2135 312.687 29.4614 312.687 29.7148V32.6601H300.035V28.9748Z" fill="#8CABBA"/>
<path fill-rule="evenodd" clip-rule="evenodd" d="M300.035 28.9748H308.992C310.809 29.5961 311.08 30.5881 311.08 31.7001V32.6601H300.035V28.9748Z" fill="#A0BFCE"/>
<path fill-rule="evenodd" clip-rule="evenodd" d="M279.824 30.6388H278.396C278.348 30.6388 278.308 30.7281 278.308 30.8388V32.5028C278.308 32.6135 278.348 32.7028 278.396 32.7028H279.824C279.872 32.7028 279.912 32.6135 279.912 32.5028V30.8388C279.912 30.7281 279.872 30.6388 279.824 30.6388Z" fill="#8CABBA"/>
<path fill-rule="evenodd" clip-rule="evenodd" d="M301.981 24.0708H305.4V26.3508H301.981V24.0708Z" fill="#6987A1"/>
<path fill-rule="evenodd" clip-rule="evenodd" d="M302.777 24.0708H305.4V26.3508H302.777V24.0708Z" fill="#8CABBA"/>
<path fill-rule="evenodd" clip-rule="evenodd" d="M302.868 21.7908H304.515V24.0708H302.868V21.7908Z" fill="#6987A1"/>
<path fill-rule="evenodd" clip-rule="evenodd" d="M303.664 21.7908H304.515V24.0708H303.664V21.7908Z" fill="#8CABBA"/>
<path fill-rule="evenodd" clip-rule="evenodd" d="M295.552 30.8001H282.851C282.781 30.8001 282.724 30.8574 282.724 30.9268V32.4454C282.724 32.5161 282.781 32.5721 282.851 32.5721H295.552C295.621 32.5721 295.679 32.5161 295.679 32.4454V30.9268C295.679 30.8574 295.621 30.8001 295.552 30.8001Z" fill="#C9D5DC"/>
<path fill-rule="evenodd" clip-rule="evenodd" d="M295.741 30.5668H283.047C282.976 30.5668 282.917 30.6255 282.917 30.6961V32.2094C282.917 32.2814 282.976 32.3388 283.047 32.3388H295.741C295.813 32.3388 295.871 32.2814 295.871 32.2094V30.6961C295.871 30.6255 295.813 30.5668 295.741 30.5668Z" fill="#39506E"/>
<path fill-rule="evenodd" clip-rule="evenodd" d="M258.507 26.3121V29.7134C258.507 30.7548 257.627 31.6055 256.551 31.6055H230.409V26.3121H258.507Z" fill="#C9D5DC"/>
<path fill-rule="evenodd" clip-rule="evenodd" d="M211.375 26.3121V29.7134C211.375 30.7548 210.493 31.6055 209.419 31.6055H183.276V26.3121H211.375Z" fill="#C9D5DC"/>
<path fill-rule="evenodd" clip-rule="evenodd" d="M141.885 26.3121V29.7134C141.885 30.7548 141.004 31.6055 139.929 31.6055H113.787V26.3121H141.885Z" fill="#C9D5DC"/>
<path fill-rule="evenodd" clip-rule="evenodd" d="M91 26.3121V29.7134C91 30.7548 90.12 31.6055 89.044 31.6055H62.9026V26.3121H91Z" fill="#C9D5DC"/>
<path fill-rule="evenodd" clip-rule="evenodd" d="M258.725 26.3121V29.5814C258.725 30.5814 257.845 31.3988 256.769 31.3988H230.628V26.3121H258.725Z" fill="#4D6987"/>
<path fill-rule="evenodd" clip-rule="evenodd" d="M211.593 26.3121V29.5814C211.593 30.5814 210.712 31.3988 209.637 31.3988H183.495V26.3121H211.593Z" fill="#4D6987"/>
<path fill-rule="evenodd" clip-rule="evenodd" d="M142.104 26.3121V29.5814C142.104 30.5814 141.223 31.3988 140.148 31.3988H114.005V26.3121H142.104Z" fill="#4D6987"/>
<path fill-rule="evenodd" clip-rule="evenodd" d="M91.2186 26.3121V29.5814C91.2186 30.5814 90.3386 31.3988 89.2626 31.3988H63.1213V26.3121H91.2186Z" fill="#4D6987"/>
<path fill-rule="evenodd" clip-rule="evenodd" d="M259.107 26.3121V29.1508C259.107 30.1508 258.227 30.9695 257.151 30.9695H231.009V26.3121H259.107Z" fill="#C9D5DC"/>
<path fill-rule="evenodd" clip-rule="evenodd" d="M211.975 26.3121V29.1508C211.975 30.1508 211.093 30.9695 210.019 30.9695H183.876V26.3121H211.975Z" fill="#C9D5DC"/>
<path fill-rule="evenodd" clip-rule="evenodd" d="M142.485 26.3121V29.1508C142.485 30.1508 141.604 30.9695 140.529 30.9695H114.387V26.3121H142.485Z" fill="#C9D5DC"/>
<path fill-rule="evenodd" clip-rule="evenodd" d="M91.6 26.3121V29.1508C91.6 30.1508 90.72 30.9695 89.644 30.9695H63.5027V26.3121H91.6Z" fill="#C9D5DC"/>
<path fill-rule="evenodd" clip-rule="evenodd" d="M256.792 30.9695H231.009V26.3121H258.748V29.1508C258.748 30.1508 257.868 30.9695 256.792 30.9695Z" fill="#6987A1"/>
<path fill-rule="evenodd" clip-rule="evenodd" d="M209.66 30.9695H183.876V26.3121H211.616V29.1508C211.616 30.1508 210.735 30.9695 209.66 30.9695Z" fill="#6987A1"/>
<path fill-rule="evenodd" clip-rule="evenodd" d="M140.171 30.9695H114.387V26.3121H142.127V29.1508C142.127 30.1508 141.245 30.9695 140.171 30.9695Z" fill="#6987A1"/>
<path fill-rule="evenodd" clip-rule="evenodd" d="M89.2853 30.9695H63.5027V26.3121H91.2413V29.1508C91.2413 30.1508 90.3613 30.9695 89.2853 30.9695Z" fill="#6987A1"/>
<path fill-rule="evenodd" clip-rule="evenodd" d="M259.107 28.2974V29.1508C259.107 30.1508 258.227 30.9695 257.151 30.9695H231.009V28.2974H259.107Z" fill="#C9D5DC"/>
<path fill-rule="evenodd" clip-rule="evenodd" d="M211.975 28.2974V29.1508C211.975 30.1508 211.093 30.9695 210.019 30.9695H183.876V28.2974H211.975Z" fill="#C9D5DC"/>
<path fill-rule="evenodd" clip-rule="evenodd" d="M142.485 28.2974V29.1508C142.485 30.1508 141.604 30.9695 140.529 30.9695H114.387V28.2974H142.485Z" fill="#C9D5DC"/>
<path fill-rule="evenodd" clip-rule="evenodd" d="M91.6 28.2974V29.1508C91.6 30.1508 90.72 30.9695 89.644 30.9695H63.5027V28.2974H91.6Z" fill="#C9D5DC"/>
<path fill-rule="evenodd" clip-rule="evenodd" d="M256.792 30.9695H231.009V28.2974H258.748V29.1508C258.748 30.1508 257.868 30.9695 256.792 30.9695Z" fill="#8CABBA"/>
<path fill-rule="evenodd" clip-rule="evenodd" d="M256.792 30.9695H231.009V29.4721H258.717C258.553 30.3201 257.751 30.9695 256.792 30.9695Z" fill="#A0BFCE"/>
<path fill-rule="evenodd" clip-rule="evenodd" d="M209.66 30.9695H183.876V28.2974H211.616V29.1508C211.616 30.1508 210.735 30.9695 209.66 30.9695Z" fill="#8CABBA"/>
<path fill-rule="evenodd" clip-rule="evenodd" d="M209.66 30.9695H183.876V29.4721H211.584C211.42 30.3201 210.617 30.9695 209.66 30.9695Z" fill="#A0BFCE"/>
<path fill-rule="evenodd" clip-rule="evenodd" d="M140.171 30.9695H114.387V28.2974H142.127V29.1508C142.127 30.1508 141.245 30.9695 140.171 30.9695Z" fill="#8CABBA"/>
<path fill-rule="evenodd" clip-rule="evenodd" d="M140.171 30.9695H114.387V29.4721H142.095C141.931 30.3201 141.128 30.9695 140.171 30.9695Z" fill="#A0BFCE"/>
<path fill-rule="evenodd" clip-rule="evenodd" d="M89.2853 30.9695H63.5027V28.2974H91.2413V29.1508C91.2413 30.1508 90.3613 30.9695 89.2853 30.9695Z" fill="#8CABBA"/>
<path fill-rule="evenodd" clip-rule="evenodd" d="M89.2853 30.9695H63.5027V29.4721H91.2107C91.0467 30.3201 90.244 30.9695 89.2853 30.9695Z" fill="#A0BFCE"/>
<path fill-rule="evenodd" clip-rule="evenodd" d="M279.688 30.7174H278.508C278.429 30.7174 278.364 30.8641 278.364 31.0441V32.2801C278.364 32.4601 278.429 32.6068 278.508 32.6068H279.688C279.768 32.6068 279.832 32.4601 279.832 32.2801V31.0441C279.832 30.8641 279.768 30.7174 279.688 30.7174Z" fill="#C9D5DC"/>
<path fill-rule="evenodd" clip-rule="evenodd" d="M279.889 30.5548H278.708C278.629 30.5548 278.565 30.7015 278.565 30.8801V32.1161C278.565 32.2961 278.629 32.4428 278.708 32.4428H279.889C279.968 32.4428 280.032 32.2961 280.032 32.1161V30.8801C280.032 30.7015 279.968 30.5548 279.889 30.5548Z" fill="#39506E"/>
<path fill-rule="evenodd" clip-rule="evenodd" d="M267.732 30.7174H266.551C266.472 30.7174 266.408 30.8641 266.408 31.0441V32.2801C266.408 32.4601 266.472 32.6068 266.551 32.6068H267.732C267.812 32.6068 267.876 32.4601 267.876 32.2801V31.0441C267.876 30.8641 267.812 30.7174 267.732 30.7174Z" fill="#C9D5DC"/>
<path fill-rule="evenodd" clip-rule="evenodd" d="M267.933 30.5548H266.752C266.673 30.5548 266.609 30.7015 266.609 30.8801V32.1161C266.609 32.2961 266.673 32.4428 266.752 32.4428H267.933C268.012 32.4428 268.076 32.2961 268.076 32.1161V30.8801C268.076 30.7015 268.012 30.5548 267.933 30.5548Z" fill="#39506E"/>
<path fill-rule="evenodd" clip-rule="evenodd" d="M277.307 30.7174H276.125C276.047 30.7174 275.983 30.8641 275.983 31.0441V32.2801C275.983 32.4601 276.047 32.6068 276.125 32.6068H277.307C277.385 32.6068 277.449 32.4601 277.449 32.2801V31.0441C277.449 30.8641 277.385 30.7174 277.307 30.7174Z" fill="#C9D5DC"/>
<path fill-rule="evenodd" clip-rule="evenodd" d="M277.507 30.5548H276.327C276.247 30.5548 276.183 30.7015 276.183 30.8801V32.1161C276.183 32.2961 276.247 32.4428 276.327 32.4428H277.507C277.587 32.4428 277.651 32.2961 277.651 32.1161V30.8801C277.651 30.7015 277.587 30.5548 277.507 30.5548Z" fill="#39506E"/>
<path fill-rule="evenodd" clip-rule="evenodd" d="M265.351 30.7174H264.169C264.091 30.7174 264.027 30.8641 264.027 31.0441V32.2801C264.027 32.4601 264.091 32.6068 264.169 32.6068H265.351C265.429 32.6068 265.493 32.4601 265.493 32.2801V31.0441C265.493 30.8641 265.429 30.7174 265.351 30.7174Z" fill="#C9D5DC"/>
<path fill-rule="evenodd" clip-rule="evenodd" d="M265.551 30.5548H264.371C264.292 30.5548 264.227 30.7015 264.227 30.8801V32.1161C264.227 32.2961 264.292 32.4428 264.371 32.4428H265.551C265.631 32.4428 265.695 32.2961 265.695 32.1161V30.8801C265.695 30.7015 265.631 30.5548 265.551 30.5548Z" fill="#39506E"/>
<path fill-rule="evenodd" clip-rule="evenodd" d="M273.541 29.3508H272.36C272.281 29.3508 272.217 29.4974 272.217 29.6774V30.9135C272.217 31.0935 272.281 31.2401 272.36 31.2401H273.541C273.62 31.2401 273.684 31.0935 273.684 30.9135V29.6774C273.684 29.4974 273.62 29.3508 273.541 29.3508Z" fill="#C9D5DC"/>
<path fill-rule="evenodd" clip-rule="evenodd" d="M273.743 29.1881H272.561C272.483 29.1881 272.417 29.3334 272.417 29.5134V30.7495C272.417 30.9295 272.483 31.0761 272.561 31.0761H273.743C273.821 31.0761 273.885 30.9295 273.885 30.7495V29.5134C273.885 29.3334 273.821 29.1881 273.743 29.1881Z" fill="#39506E"/>
<path fill-rule="evenodd" clip-rule="evenodd" d="M271.159 29.3508H269.979C269.9 29.3508 269.835 29.4974 269.835 29.6774V30.9135C269.835 31.0935 269.9 31.2401 269.979 31.2401H271.159C271.239 31.2401 271.303 31.0935 271.303 30.9135V29.6774C271.303 29.4974 271.239 29.3508 271.159 29.3508Z" fill="#C9D5DC"/>
<path fill-rule="evenodd" clip-rule="evenodd" d="M271.36 29.1881H270.179C270.1 29.1881 270.036 29.3334 270.036 29.5134V30.7495C270.036 30.9295 270.1 31.0761 270.179 31.0761H271.36C271.439 31.0761 271.503 30.9295 271.503 30.7495V29.5134C271.503 29.3334 271.439 29.1881 271.36 29.1881Z" fill="#39506E"/>
<path fill-rule="evenodd" clip-rule="evenodd" d="M257.532 32.5721H256.352C256.272 32.5721 256.208 32.7188 256.208 32.8988V34.1348C256.208 34.3148 256.272 34.4615 256.352 34.4615H257.532C257.611 34.4615 257.676 34.3148 257.676 34.1348V32.8988C257.676 32.7188 257.611 32.5721 257.532 32.5721Z" fill="#C9D5DC"/>
<path fill-rule="evenodd" clip-rule="evenodd" d="M257.733 32.4081H256.552C256.473 32.4081 256.409 32.5548 256.409 32.7348V33.9708C256.409 34.1508 256.473 34.2975 256.552 34.2975H257.733C257.812 34.2975 257.876 34.1508 257.876 33.9708V32.7348C257.876 32.5548 257.812 32.4081 257.733 32.4081Z" fill="#39506E"/>
<path fill-rule="evenodd" clip-rule="evenodd" d="M136.307 32.5721H135.125C135.045 32.5721 134.981 32.7188 134.981 32.8988V34.1348C134.981 34.3148 135.045 34.4615 135.125 34.4615H136.307C136.385 34.4615 136.449 34.3148 136.449 34.1348V32.8988C136.449 32.7188 136.385 32.5721 136.307 32.5721Z" fill="#C9D5DC"/>
<path fill-rule="evenodd" clip-rule="evenodd" d="M136.507 32.4081H135.325C135.247 32.4081 135.183 32.5548 135.183 32.7348V33.9708C135.183 34.1508 135.247 34.2975 135.325 34.2975H136.507C136.585 34.2975 136.649 34.1508 136.649 33.9708V32.7348C136.649 32.5548 136.585 32.4081 136.507 32.4081Z" fill="#39506E"/>
<path fill-rule="evenodd" clip-rule="evenodd" d="M254.924 32.5721H253.743C253.664 32.5721 253.6 32.7188 253.6 32.8988V34.1348C253.6 34.3148 253.664 34.4615 253.743 34.4615H254.924C255.003 34.4615 255.067 34.3148 255.067 34.1348V32.8988C255.067 32.7188 255.003 32.5721 254.924 32.5721Z" fill="#C9D5DC"/>
<path fill-rule="evenodd" clip-rule="evenodd" d="M255.125 32.4081H253.944C253.865 32.4081 253.8 32.5548 253.8 32.7348V33.9708C253.8 34.1508 253.865 34.2975 253.944 34.2975H255.125C255.204 34.2975 255.268 34.1508 255.268 33.9708V32.7348C255.268 32.5548 255.204 32.4081 255.125 32.4081Z" fill="#39506E"/>
<path fill-rule="evenodd" clip-rule="evenodd" d="M133.697 32.5721H132.517C132.437 32.5721 132.373 32.7188 132.373 32.8988V34.1348C132.373 34.3148 132.437 34.4615 132.517 34.4615H133.697C133.776 34.4615 133.841 34.3148 133.841 34.1348V32.8988C133.841 32.7188 133.776 32.5721 133.697 32.5721Z" fill="#C9D5DC"/>
<path fill-rule="evenodd" clip-rule="evenodd" d="M133.899 32.4081H132.717C132.639 32.4081 132.575 32.5548 132.575 32.7348V33.9708C132.575 34.1508 132.639 34.2975 132.717 34.2975H133.899C133.977 34.2975 134.041 34.1508 134.041 33.9708V32.7348C134.041 32.5548 133.977 32.4081 133.899 32.4081Z" fill="#39506E"/>
<path fill-rule="evenodd" clip-rule="evenodd" d="M252.316 32.5721H251.135C251.056 32.5721 250.992 32.7188 250.992 32.8988V34.1348C250.992 34.3148 251.056 34.4615 251.135 34.4615H252.316C252.395 34.4615 252.459 34.3148 252.459 34.1348V32.8988C252.459 32.7188 252.395 32.5721 252.316 32.5721Z" fill="#C9D5DC"/>
<path fill-rule="evenodd" clip-rule="evenodd" d="M252.517 32.4081H251.336C251.256 32.4081 251.192 32.5548 251.192 32.7348V33.9708C251.192 34.1508 251.256 34.2975 251.336 34.2975H252.517C252.596 34.2975 252.66 34.1508 252.66 33.9708V32.7348C252.66 32.5548 252.596 32.4081 252.517 32.4081Z" fill="#39506E"/>
<path fill-rule="evenodd" clip-rule="evenodd" d="M131.089 32.5721H129.908C129.829 32.5721 129.765 32.7188 129.765 32.8988V34.1348C129.765 34.3148 129.829 34.4615 129.908 34.4615H131.089C131.168 34.4615 131.232 34.3148 131.232 34.1348V32.8988C131.232 32.7188 131.168 32.5721 131.089 32.5721Z" fill="#C9D5DC"/>
<path fill-rule="evenodd" clip-rule="evenodd" d="M131.291 32.4081H130.109C130.031 32.4081 129.965 32.5548 129.965 32.7348V33.9708C129.965 34.1508 130.031 34.2975 130.109 34.2975H131.291C131.369 34.2975 131.433 34.1508 131.433 33.9708V32.7348C131.433 32.5548 131.369 32.4081 131.291 32.4081Z" fill="#39506E"/>
<path fill-rule="evenodd" clip-rule="evenodd" d="M249.708 32.5721H248.527C248.448 32.5721 248.384 32.7188 248.384 32.8988V34.1348C248.384 34.3148 248.448 34.4615 248.527 34.4615H249.708C249.787 34.4615 249.851 34.3148 249.851 34.1348V32.8988C249.851 32.7188 249.787 32.5721 249.708 32.5721Z" fill="#C9D5DC"/>
<path fill-rule="evenodd" clip-rule="evenodd" d="M249.908 32.4081H248.728C248.648 32.4081 248.584 32.5548 248.584 32.7348V33.9708C248.584 34.1508 248.648 34.2975 248.728 34.2975H249.908C249.987 34.2975 250.052 34.1508 250.052 33.9708V32.7348C250.052 32.5548 249.987 32.4081 249.908 32.4081Z" fill="#39506E"/>
<path fill-rule="evenodd" clip-rule="evenodd" d="M128.481 32.5721H127.3C127.221 32.5721 127.157 32.7188 127.157 32.8988V34.1348C127.157 34.3148 127.221 34.4615 127.3 34.4615H128.481C128.56 34.4615 128.624 34.3148 128.624 34.1348V32.8988C128.624 32.7188 128.56 32.5721 128.481 32.5721Z" fill="#C9D5DC"/>
<path fill-rule="evenodd" clip-rule="evenodd" d="M128.681 32.4081H127.501C127.421 32.4081 127.357 32.5548 127.357 32.7348V33.9708C127.357 34.1508 127.421 34.2975 127.501 34.2975H128.681C128.761 34.2975 128.825 34.1508 128.825 33.9708V32.7348C128.825 32.5548 128.761 32.4081 128.681 32.4081Z" fill="#39506E"/>
<path fill-rule="evenodd" clip-rule="evenodd" d="M247.099 32.5721H245.919C245.84 32.5721 245.775 32.7188 245.775 32.8988V34.1348C245.775 34.3148 245.84 34.4615 245.919 34.4615H247.099C247.179 34.4615 247.243 34.3148 247.243 34.1348V32.8988C247.243 32.7188 247.179 32.5721 247.099 32.5721Z" fill="#C9D5DC"/>
<path fill-rule="evenodd" clip-rule="evenodd" d="M247.3 32.4081H246.119C246.04 32.4081 245.976 32.5548 245.976 32.7348V33.9708C245.976 34.1508 246.04 34.2975 246.119 34.2975H247.3C247.379 34.2975 247.444 34.1508 247.444 33.9708V32.7348C247.444 32.5548 247.379 32.4081 247.3 32.4081Z" fill="#39506E"/>
<path fill-rule="evenodd" clip-rule="evenodd" d="M125.872 32.5721H124.692C124.613 32.5721 124.549 32.7188 124.549 32.8988V34.1348C124.549 34.3148 124.613 34.4615 124.692 34.4615H125.872C125.952 34.4615 126.016 34.3148 126.016 34.1348V32.8988C126.016 32.7188 125.952 32.5721 125.872 32.5721Z" fill="#C9D5DC"/>
<path fill-rule="evenodd" clip-rule="evenodd" d="M126.073 32.4081H124.892C124.813 32.4081 124.749 32.5548 124.749 32.7348V33.9708C124.749 34.1508 124.813 34.2975 124.892 34.2975H126.073C126.152 34.2975 126.217 34.1508 126.217 33.9708V32.7348C126.217 32.5548 126.152 32.4081 126.073 32.4081Z" fill="#39506E"/>
<path fill-rule="evenodd" clip-rule="evenodd" d="M50.128 32.5721H48.9466C48.868 32.5721 48.804 32.7188 48.804 32.8988V34.1348C48.804 34.3148 48.868 34.4615 48.9466 34.4615H50.128C50.2066 34.4615 50.2707 34.3148 50.2707 34.1348V32.8988C50.2707 32.7188 50.2066 32.5721 50.128 32.5721Z" fill="#C9D5DC"/>
<path fill-rule="evenodd" clip-rule="evenodd" d="M50.328 32.4081H49.148C49.0693 32.4081 49.0053 32.5548 49.0053 32.7348V33.9708C49.0053 34.1508 49.0693 34.2975 49.148 34.2975H50.328C50.408 34.2975 50.472 34.1508 50.472 33.9708V32.7348C50.472 32.5548 50.408 32.4081 50.328 32.4081Z" fill="#39506E"/>
<path fill-rule="evenodd" clip-rule="evenodd" d="M244.491 32.5721H243.309C243.231 32.5721 243.167 32.7188 243.167 32.8988V34.1348C243.167 34.3148 243.231 34.4615 243.309 34.4615H244.491C244.569 34.4615 244.635 34.3148 244.635 34.1348V32.8988C244.635 32.7188 244.569 32.5721 244.491 32.5721Z" fill="#C9D5DC"/>
<path fill-rule="evenodd" clip-rule="evenodd" d="M244.692 32.4081H243.511C243.432 32.4081 243.368 32.5548 243.368 32.7348V33.9708C243.368 34.1508 243.432 34.2975 243.511 34.2975H244.692C244.771 34.2975 244.835 34.1508 244.835 33.9708V32.7348C244.835 32.5548 244.771 32.4081 244.692 32.4081Z" fill="#39506E"/>
<path fill-rule="evenodd" clip-rule="evenodd" d="M123.264 32.5721H122.084C122.005 32.5721 121.94 32.7188 121.94 32.8988V34.1348C121.94 34.3148 122.005 34.4615 122.084 34.4615H123.264C123.344 34.4615 123.408 34.3148 123.408 34.1348V32.8988C123.408 32.7188 123.344 32.5721 123.264 32.5721Z" fill="#C9D5DC"/>
<path fill-rule="evenodd" clip-rule="evenodd" d="M123.465 32.4081H122.284C122.205 32.4081 122.141 32.5548 122.141 32.7348V33.9708C122.141 34.1508 122.205 34.2975 122.284 34.2975H123.465C123.544 34.2975 123.609 34.1508 123.609 33.9708V32.7348C123.609 32.5548 123.544 32.4081 123.465 32.4081Z" fill="#39506E"/>
<path fill-rule="evenodd" clip-rule="evenodd" d="M47.52 32.5721H46.3387C46.26 32.5721 46.196 32.7188 46.196 32.8988V34.1348C46.196 34.3148 46.26 34.4615 46.3387 34.4615H47.52C47.5987 34.4615 47.6627 34.3148 47.6627 34.1348V32.8988C47.6627 32.7188 47.5987 32.5721 47.52 32.5721Z" fill="#C9D5DC"/>
<path fill-rule="evenodd" clip-rule="evenodd" d="M47.72 32.4081H46.5387C46.4613 32.4081 46.396 32.5548 46.396 32.7348V33.9708C46.396 34.1508 46.4613 34.2975 46.5387 34.2975H47.72C47.8 34.2975 47.864 34.1508 47.864 33.9708V32.7348C47.864 32.5548 47.8 32.4081 47.72 32.4081Z" fill="#39506E"/>
<path fill-rule="evenodd" clip-rule="evenodd" d="M241.883 32.5721H240.701C240.623 32.5721 240.559 32.7188 240.559 32.8988V34.1348C240.559 34.3148 240.623 34.4615 240.701 34.4615H241.883C241.961 34.4615 242.025 34.3148 242.025 34.1348V32.8988C242.025 32.7188 241.961 32.5721 241.883 32.5721Z" fill="#C9D5DC"/>
<path fill-rule="evenodd" clip-rule="evenodd" d="M242.084 32.4081H240.903C240.824 32.4081 240.76 32.5548 240.76 32.7348V33.9708C240.76 34.1508 240.824 34.2975 240.903 34.2975H242.084C242.163 34.2975 242.227 34.1508 242.227 33.9708V32.7348C242.227 32.5548 242.163 32.4081 242.084 32.4081Z" fill="#39506E"/>
<path fill-rule="evenodd" clip-rule="evenodd" d="M120.656 32.5721H119.475C119.396 32.5721 119.332 32.7188 119.332 32.8988V34.1348C119.332 34.3148 119.396 34.4615 119.475 34.4615H120.656C120.735 34.4615 120.8 34.3148 120.8 34.1348V32.8988C120.8 32.7188 120.735 32.5721 120.656 32.5721Z" fill="#C9D5DC"/>
<path fill-rule="evenodd" clip-rule="evenodd" d="M120.857 32.4081H119.676C119.597 32.4081 119.533 32.5548 119.533 32.7348V33.9708C119.533 34.1508 119.597 34.2975 119.676 34.2975H120.857C120.936 34.2975 121 34.1508 121 33.9708V32.7348C121 32.5548 120.936 32.4081 120.857 32.4081Z" fill="#39506E"/>
<path fill-rule="evenodd" clip-rule="evenodd" d="M44.912 32.5721H43.7307C43.652 32.5721 43.5867 32.7188 43.5867 32.8988V34.1348C43.5867 34.3148 43.652 34.4615 43.7307 34.4615H44.912C44.9907 34.4615 45.0547 34.3148 45.0547 34.1348V32.8988C45.0547 32.7188 44.9907 32.5721 44.912 32.5721Z" fill="#C9D5DC"/>
<path fill-rule="evenodd" clip-rule="evenodd" d="M45.112 32.4081H43.9307C43.852 32.4081 43.788 32.5548 43.788 32.7348V33.9708C43.788 34.1508 43.852 34.2975 43.9307 34.2975H45.112C45.1907 34.2975 45.256 34.1508 45.256 33.9708V32.7348C45.256 32.5548 45.1907 32.4081 45.112 32.4081Z" fill="#39506E"/>
<path fill-rule="evenodd" clip-rule="evenodd" d="M237.297 32.5721H236.116C236.037 32.5721 235.973 32.7188 235.973 32.8988V34.1348C235.973 34.3148 236.037 34.4615 236.116 34.4615H237.297C237.376 34.4615 237.441 34.3148 237.441 34.1348V32.8988C237.441 32.7188 237.376 32.5721 237.297 32.5721Z" fill="#C9D5DC"/>
<path fill-rule="evenodd" clip-rule="evenodd" d="M237.499 32.4081H236.317C236.239 32.4081 236.175 32.5548 236.175 32.7348V33.9708C236.175 34.1508 236.239 34.2975 236.317 34.2975H237.499C237.577 34.2975 237.641 34.1508 237.641 33.9708V32.7348C237.641 32.5548 237.577 32.4081 237.499 32.4081Z" fill="#39506E"/>
<path fill-rule="evenodd" clip-rule="evenodd" d="M232.712 32.5721H231.531C231.452 32.5721 231.388 32.7188 231.388 32.8988V34.1348C231.388 34.3148 231.452 34.4615 231.531 34.4615H232.712C232.792 34.4615 232.856 34.3148 232.856 34.1348V32.8988C232.856 32.7188 232.792 32.5721 232.712 32.5721Z" fill="#C9D5DC"/>
<path fill-rule="evenodd" clip-rule="evenodd" d="M232.913 32.4081H231.732C231.653 32.4081 231.589 32.5548 231.589 32.7348V33.9708C231.589 34.1508 231.653 34.2975 231.732 34.2975H232.913C232.992 34.2975 233.057 34.1508 233.057 33.9708V32.7348C233.057 32.5548 232.992 32.4081 232.913 32.4081Z" fill="#39506E"/>
<path fill-rule="evenodd" clip-rule="evenodd" d="M228.128 32.5721H226.947C226.868 32.5721 226.803 32.7188 226.803 32.8988V34.1348C226.803 34.3148 226.868 34.4615 226.947 34.4615H228.128C228.207 34.4615 228.271 34.3148 228.271 34.1348V32.8988C228.271 32.7188 228.207 32.5721 228.128 32.5721Z" fill="#C9D5DC"/>
<path fill-rule="evenodd" clip-rule="evenodd" d="M228.328 32.4081H227.147C227.068 32.4081 227.004 32.5548 227.004 32.7348V33.9708C227.004 34.1508 227.068 34.2975 227.147 34.2975H228.328C228.407 34.2975 228.472 34.1508 228.472 33.9708V32.7348C228.472 32.5548 228.407 32.4081 228.328 32.4081Z" fill="#39506E"/>
<path fill-rule="evenodd" clip-rule="evenodd" d="M227.597 26.3121V31.1681C227.597 31.4361 227.38 31.6534 227.112 31.6534H220.308C217.899 31.6534 215.933 29.6881 215.933 27.2788V26.3121H227.597Z" fill="#C9D5DC"/>
<path fill-rule="evenodd" clip-rule="evenodd" d="M179.824 26.3121V31.1681C179.824 31.4361 179.605 31.6534 179.337 31.6534H172.535C170.125 31.6534 168.16 29.6881 168.16 27.2788V26.3121H179.824Z" fill="#C9D5DC"/>
<path fill-rule="evenodd" clip-rule="evenodd" d="M110.335 26.3121V31.1681C110.335 31.4361 110.116 31.6534 109.848 31.6534H103.045C100.636 31.6534 98.6707 29.6881 98.6707 27.2788V26.3121H110.335Z" fill="#C9D5DC"/>
<path fill-rule="evenodd" clip-rule="evenodd" d="M59.4507 26.3121V31.1681C59.4507 31.4361 59.232 31.6534 58.964 31.6534H52.16C49.7507 31.6534 47.7853 29.6881 47.7853 27.2788V26.3121H59.4507Z" fill="#C9D5DC"/>
<path fill-rule="evenodd" clip-rule="evenodd" d="M227.06 31.3601H222.127C219.464 31.3601 217.292 29.5041 217.292 27.2255V26.3121H227.597V30.9015C227.597 31.1548 227.356 31.3615 227.06 31.3601Z" fill="#4D6987"/>
<path fill-rule="evenodd" clip-rule="evenodd" d="M179.287 31.3601H174.353C171.691 31.3601 169.519 29.5041 169.519 27.2255V26.3121H179.824V30.9015C179.824 31.1548 179.583 31.3615 179.287 31.3601Z" fill="#4D6987"/>
<path fill-rule="evenodd" clip-rule="evenodd" d="M109.797 31.3601H104.864C102.201 31.3601 100.029 29.5041 100.029 27.2255V26.3121H110.335V30.9015C110.335 31.1548 110.093 31.3615 109.797 31.3601Z" fill="#4D6987"/>
<path fill-rule="evenodd" clip-rule="evenodd" d="M58.9133 31.3601H53.9787C51.316 31.3601 49.1453 29.5041 49.1453 27.2255V26.3121H59.4506V30.9015C59.4506 31.1548 59.2093 31.3615 58.9133 31.3601Z" fill="#4D6987"/>
<path fill-rule="evenodd" clip-rule="evenodd" d="M227.597 26.3121V31.1681C227.597 31.4361 227.356 31.6534 227.06 31.6534H225.421C225.717 31.6534 225.959 31.4361 225.959 31.1681V27.9188L227.597 26.3121Z" fill="#39506E"/>
<path fill-rule="evenodd" clip-rule="evenodd" d="M179.824 26.3121V31.1681C179.824 31.4361 179.583 31.6534 179.287 31.6534H177.648C177.943 31.6534 178.185 31.4361 178.185 31.1681V27.9188L179.824 26.3121Z" fill="#39506E"/>
<path fill-rule="evenodd" clip-rule="evenodd" d="M110.335 26.3121V31.1681C110.335 31.4361 110.093 31.6534 109.797 31.6534H108.159C108.453 31.6534 108.696 31.4361 108.696 31.1681V27.9188L110.335 26.3121Z" fill="#39506E"/>
<path fill-rule="evenodd" clip-rule="evenodd" d="M59.4506 26.3121V31.1681C59.4506 31.4361 59.2093 31.6534 58.9133 31.6534H57.2733C57.5693 31.6534 57.8107 31.4361 57.8107 31.1681V27.9188L59.4506 26.3121Z" fill="#39506E"/>
<path fill-rule="evenodd" clip-rule="evenodd" d="M41.9093 26.6841H41.508V35.2348H41.9093V26.6841Z" fill="#39506E"/>
<path fill-rule="evenodd" clip-rule="evenodd" d="M41.508 26.6841H41.1067V35.2348H41.508V26.6841Z" fill="#C9D5DC"/>
<path fill-rule="evenodd" clip-rule="evenodd" d="M18.9 35.2348H297.264V40.1975C297.264 47.2001 282.437 45.9148 276.729 45.9148H38.0053C31.172 45.9148 19.0027 46.3868 18.9453 40.1855L18.9 35.2348Z" fill="#1D62EB"/>
<path fill-rule="evenodd" clip-rule="evenodd" d="M23.4013 43.9668H37.952C38.6093 43.9668 39.1467 44.5028 39.1467 45.1601C39.1467 45.8161 38.6093 46.3535 37.952 46.3535H23.4013C22.7453 46.3535 22.208 45.8161 22.208 45.1601C22.208 44.5028 22.7453 43.9668 23.4013 43.9668Z" fill="#2056C1"/>
<path fill-rule="evenodd" clip-rule="evenodd" d="M8.55865 43.9668H15.4653C16.1227 43.9668 16.6587 44.5028 16.6587 45.1601C16.6587 45.8161 16.1227 46.3535 15.4653 46.3535H8.55865V43.9668Z" fill="#2056C1"/>
<path fill-rule="evenodd" clip-rule="evenodd" d="M18.9 40.1534H23.5973V50.1668H8.96132L10.316 45.9148L16.384 45.8561L18.9 40.1534Z" fill="#244B9A"/>
<path fill-rule="evenodd" clip-rule="evenodd" d="M23.4013 43.9668H37.952C38.6093 43.9668 39.1467 44.5028 39.1467 45.1601C39.1467 45.8161 38.6093 46.3535 37.952 46.3535H23.4013C22.7453 46.3535 22.208 45.8161 22.208 45.1601C22.208 44.5028 22.7453 43.9668 23.4013 43.9668Z" fill="#244B9A"/>
<path fill-rule="evenodd" clip-rule="evenodd" d="M8.55865 43.9668H15.4653C16.1227 43.9668 16.6587 44.5028 16.6587 45.1601C16.6587 45.8161 16.1227 46.3535 15.4653 46.3535H8.55865V43.9668Z" fill="#244B9A"/>
<path fill-rule="evenodd" clip-rule="evenodd" d="M23.4013 43.9668H37.952C38.48 43.9668 38.9293 44.3121 39.0867 44.7895C39.0307 45.6708 38.4013 45.9148 38.0053 45.9148H23.4547C22.9267 45.9148 22.5947 44.9348 22.4373 44.4588C22.656 44.1601 23.0067 43.9668 23.4013 43.9668Z" fill="#2056C1"/>
<path fill-rule="evenodd" clip-rule="evenodd" d="M8.90266 43.9668H15.4653C15.9933 43.9668 16.4427 44.3121 16.6 44.7895C16.544 45.6708 15.9133 45.9148 15.5187 45.9148H8.90266V43.9668Z" fill="#2056C1"/>
<path fill-rule="evenodd" clip-rule="evenodd" d="M23.936 44.3601H37.3453C37.84 44.3601 38.2613 44.4974 38.408 44.6934C38.204 44.8108 37.8747 44.8894 37.504 44.8894H23.936V44.8068V44.4468V44.3601Z" fill="#F8A292"/>
<path fill-rule="evenodd" clip-rule="evenodd" d="M9.14667 44.3601H14.8333C15.34 44.3601 15.7707 44.4974 15.9213 44.6934C15.712 44.8108 15.3747 44.8894 14.996 44.8894H9.14667V44.3601Z" fill="#F8A292"/>
<path fill-rule="evenodd" clip-rule="evenodd" d="M18.828 45.6708H38.8426L35.0173 54.3735H15.0027L18.828 45.6708Z" fill="#244B9A"/>
<path fill-rule="evenodd" clip-rule="evenodd" d="M184.807 37.4215H183.625C183.547 37.4215 183.483 37.5681 183.483 37.7481V38.9841C183.483 39.1641 183.547 39.3108 183.625 39.3108H184.807C184.885 39.3108 184.949 39.1641 184.949 38.9841V37.7481C184.949 37.5681 184.885 37.4215 184.807 37.4215Z" fill="#F8A292"/>
<path fill-rule="evenodd" clip-rule="evenodd" d="M185.007 37.2588H183.827C183.747 37.2588 183.683 37.4055 183.683 37.5841V38.8215C183.683 39.0015 183.747 39.1481 183.827 39.1481H185.007C185.085 39.1481 185.151 39.0015 185.151 38.8215V37.5841C185.151 37.4055 185.085 37.2588 185.007 37.2588Z" fill="#244B9A"/>
<path fill-rule="evenodd" clip-rule="evenodd" d="M245.908 37.4215H244.728C244.648 37.4215 244.584 37.5681 244.584 37.7481V38.9841C244.584 39.1641 244.648 39.3108 244.728 39.3108H245.908C245.987 39.3108 246.052 39.1641 246.052 38.9841V37.7481C246.052 37.5681 245.987 37.4215 245.908 37.4215Z" fill="#F8A292"/>
<path fill-rule="evenodd" clip-rule="evenodd" d="M246.109 37.2588H244.928C244.849 37.2588 244.785 37.4055 244.785 37.5841V38.8215C244.785 39.0015 244.849 39.1481 244.928 39.1481H246.109C246.188 39.1481 246.252 39.0015 246.252 38.8215V37.5841C246.252 37.4055 246.188 37.2588 246.109 37.2588Z" fill="#244B9A"/>
<path fill-rule="evenodd" clip-rule="evenodd" d="M256.073 37.4215H254.892C254.813 37.4215 254.749 37.5681 254.749 37.7481V38.9841C254.749 39.1641 254.813 39.3108 254.892 39.3108H256.073C256.152 39.3108 256.216 39.1641 256.216 38.9841V37.7481C256.216 37.5681 256.152 37.4215 256.073 37.4215Z" fill="#F8A292"/>
<path fill-rule="evenodd" clip-rule="evenodd" d="M256.273 37.2588H255.093C255.013 37.2588 254.949 37.4055 254.949 37.5841V38.8215C254.949 39.0015 255.013 39.1481 255.093 39.1481H256.273C256.353 39.1481 256.417 39.0015 256.417 38.8215V37.5841C256.417 37.4055 256.353 37.2588 256.273 37.2588Z" fill="#244B9A"/>
<path fill-rule="evenodd" clip-rule="evenodd" d="M186.208 24.4415H229.82V24.6641H186.208V24.4415Z" fill="#A0BFCE"/>
<path fill-rule="evenodd" clip-rule="evenodd" d="M186.208 24.6628H229.82V24.8854H186.208V24.6628Z" fill="#4D6987"/>
<path fill-rule="evenodd" clip-rule="evenodd" d="M205.649 22.9628H207.4V26.3121H205.649V22.9628Z" fill="#4D6987"/>
<path fill-rule="evenodd" clip-rule="evenodd" d="M205.879 23.2601H207.172V26.3121H205.879V23.2601Z" fill="#6987A1"/>
<path fill-rule="evenodd" clip-rule="evenodd" d="M19.3333 44.4468H23.5973V48.0348H19.3333V44.4468Z" fill="#2056C1"/>
<path fill-rule="evenodd" clip-rule="evenodd" d="M19.3333 40.5388H23.5973V41.8681H19.3333V40.5388Z" fill="#2056C1"/>
<path fill-rule="evenodd" clip-rule="evenodd" d="M19.3333 41.8681H23.5973V44.8068H19.3333V41.8681Z" fill="#1D62EB"/>
<path fill-rule="evenodd" clip-rule="evenodd" d="M23.204 40.5388H23.5973V49.4868H23.204V40.5388Z" fill="#F8A292"/>
<path fill-rule="evenodd" clip-rule="evenodd" d="M19.3333 41.8681H23.5973V42.9908H19.3333V41.8681Z" fill="#F8A292"/>
<path fill-rule="evenodd" clip-rule="evenodd" d="M300.035 28.9748H302.197C304.015 29.5961 305.795 30.5868 305.795 31.7001V32.6601H300.035V28.9748Z" fill="#C9D5DC"/>
<path fill-rule="evenodd" clip-rule="evenodd" d="M7.108 40.6894H8.86399V41.1668H7.108V40.6894Z" fill="#244B9A"/>
<path fill-rule="evenodd" clip-rule="evenodd" d="M7.108 49.2655H8.86399V49.7415H7.108V49.2655Z" fill="#244B9A"/>
<path fill-rule="evenodd" clip-rule="evenodd" d="M7.108 41.6428H8.86399V42.1188H7.108V41.6428Z" fill="#244B9A"/>
<path fill-rule="evenodd" clip-rule="evenodd" d="M7.108 50.2188H8.86399V50.6948H7.108V50.2188Z" fill="#244B9A"/>
<path fill-rule="evenodd" clip-rule="evenodd" d="M4.39066 38.1961H4.88932V52.8535H4.39066V38.1961Z" fill="#244B9A"/>
<path fill-rule="evenodd" clip-rule="evenodd" d="M0.20932 38.6948H6.99067C7.57333 38.6948 8.04933 39.1708 8.04933 39.7534V51.2961C8.04933 51.8788 7.57333 52.3548 6.99067 52.3548H0.503998C0.314664 51.9308 0.20932 51.4628 0.20932 50.9708V38.6948Z" fill="#2056C1"/>
<path fill-rule="evenodd" clip-rule="evenodd" d="M7.172 52.3374C7.11333 52.3481 7.052 52.3548 6.99067 52.3548H0.503998C0.314664 51.9308 0.20932 51.4628 0.20932 50.9708V39.2694H6.22267C6.80533 39.2694 7.28132 39.7468 7.28132 40.3281V51.8708C7.28132 52.0388 7.24267 52.1974 7.172 52.3374Z" fill="#244B9A"/>
</svg>
