<svg width="376" height="120" viewBox="0 0 376 120" fill="none" xmlns="http://www.w3.org/2000/svg">
<path fill-rule="evenodd" clip-rule="evenodd" d="M18.9613 70.0615C20.5653 70.0975 21.448 74.9935 19.5213 74.9935C18.3813 74.9935 16.752 74.9415 16.752 73.5535C16.752 72.1655 17.3573 70.0255 18.9613 70.0615Z" fill="#7894AE"/>
<path fill-rule="evenodd" clip-rule="evenodd" d="M15.5053 72.0948L24.0413 71.9601L23.8613 74.7348L16.0093 73.6841L15.5053 72.0948Z" fill="#A3B9C6"/>
<path fill-rule="evenodd" clip-rule="evenodd" d="M23.0746 74.6295L16.0093 73.6841L15.808 72.5095L23.1986 72.7095L23.0746 74.6295Z" fill="#7894AE"/>
<path fill-rule="evenodd" clip-rule="evenodd" d="M26.6067 66.2095H27.1093V70.3961H26.6067V66.2095Z" fill="#7894AE"/>
<path fill-rule="evenodd" clip-rule="evenodd" d="M27.1093 70.3961C30.7146 70.3961 33.6373 71.7975 33.6373 73.5241C33.6373 75.2508 30.7146 76.6508 27.1093 76.6508C23.5053 76.6508 20.5826 75.2508 20.5826 73.5241C20.5826 71.7975 23.5053 70.3961 27.1093 70.3961Z" fill="#7894AE"/>
<path fill-rule="evenodd" clip-rule="evenodd" d="M27.1093 70.3961C30.7147 70.3961 33.6373 71.7975 33.6373 73.5241C33.6373 74.0401 33.3747 74.5268 32.912 74.9561C31.908 75.2575 30.7227 75.4321 29.4493 75.4321C25.8453 75.4321 22.9227 74.0321 22.9227 72.3055C22.9227 71.7895 23.1853 71.3015 23.6493 70.8708C24.652 70.5695 25.8387 70.3961 27.1093 70.3961Z" fill="#A3B9C6"/>
<path fill-rule="evenodd" clip-rule="evenodd" d="M30.9507 70.9948C32.5773 71.5628 33.6373 72.4841 33.6373 73.5241C33.6373 73.8961 33.5 74.2521 33.252 74.5828C30.74 75.0548 28.372 75.0548 26.144 74.5828C25.228 74.3895 24.4427 73.8175 24.4427 72.8815V72.6961C24.4427 71.7601 25.208 70.9948 26.144 70.9948H30.9507Z" fill="#4C6186"/>
<path fill-rule="evenodd" clip-rule="evenodd" d="M16.064 70.0615C17.6693 70.0975 18.552 74.9935 16.624 74.9935C15.484 74.9935 13.856 74.9415 13.856 73.5535C13.856 72.1655 14.46 70.0255 16.064 70.0615Z" fill="#A3B9C6"/>
<path d="M40.8413 66.7601C40.8387 66.7601 40.8347 66.7601 40.832 66.7588C30.1293 66.0108 21.8453 65.7695 13.976 65.9828C13.9746 65.9828 13.9733 65.9828 13.972 65.9828C13.8933 65.9828 13.8306 65.9201 13.828 65.8428C13.8266 65.7628 13.8893 65.6961 13.968 65.6948C21.852 65.4801 30.1413 65.7215 40.852 66.4721C40.9307 66.4775 40.9907 66.5468 40.9853 66.6268C40.98 66.7015 40.9173 66.7601 40.8413 66.7601ZM8.50399 69.4015C8.42665 69.4015 8.36264 69.3401 8.35998 69.2628C8.35731 69.1841 8.41865 69.1161 8.49865 69.1135C19.22 68.6668 27.516 68.6628 35.3933 69.1015C35.472 69.1055 35.5333 69.1735 35.5293 69.2521C35.5253 69.3295 35.4613 69.3895 35.3853 69.3895C35.3827 69.3895 35.38 69.3895 35.3773 69.3881C27.5093 68.9521 19.2226 68.9561 8.50931 69.4001C8.50798 69.4015 8.50532 69.4015 8.50399 69.4015Z" fill="#7894AE"/>
<path fill-rule="evenodd" clip-rule="evenodd" d="M51.2987 70.0615C52.904 70.0975 53.7867 74.9935 51.8587 74.9935C50.7187 74.9935 49.0907 74.9415 49.0907 73.5535C49.0907 72.1655 49.6947 70.0255 51.2987 70.0615Z" fill="#7894AE"/>
<path fill-rule="evenodd" clip-rule="evenodd" d="M47.8427 72.0948L56.38 71.9601L56.1987 74.7348L48.3467 73.6841L47.8427 72.0948Z" fill="#A3B9C6"/>
<path fill-rule="evenodd" clip-rule="evenodd" d="M55.412 74.6295L48.3467 73.6841L48.1453 72.5095L55.5373 72.7095L55.412 74.6295Z" fill="#7894AE"/>
<path fill-rule="evenodd" clip-rule="evenodd" d="M58.9453 66.2095H59.448V70.3961H58.9453V66.2095Z" fill="#7894AE"/>
<path fill-rule="evenodd" clip-rule="evenodd" d="M59.448 70.3961C63.052 70.3961 65.9747 71.7975 65.9747 73.5241C65.9747 75.2508 63.052 76.6508 59.448 76.6508C55.844 76.6508 52.9213 75.2508 52.9213 73.5241C52.9213 71.7975 55.844 70.3961 59.448 70.3961Z" fill="#7894AE"/>
<path fill-rule="evenodd" clip-rule="evenodd" d="M59.448 70.3961C63.052 70.3961 65.9747 71.7975 65.9747 73.5241C65.9747 74.0401 65.712 74.5268 65.2493 74.9561C64.2453 75.2575 63.06 75.4321 61.788 75.4321C58.184 75.4321 55.2613 74.0321 55.2613 72.3055C55.2613 71.7895 55.524 71.3015 55.9867 70.8708C56.9907 70.5695 58.176 70.3961 59.448 70.3961Z" fill="#A3B9C6"/>
<path fill-rule="evenodd" clip-rule="evenodd" d="M63.288 70.9948C64.916 71.5628 65.9746 72.4841 65.9746 73.5241C65.9746 73.8961 65.8386 74.2521 65.5893 74.5828C63.0786 75.0548 60.7093 75.0548 58.4813 74.5828C57.5666 74.3895 56.78 73.8175 56.78 72.8815V72.6961C56.78 71.7601 57.5453 70.9948 58.4813 70.9948H63.288Z" fill="#4C6186"/>
<path fill-rule="evenodd" clip-rule="evenodd" d="M48.4013 70.0615C50.0066 70.0975 50.8893 74.9935 48.9613 74.9935C47.8226 74.9935 46.1933 74.9415 46.1933 73.5535C46.1933 72.1655 46.7973 70.0255 48.4013 70.0615Z" fill="#A3B9C6"/>
<path d="M73.18 66.7601C73.176 66.7601 73.1733 66.7601 73.1693 66.7588C62.468 66.0108 54.1853 65.7695 46.3133 65.9828C46.2307 65.9881 46.168 65.9215 46.1667 65.8428C46.164 65.7628 46.2267 65.6961 46.3053 65.6948C54.1893 65.4801 62.4787 65.7215 73.1893 66.4721C73.2693 66.4775 73.3293 66.5468 73.324 66.6268C73.3173 66.7015 73.2547 66.7601 73.18 66.7601ZM40.8413 69.4015C40.7653 69.4015 40.7013 69.3401 40.6973 69.2628C40.6947 69.1841 40.756 69.1161 40.836 69.1135C51.56 68.6668 59.8547 68.6628 67.7307 69.1015C67.8093 69.1055 67.8707 69.1735 67.8667 69.2521C67.8613 69.3295 67.7987 69.3895 67.7227 69.3895C67.72 69.3895 67.7173 69.3895 67.7147 69.3881C59.8467 68.9508 51.5613 68.9548 40.848 69.4001C40.8453 69.4015 40.844 69.4015 40.8413 69.4015Z" fill="#7894AE"/>
<path fill-rule="evenodd" clip-rule="evenodd" d="M83.636 70.0615C85.2413 70.0975 86.124 74.9935 84.196 74.9935C83.0573 74.9935 81.428 74.9415 81.428 73.5535C81.428 72.1655 82.032 70.0255 83.636 70.0615Z" fill="#7894AE"/>
<path fill-rule="evenodd" clip-rule="evenodd" d="M80.18 72.0948L88.7173 71.9601L88.536 74.7348L80.684 73.6841L80.18 72.0948Z" fill="#A3B9C6"/>
<path fill-rule="evenodd" clip-rule="evenodd" d="M87.7493 74.6295L80.684 73.6841L80.484 72.5095L87.8747 72.7095L87.7493 74.6295Z" fill="#7894AE"/>
<path fill-rule="evenodd" clip-rule="evenodd" d="M91.2827 66.2095H91.7853V70.3961H91.2827V66.2095Z" fill="#7894AE"/>
<path fill-rule="evenodd" clip-rule="evenodd" d="M91.7853 70.3961C95.3893 70.3961 98.312 71.7975 98.312 73.5241C98.312 75.2508 95.3893 76.6508 91.7853 76.6508C88.1813 76.6508 85.2587 75.2508 85.2587 73.5241C85.2587 71.7975 88.1813 70.3961 91.7853 70.3961Z" fill="#7894AE"/>
<path fill-rule="evenodd" clip-rule="evenodd" d="M91.7853 70.3961C95.3893 70.3961 98.312 71.7975 98.312 73.5241C98.312 74.0401 98.0493 74.5268 97.5867 74.9561C96.5827 75.2575 95.3973 75.4321 94.1253 75.4321C90.5213 75.4321 87.5987 74.0321 87.5987 72.3055C87.5987 71.7895 87.8613 71.3015 88.324 70.8708C89.328 70.5695 90.5133 70.3961 91.7853 70.3961Z" fill="#A3B9C6"/>
<path fill-rule="evenodd" clip-rule="evenodd" d="M95.6253 70.9948C97.2533 71.5628 98.312 72.4841 98.312 73.5241C98.312 73.8961 98.176 74.2521 97.9267 74.5828C95.416 75.0548 93.0467 75.0548 90.82 74.5828C89.904 74.3895 89.1187 73.8175 89.1187 72.8815V72.6961C89.1187 71.7601 89.884 70.9948 90.82 70.9948H95.6253Z" fill="#4C6186"/>
<path fill-rule="evenodd" clip-rule="evenodd" d="M80.74 70.0615C82.344 70.0975 83.2267 74.9935 81.3 74.9935C80.16 74.9935 78.5307 74.9415 78.5307 73.5535C78.5307 72.1655 79.1347 70.0255 80.74 70.0615Z" fill="#A3B9C6"/>
<path d="M105.517 66.7601C105.513 66.7601 105.511 66.7601 105.507 66.7588C94.8053 66.0108 86.5227 65.7695 78.6507 65.9828C78.5573 65.9881 78.504 65.9215 78.5027 65.8428C78.5013 65.7628 78.564 65.6961 78.6427 65.6948C86.5267 65.4801 94.816 65.7215 105.527 66.4721C105.607 66.4775 105.667 66.5468 105.661 66.6268C105.655 66.7015 105.592 66.7601 105.517 66.7601ZM73.18 69.4015C73.1027 69.4015 73.0387 69.3401 73.036 69.2628C73.032 69.1841 73.0947 69.1161 73.1733 69.1135C83.8973 68.6668 92.1933 68.6628 100.068 69.1015C100.148 69.1055 100.209 69.1735 100.204 69.2521C100.2 69.3295 100.137 69.3895 100.06 69.3895C100.057 69.3895 100.056 69.3895 100.053 69.3881C92.1853 68.9508 83.9 68.9548 73.1853 69.4001C73.184 69.4015 73.1813 69.4015 73.18 69.4015Z" fill="#7894AE"/>
<path fill-rule="evenodd" clip-rule="evenodd" d="M115.975 70.0615C117.579 70.0975 118.461 74.9935 116.533 74.9935C115.395 74.9935 113.765 74.9415 113.765 73.5535C113.765 72.1655 114.369 70.0255 115.975 70.0615Z" fill="#7894AE"/>
<path fill-rule="evenodd" clip-rule="evenodd" d="M112.517 72.0948L121.055 71.9601L120.873 74.7348L113.021 73.6841L112.517 72.0948Z" fill="#A3B9C6"/>
<path fill-rule="evenodd" clip-rule="evenodd" d="M120.087 74.6295L113.021 73.6841L112.821 72.5095L120.212 72.7095L120.087 74.6295Z" fill="#7894AE"/>
<path fill-rule="evenodd" clip-rule="evenodd" d="M123.62 66.2095H124.123V70.3961H123.62V66.2095Z" fill="#7894AE"/>
<path fill-rule="evenodd" clip-rule="evenodd" d="M124.123 70.3961C127.728 70.3961 130.651 71.7975 130.651 73.5241C130.651 75.2508 127.728 76.6508 124.123 76.6508C120.519 76.6508 117.596 75.2508 117.596 73.5241C117.596 71.7975 120.519 70.3961 124.123 70.3961Z" fill="#7894AE"/>
<path fill-rule="evenodd" clip-rule="evenodd" d="M124.123 70.3961C127.728 70.3961 130.651 71.7975 130.651 73.5241C130.651 74.0401 130.388 74.5268 129.924 74.9561C128.92 75.2575 127.735 75.4321 126.463 75.4321C122.859 75.4321 119.936 74.0321 119.936 72.3055C119.936 71.7895 120.199 71.3015 120.661 70.8708C121.665 70.5695 122.851 70.3961 124.123 70.3961Z" fill="#A3B9C6"/>
<path fill-rule="evenodd" clip-rule="evenodd" d="M127.963 70.9948C129.591 71.5628 130.651 72.4841 130.651 73.5241C130.651 73.8961 130.513 74.2521 130.264 74.5828C127.753 75.0548 125.384 75.0548 123.157 74.5828C122.241 74.3895 121.456 73.8175 121.456 72.8815V72.6961C121.456 71.7601 122.221 70.9948 123.157 70.9948H127.963Z" fill="#4C6186"/>
<path fill-rule="evenodd" clip-rule="evenodd" d="M113.077 70.0615C114.681 70.0975 115.564 74.9935 113.637 74.9935C112.497 74.9935 110.868 74.9415 110.868 73.5535C110.868 72.1655 111.473 70.0255 113.077 70.0615Z" fill="#A3B9C6"/>
<path d="M137.855 66.7601C137.852 66.7601 137.848 66.7601 137.844 66.7588C127.144 66.0108 118.863 65.7708 110.988 65.9828C110.987 65.9828 110.985 65.9828 110.984 65.9828C110.907 65.9828 110.843 65.9201 110.84 65.8428C110.839 65.7628 110.901 65.6961 110.98 65.6948C118.859 65.4815 127.152 65.7215 137.864 66.4721C137.944 66.4775 138.004 66.5468 137.997 66.6268C137.992 66.7015 137.929 66.7601 137.855 66.7601ZM105.517 69.4015C105.44 69.4015 105.376 69.3401 105.373 69.2628C105.369 69.1841 105.432 69.1161 105.511 69.1135C116.236 68.6668 124.528 68.6628 132.407 69.1015C132.485 69.1055 132.547 69.1735 132.541 69.2521C132.537 69.3295 132.473 69.3895 132.399 69.3895C132.396 69.3895 132.393 69.3895 132.391 69.3881C124.527 68.9521 116.24 68.9561 105.523 69.4001C105.521 69.4015 105.519 69.4015 105.517 69.4015Z" fill="#7894AE"/>
<path d="M224.571 56.7828C224.467 56.7828 224.381 56.6975 224.381 56.5935V36.7681C224.381 36.6641 224.467 36.5801 224.571 36.5801C224.675 36.5801 224.759 36.6641 224.759 36.7681V56.5935C224.759 56.6975 224.675 56.7828 224.571 56.7828Z" fill="#4C6186"/>
<path d="M211.319 67.8721C211.132 67.8721 210.979 67.7201 210.979 67.5321V47.7055C210.979 47.5188 211.132 47.3655 211.319 47.3655C211.507 47.3655 211.659 47.5188 211.659 47.7055V67.5321C211.659 67.7201 211.507 67.8721 211.319 67.8721Z" fill="#4C6186"/>
<path d="M213.164 58.2041C213.06 58.2041 212.975 58.1201 212.975 58.0161V38.1895C212.975 38.0841 213.06 38.0001 213.164 38.0001C213.268 38.0001 213.353 38.0841 213.353 38.1895V58.0161C213.353 58.1201 213.268 58.2041 213.164 58.2041ZM208.623 60.7601C208.519 60.7601 208.433 60.6761 208.433 60.5721V40.7468C208.433 40.6415 208.519 40.5575 208.623 40.5575C208.727 40.5575 208.811 40.6415 208.811 40.7468V60.5721C208.811 60.6761 208.727 60.7601 208.623 60.7601Z" fill="#4C6186"/>
<path d="M174.687 18.5921H176.379V14.4201L174.687 18.5921ZM174.823 19.2721L176.379 21.5655V19.2721H174.823ZM173.168 22.3321H176.077L174.256 19.6495L173.168 22.3321ZM173.357 23.0121L176.379 26.9041V23.0121H173.357ZM171.047 27.5574H176.025L172.756 23.3468L171.047 27.5574ZM171.155 28.2374L176.379 36.6121V28.2374H171.155ZM177.059 38.9868L170.607 28.6428L166.621 38.4628L165.991 38.2068L170.161 27.9308L169.928 27.5574H170.312L172.273 22.7255L171.969 22.3321H172.433L173.797 18.9721L173.539 18.5921H173.952L177.059 10.9361V22.5681L177.361 23.0121H177.059V27.7815L177.413 28.2374H177.059V38.9868Z" fill="#4C6186"/>
<path fill-rule="evenodd" clip-rule="evenodd" d="M173.679 4.15212C175.717 3.26279 179.148 6.6188 181.341 11.6468C183.533 16.6735 183.659 21.4721 181.621 22.3615L181.6 22.3695L173.659 4.16146L173.679 4.15212Z" fill="#A3B9C6"/>
<path fill-rule="evenodd" clip-rule="evenodd" d="M182.901 20.4881C182.684 21.4201 182.259 22.0828 181.62 22.3615L181.6 22.3708L174.936 7.0908C176.932 7.64147 179.491 10.6001 181.251 14.6361C182.156 16.7121 182.708 18.7481 182.901 20.4881Z" fill="#7894AE"/>
<path fill-rule="evenodd" clip-rule="evenodd" d="M178.624 2.18945L177.4 2.72278L185.307 20.8508L186.531 20.3174L178.624 2.18945Z" fill="#7894AE"/>
<path fill-rule="evenodd" clip-rule="evenodd" d="M179.104 0.618775L171.927 3.74946L172.424 4.89211L179.603 1.76145L179.104 0.618775Z" fill="#A3B9C6"/>
<path fill-rule="evenodd" clip-rule="evenodd" d="M175.516 2.18281L171.927 3.74948L172.425 4.8908L176.015 3.32547L175.516 2.18281Z" fill="#7894AE"/>
<path fill-rule="evenodd" clip-rule="evenodd" d="M187.508 19.8895L180.331 23.0201L180.828 24.1628L188.007 21.0321L187.508 19.8895Z" fill="#A3B9C6"/>
<path fill-rule="evenodd" clip-rule="evenodd" d="M183.92 21.4548L180.331 23.0201L180.828 24.1628L184.419 22.5975L183.92 21.4548Z" fill="#7894AE"/>
<path d="M222.249 68.6188H225.345V68.1228H222.249V68.6188ZM225.801 68.6188H229.181V68.1228H225.8L225.801 68.6188ZM229.605 68.6188H233.017V68.1228H229.605V68.6188ZM233.441 68.6188H236.853V68.1228H233.441V68.6188ZM237.277 68.6188H240.691V68.1228H237.277V68.6188ZM222.249 69.4348H225.345V68.9081H222.249V69.4348ZM225.801 69.4348H229.181V68.9081H225.8L225.801 69.4348ZM229.605 69.4348H233.017V68.9081H229.605V69.4348ZM233.441 69.4348H236.853V68.9081H233.441V69.4348ZM237.277 69.4348H240.691V68.9081H237.277V69.4348ZM222.249 70.0281H225.345V69.7241H222.249V70.0281ZM225.801 70.0281H229.181V69.7241H225.8L225.801 70.0281ZM229.605 70.0281H233.017V69.7241H229.605V70.0281ZM233.441 70.0281H236.853V69.7241H233.441V70.0281ZM237.277 70.0281H240.691V69.7241H237.277V70.0281ZM225.8 70.3415H225.376V70.3174H221.824V67.7854H222.249V67.8335H225.345V67.7854H225.768V67.8081H225.8L225.801 67.8335H229.181V67.7854H229.605V67.8335H233.017V67.7854H233.441V67.8335H236.853V67.7854H237.277V67.8335H240.691V67.7854H241.113L241.105 70.3174H225.8V70.3415Z" fill="#231F20"/>
<path d="M253.467 73.1734L255.747 74.1095V73.1734H253.467ZM255.891 74.4694C255.872 74.4694 255.855 74.4654 255.836 74.4574L252.683 73.1615C252.619 73.1361 252.583 73.0681 252.595 73.0014C252.609 72.9334 252.668 72.8841 252.737 72.8841H255.891C255.971 72.8841 256.035 72.9495 256.035 73.0281V74.3241C256.035 74.3721 256.011 74.4175 255.972 74.4441C255.947 74.4601 255.919 74.4694 255.891 74.4694Z" fill="#7894AE"/>
<path d="M255.895 77.6121C255.791 77.6121 255.705 77.5281 255.705 77.4228V62.4468L252.1 75.6895C252.072 75.7908 251.968 75.8548 251.868 75.8215C251.768 75.7948 251.708 75.6908 251.736 75.5895L255.705 61.0081V54.0401C255.705 53.9361 255.791 53.8521 255.895 53.8521C255.999 53.8521 256.084 53.9361 256.084 54.0401V61.0068C256.084 61.0215 256.085 61.0361 256.084 61.0508V77.4228C256.084 77.5281 255.999 77.6121 255.895 77.6121Z" fill="#7894AE"/>
<path fill-rule="evenodd" clip-rule="evenodd" d="M159.684 34.0081H181.813L184.735 49.8215L187.296 49.2415L187.149 42.0121H204.284V56.4228H225.976V70.1695H252.391V74.0348H298.153V80.0375H163.328L163.08 64.7135L159.684 34.0081Z" fill="#7894AE"/>
<path d="M218.68 74.6788H222.317V74.1828H218.68V74.6788ZM222.751 74.6788H226.391V74.1828H222.751V74.6788ZM226.823 74.6788H230.463V74.1828H226.823V74.6788ZM230.895 74.6788H234.533V74.1828H230.895V74.6788ZM234.967 74.6788H238.605V74.1828H234.967V74.6788ZM239.037 74.6788H242.677V74.1828H239.037V74.6788ZM243.109 74.6788H246.749V74.1828H243.109V74.6788ZM247.181 74.6788H250.82V74.1828H247.181V74.6788ZM251.252 74.6788H254.892V74.1828H251.252V74.6788ZM255.324 74.6788H258.965V74.1828H255.324V74.6788ZM259.397 74.6788H263.036V74.1828H259.397V74.6788ZM263.469 74.6788H267.108V74.1828H263.469V74.6788ZM267.54 74.6788H271.18V74.1828H267.54V74.6788ZM271.612 74.6788H274.949V74.1828H271.612V74.6788ZM218.68 75.4935H222.317V74.9681H218.68V75.4935ZM222.751 75.4935H226.391V74.9681H222.751V75.4935ZM226.823 75.4935H230.463V74.9681H226.823V75.4935ZM230.895 75.4935H234.533V74.9681H230.895V75.4935ZM234.967 75.4935H238.605V74.9681H234.967V75.4935ZM239.037 75.4935H242.677V74.9681H239.037V75.4935ZM243.109 75.4935H246.749V74.9681H243.109V75.4935ZM247.181 75.4935H250.82V74.9681H247.181V75.4935ZM251.252 75.4935H254.892V74.9681H251.252V75.4935ZM255.324 75.4935H258.965V74.9681H255.324V75.4935ZM259.397 75.4935H263.036V74.9681H259.397V75.4935ZM263.469 75.4935H267.108V74.9681H263.469V75.4935ZM267.54 75.4935H271.18V74.9681H267.54V75.4935ZM271.612 75.4935H274.949V74.9681H271.612V75.4935ZM218.68 76.0895H222.317V75.7828H218.68V76.0895ZM222.751 76.0895H226.391V75.7828H222.751V76.0895ZM226.823 76.0895H230.463V75.7828H226.823V76.0895ZM230.895 76.0895H234.533V75.7828H230.895V76.0895ZM234.967 76.0895H238.605V75.7828H234.967V76.0895ZM239.037 76.0895H242.677V75.7828H239.037V76.0895ZM243.109 76.0895H246.749V75.7828H243.109V76.0895ZM247.181 76.0895H250.82V75.7828H247.181V76.0895ZM251.252 76.0895H254.892V75.7828H251.252V76.0895ZM255.324 76.0895H258.965V75.7828H255.324V76.0895ZM259.397 76.0895H263.036V75.7828H259.397V76.0895ZM263.469 76.0895H267.108V75.7828H263.469V76.0895ZM267.54 76.0895H271.18V75.7828H267.54V76.0895ZM271.612 76.0895H274.949V75.7828H271.612V76.0895ZM275.383 76.4015H274.949V76.3788H218.247V73.8455H218.68V73.8935H222.317V73.8441H222.751V73.8935H226.391V73.8441H226.823V73.8935H230.463V73.8441H230.895V73.8935H234.533V73.8441H234.967V73.8935H238.605V73.8441H239.037V73.8935H242.677V73.8441H243.109V73.8935H246.749V73.8441H247.181V73.8935H250.82V73.8441H251.252V73.8935H254.892V73.8441H255.324V73.8935H258.965V73.8441H259.397V73.8935H263.036V73.8441H263.469V73.8935H267.108V73.8441H267.54V73.8935H271.18V73.8455H271.612V73.8935H274.949V73.8668H275.383V76.4015Z" fill="#231F20"/>
<path fill-rule="evenodd" clip-rule="evenodd" d="M199.951 42.0121H204.776V75.5375H199.951V42.0121Z" fill="#A3B9C6"/>
<path fill-rule="evenodd" clip-rule="evenodd" d="M161.184 34.0081L164.885 64.7135L164.897 76.0601L163.072 76.0615V65.2268L159.684 34.0081H161.184Z" fill="#4C6186"/>
<path fill-rule="evenodd" clip-rule="evenodd" d="M166.739 76.0615L171.22 72.5561H218.303L222.463 76.2335L166.739 76.0615Z" fill="#A3B9C6"/>
<path fill-rule="evenodd" clip-rule="evenodd" d="M203.191 42.6908H204.6V32.3095H203.191V42.6908Z" fill="#7894AE"/>
<path fill-rule="evenodd" clip-rule="evenodd" d="M200.5 31.7961H206.521V32.9495H200.5V31.7961Z" fill="#7894AE"/>
<path d="M1.94666 90.0895H5.42267V89.5935H1.94666V90.0895ZM5.84799 90.0895H9.324V89.5935H5.84799V90.0895ZM9.74799 90.0895H13.224V89.5935H9.74799V90.0895ZM13.6507 90.0895H16.8053V89.5935H13.6507V90.0895ZM17.2653 90.0895H20.7067V89.5935H17.2613L17.2653 90.0895ZM21.132 90.0895H24.608V89.5935H21.132V90.0895ZM25.0333 90.0895H28.508V89.5935H25.0333V90.0895ZM28.9333 90.0895H32.4093V89.5935H28.9333V90.0895ZM32.8347 90.0895H36.0213V89.5935H32.8347V90.0895ZM1.94666 90.9055H5.42267V90.3788H1.94666V90.9055ZM5.84799 90.9055H9.324V90.3788H5.84799V90.9055ZM9.74799 90.9055H13.224V90.3788H9.74799V90.9055ZM13.6507 90.9055H16.8053V90.3788H13.6507V90.9055ZM17.2653 90.9055H20.7067V90.3788H17.2613L17.2653 90.9055ZM21.132 90.9055H24.608V90.3788H21.132V90.9055ZM25.0333 90.9055H28.508V90.3788H25.0333V90.9055ZM28.9333 90.9055H32.4093V90.3788H28.9333V90.9055ZM32.8347 90.9055H36.0213V90.3788H32.8347V90.9055ZM1.94666 91.5001H5.42267V91.1948H1.94666V91.5001ZM5.84799 91.5001H9.324V91.1948H5.84799V91.5001ZM9.74799 91.5001H13.224V91.1948H9.74799V91.5001ZM13.6507 91.5001H16.8053V91.1948H13.6507V91.5001ZM17.2653 91.5001H20.7067V91.1948H17.2613L17.2653 91.5001ZM21.132 91.5001H24.608V91.1948H21.132V91.5001ZM25.0333 91.5001H28.508V91.1948H25.0333V91.5001ZM28.9333 91.5001H32.4093V91.1948H28.9333V91.5001ZM32.8347 91.5001H36.0213V91.1948H32.8347V91.5001ZM36.4467 91.8121H36.0213V91.7895H17.2613V91.8121H16.836V91.7895H1.52133V89.2548H1.94666V89.3055H5.42267V89.2548H5.84799V89.3055H9.324V89.2548H9.74799V89.3055H13.224V89.2561H13.6507V89.3055H16.8053V89.2548H17.2293V89.2788H17.2613L17.2653 89.3055H20.7067V89.2548H21.132V89.3055H24.608V89.2548H25.0333V89.3055H28.508V89.2548H28.9333V89.3055H32.4093V89.2561H32.8347V89.3055H36.0213V89.2788H36.4467V91.8121Z" fill="#231F20"/>
<path fill-rule="evenodd" clip-rule="evenodd" d="M311.773 71.4895H316.293V79.1535H311.773V71.4895Z" fill="#4C6186"/>
<path fill-rule="evenodd" clip-rule="evenodd" d="M179.596 34.0081H181.813L184.705 49.6601L183.071 49.8215L179.596 34.0081Z" fill="#A3B9C6"/>
<path fill-rule="evenodd" clip-rule="evenodd" d="M167.923 34.0081H172.82L181.096 49.2721H176.197L167.923 34.0081Z" fill="#A3B9C6"/>
<path d="M275.396 74.6788H279.035V74.1828H275.396V74.6788ZM279.468 74.6788H283.107V74.1828H279.468V74.6788ZM283.54 74.6788H287.18V74.1828H283.54V74.6788ZM287.612 74.6788H291.251V74.1828H287.612V74.6788ZM291.684 74.6788H295.323V74.1828H291.684V74.6788ZM295.755 74.6788H299.395V74.1828H295.755V74.6788ZM299.827 74.6788H303.467V74.1828H299.827V74.6788ZM303.899 74.6788H307.537V74.1828H303.899V74.6788ZM307.971 74.6788H311.609V74.1828H307.971V74.6788ZM312.041 74.6788H315.681V74.1828H312.041V74.6788ZM316.115 74.6788H319.753V74.1828H316.115V74.6788ZM320.187 74.6788H323.825V74.1828H320.187V74.6788ZM324.257 74.6788H327.897V74.1828H324.257V74.6788ZM328.329 74.6788H331.667V74.1828H328.329V74.6788ZM275.396 75.4935H279.035V74.9681H275.396V75.4935ZM279.468 75.4935H283.107V74.9681H279.468V75.4935ZM283.54 75.4935H287.18V74.9681H283.54V75.4935ZM287.612 75.4935H291.251V74.9681H287.612V75.4935ZM291.684 75.4935H295.323V74.9681H291.684V75.4935ZM295.755 75.4935H299.395V74.9681H295.755V75.4935ZM299.827 75.4935H303.467V74.9681H299.827V75.4935ZM303.899 75.4935H307.537V74.9681H303.899V75.4935ZM307.971 75.4935H311.609V74.9681H307.971V75.4935ZM312.041 75.4935H315.681V74.9681H312.041V75.4935ZM316.115 75.4935H319.753V74.9681H316.115V75.4935ZM320.187 75.4935H323.825V74.9681H320.187V75.4935ZM324.257 75.4935H327.897V74.9681H324.257V75.4935ZM328.329 75.4935H331.667V74.9681H328.329V75.4935ZM275.396 76.0895H279.035V75.7828H275.396V76.0895ZM279.468 76.0895H283.107V75.7828H279.468V76.0895ZM283.54 76.0895H287.18V75.7828H283.54V76.0895ZM287.612 76.0895H291.251V75.7828H287.612V76.0895ZM291.684 76.0895H295.323V75.7828H291.684V76.0895ZM295.755 76.0895H299.395V75.7828H295.755V76.0895ZM299.827 76.0895H303.467V75.7828H299.827V76.0895ZM303.899 76.0895H307.537V75.7828H303.899V76.0895ZM307.971 76.0895H311.609V75.7828H307.971V76.0895ZM312.041 76.0895H315.681V75.7828H312.041V76.0895ZM316.115 76.0895H319.753V75.7828H316.115V76.0895ZM320.187 76.0895H323.825V75.7828H320.187V76.0895ZM324.257 76.0895H327.897V75.7828H324.257V76.0895ZM328.329 76.0895H331.667V75.7828H328.329V76.0895ZM332.099 76.4015H331.667V76.3788H274.964V73.8455H275.396V73.8935H279.035V73.8441H279.468V73.8935H283.107V73.8441H283.54V73.8935H287.18V73.8441H287.612V73.8935H291.251V73.8441H291.684V73.8935H295.323V73.8441H295.755V73.8935H299.395V73.8441H299.827V73.8935H303.467V73.8441H303.899V73.8935H307.537V73.8441H307.971V73.8935H311.609V73.8441H312.041V73.8935H315.681V73.8441H316.115V73.8935H319.753V73.8441H320.187V73.8935H323.825V73.8441H324.257V73.8935H327.897V73.8455H328.329V73.8935H331.667V73.8668H332.099V76.4015Z" fill="#231F20"/>
<path fill-rule="evenodd" clip-rule="evenodd" d="M329.095 72.0281H330.347V75.0308H329.095V72.0281Z" fill="#4C6186"/>
<path fill-rule="evenodd" clip-rule="evenodd" d="M309.088 68.7374H318.585C319.487 68.7374 320.224 69.4748 320.224 70.3761V71.4894H307.449V70.3761C307.449 69.4748 308.187 68.7374 309.088 68.7374Z" fill="#A3B9C6"/>
<path fill-rule="evenodd" clip-rule="evenodd" d="M320.224 71.0975V71.4894H307.449V70.3761C307.449 70.2868 307.457 70.1975 307.471 70.1121H318.068C319.029 70.1121 319.86 70.5188 320.224 71.0975Z" fill="#7894AE"/>
<path fill-rule="evenodd" clip-rule="evenodd" d="M40.0373 105.968L35.86 112.939V118.515C35.86 119.045 35.4253 119.479 34.8947 119.479H25.4693C24.9387 119.479 24.504 119.045 24.504 118.515V107.897C24.504 107.367 24.9387 106.932 25.4693 106.932H27.568L29.54 102.857L40.0373 105.968Z" fill="#244B9A"/>
<path fill-rule="evenodd" clip-rule="evenodd" d="M236.389 110.776C240.031 112.021 239.945 113.076 241.952 115.064C244.524 117.611 253.037 118.415 260.045 118.745C270.652 119.244 274.521 115.703 278.027 112.097C264.147 111.657 250.268 111.216 236.389 110.776Z" fill="#244B9A"/>
<path fill-rule="evenodd" clip-rule="evenodd" d="M374.999 72.2241L349.653 112.304C252.476 112.304 157.431 116.981 60.2533 116.981C57.5253 109.699 36.1707 105.076 14.3907 104.005C13.4693 103.96 12.6907 103.635 12.012 103.009C8.38 99.6615 4.31734 96.3121 0.654672 92.9655C0.418672 92.7495 0.342674 92.4281 0.457341 92.1295C0.573341 91.8308 0.846667 91.6441 1.16667 91.6441C7.47333 91.6441 13.78 91.6441 20.0867 91.6441C21.532 91.6441 22.772 90.8935 23.4413 89.6121C24.7227 87.1548 27.7893 82.4268 25.4253 79.7668C25.4133 79.7521 25.4013 79.7388 25.3893 79.7255C24.6493 78.8921 23.6893 78.4588 22.5747 78.4561C15.4587 78.4308 8.34266 78.4041 1.22666 78.3801C1.23466 77.9521 1.096 76.6468 1.104 76.2188L168.167 76.0561L171.411 73.4081H217.901L221.105 76.3375L321.013 76.4135C324.885 76.4161 326.889 75.1161 328.676 73.1508L374.999 72.2241Z" fill="#4C6186"/>
<path fill-rule="evenodd" clip-rule="evenodd" d="M54.8746 78.5895L324.124 78.5761C356.481 78.5748 374.579 75.6495 354.857 99.5001C346.403 100.515 292.731 103.859 281.091 104.996C210.851 111.856 81.1586 105.792 53.6573 105.788C32.6053 105.784 16.8213 102.168 24.8893 89.5348C32.776 77.1828 47.588 78.6255 54.8746 78.5895Z" fill="#7894AE"/>
<path fill-rule="evenodd" clip-rule="evenodd" d="M80.56 83.6348L234.664 82.9401C284.563 82.7148 346.595 85.9708 284.032 97.9801C221.741 109.936 104.203 106.041 79.4653 105.937C62.936 105.869 51.4733 99.9975 44.6533 92.6095C36.264 83.5241 74.0066 83.6641 80.56 83.6348Z" fill="#A3B9C6"/>
<path fill-rule="evenodd" clip-rule="evenodd" d="M357.893 99.4988L349.499 112.713C347.999 115.075 345.595 116.396 342.797 116.396C247.211 116.413 155.976 116.981 60.2533 116.981C57.5253 109.699 36.1707 105.076 14.3907 104.005C13.4693 103.96 12.6906 103.635 12.012 103.009C10.7426 101.84 9.42265 100.668 8.08398 99.4988H357.893Z" fill="#244B9A"/>
<path fill-rule="evenodd" clip-rule="evenodd" d="M23.9053 99.4988H354.857L345.64 109.513C344.081 111.205 342.103 112.075 339.803 112.076C245.909 112.145 158.519 114.985 64.4627 114.985C61.7893 107.703 49.2093 103.08 27.8693 102.009C26.9667 101.965 26.2027 101.639 25.5387 101.013C25.0027 100.509 24.4573 100.004 23.9053 99.4988Z" fill="#2056C1"/>
<path fill-rule="evenodd" clip-rule="evenodd" d="M52.74 99.4988H275.423C211.524 109.792 103.107 106.037 79.4653 105.937C68.412 105.892 59.388 103.455 52.74 99.4988Z" fill="#1D62EB"/>
<path fill-rule="evenodd" clip-rule="evenodd" d="M46.54 103.133L46.4906 105.929L45.04 108.316C45.8413 108.532 46.62 108.756 47.376 108.987L49.0613 106.257C50.1466 105.857 52.1813 104.697 53.2666 104.296C50.7373 103.957 48.7 103.184 46.54 103.133Z" fill="#244B9A"/>
<path fill-rule="evenodd" clip-rule="evenodd" d="M64.4507 116.44L82.608 111.796C82.848 111.733 83.0986 111.871 83.1586 112.103C83.2173 112.333 83.0613 112.573 82.82 112.635L67.9413 116.442L64.4507 116.44Z" fill="#244B9A"/>
<path fill-rule="evenodd" clip-rule="evenodd" d="M46.5813 103.111L47.764 105.215L46.7893 109.611L45.4747 111.504L49.492 111.497L49.352 110.265L50.5413 105.2C51.4493 104.899 52.3587 104.597 53.2667 104.296C51.0387 103.384 48.8093 102.84 46.5813 103.111Z" fill="#1C62ED"/>
<path fill-rule="evenodd" clip-rule="evenodd" d="M44.7867 111.508L50.312 111.487L50.3133 113.099L44.788 113.121L44.7867 111.508Z" fill="#1C62ED"/>
<path fill-rule="evenodd" clip-rule="evenodd" d="M40.0133 111.869L83.4106 111.787C83.6693 111.787 83.8813 111.987 83.8813 112.233C83.8826 112.48 83.6706 112.683 83.412 112.683L40.0146 112.766C39.756 112.767 39.544 112.566 39.544 112.319C39.544 112.072 39.7546 111.871 40.0133 111.869Z" fill="#1C62ED"/>
<path fill-rule="evenodd" clip-rule="evenodd" d="M41.28 111.671H43.9653V112.364H41.28V111.671Z" fill="#E5962E"/>
<path fill-rule="evenodd" clip-rule="evenodd" d="M41.28 112.364H43.9653V112.932H41.28V112.364Z" fill="#CA7731"/>
<path fill-rule="evenodd" clip-rule="evenodd" d="M43.8573 112.164C43.9573 110.144 43.572 108.483 42.6986 107.744C42.2506 107.363 41.572 107.312 41.4013 107.832L42.7093 110.565L43.608 112.135L43.8573 112.164Z" fill="#F7B859"/>
<path fill-rule="evenodd" clip-rule="evenodd" d="M41.368 112.163C41.2693 114.184 41.6546 115.844 42.528 116.584C42.976 116.964 43.6546 117.015 43.8253 116.495L42.516 113.761L41.6187 112.193L41.368 112.163Z" fill="#F7B859"/>
<path fill-rule="evenodd" clip-rule="evenodd" d="M41.4013 107.832C41.3707 107.956 41.3533 108.097 41.3533 108.256V111.671C42.6227 111.671 43.2253 111.767 43.628 112.164C43.576 110.697 43.5893 108.981 42.504 107.929C42.0693 107.508 41.7027 107.468 41.4013 107.832Z" fill="#CA7731"/>
<path fill-rule="evenodd" clip-rule="evenodd" d="M43.8253 116.495C43.856 116.372 43.8733 116.231 43.8733 116.071V112.656C42.604 112.656 42.0013 112.56 41.5987 112.163C41.6493 113.63 41.6373 115.345 42.7227 116.397C43.1573 116.819 43.524 116.859 43.8253 116.495Z" fill="#E5962E"/>
<path fill-rule="evenodd" clip-rule="evenodd" d="M122.688 114.668L150.3 114.942L207.171 114.559L224.836 114.428L229.627 109.183L209.453 111.28L151.123 111.092L126.585 108.497L122.688 114.668Z" fill="#244B9A"/>
<path fill-rule="evenodd" clip-rule="evenodd" d="M78.388 110.292C90.488 110.556 115.859 110.221 114.703 112.123C110.684 118.74 86.7 116.581 74.276 116.961C74.276 115.639 78.388 111.615 78.388 110.292Z" fill="#244B9A"/>
<path fill-rule="evenodd" clip-rule="evenodd" d="M78.388 110.292C90.488 110.556 114.703 110.051 114.703 112.123C114.703 114.142 90.812 113.879 78.388 114.26C78.388 112.937 78.388 111.615 78.388 110.292Z" fill="#2056C1"/>
<path fill-rule="evenodd" clip-rule="evenodd" d="M78.388 110.292C90.068 110.547 113.032 110.084 114.613 111.916C106.428 112.706 88.8453 112.633 78.388 112.916V110.292Z" fill="#1C62ED"/>
<path fill-rule="evenodd" clip-rule="evenodd" d="M129.007 111.456L150.396 113.312H207.457L222.06 112.13L229.627 109.183L209.453 111.28L151.123 111.092L126.585 108.497L129.007 111.456Z" fill="#1C62ED"/>
<path d="M251.581 93.9481V84.2481C251.425 84.4335 251.209 84.5775 250.929 84.6788C250.649 84.7815 250.371 84.8321 250.1 84.8321V83.4801C250.484 83.4268 250.851 83.2721 251.196 83.0121C251.544 82.7548 251.808 82.4121 251.989 81.9868H253.401V93.9481H251.581Z" fill="#C9D5DC"/>
<path d="M255.507 93.9481V93.2415C255.507 92.6175 255.608 92.0028 255.815 91.3988C256.021 90.7935 256.343 90.1068 256.784 89.3375C256.8 89.3095 256.967 89.0268 257.277 88.4881C257.591 87.9481 257.82 87.5775 257.964 87.3735C258.319 86.7935 258.495 85.9908 258.495 84.9641C258.495 83.9388 258.277 83.4268 257.844 83.4268C257.48 83.4268 257.257 83.7121 257.171 84.2828C257.133 84.5281 257.115 84.8321 257.115 85.2014V86.7148H255.376V85.9801C255.376 84.5001 255.516 83.4988 255.793 82.9801C256.072 82.4575 256.456 82.1241 256.947 81.9801C257.217 81.8988 257.547 81.8575 257.932 81.8575C258.316 81.8575 258.661 81.9428 258.971 82.1148C259.269 82.2895 259.508 82.5268 259.689 82.8361C260.044 83.4388 260.22 84.2228 260.22 85.1895C260.22 86.1561 260.032 87.0041 259.656 87.7321C259.281 88.4628 258.909 89.1095 258.541 89.6761C257.871 90.7121 257.437 91.6628 257.239 92.5228H259.995V93.9481H255.507Z" fill="#C9D5DC"/>
<path d="M262.896 90.3761H264.437V84.4721L262.896 90.3761ZM264.437 93.9548V91.8441H261.491V90.5055L264.117 81.9868H266.06V90.3761H266.985V91.8441H266.06V93.9548H264.437Z" fill="#C9D5DC"/>
<path fill-rule="evenodd" clip-rule="evenodd" d="M357.204 80.3268C358.537 79.4788 359.98 79.2961 360.787 79.8574L360.253 81.9948L359.263 82.1601L359.169 83.2508L357.204 80.3268ZM356.776 80.6241C356.868 80.5548 356.961 80.4881 357.055 80.4241L357.759 85.1148C356.667 85.4495 355.667 85.3161 355.173 84.6681C354.423 83.6801 355.139 81.8681 356.776 80.6241Z" fill="#A3B9C6"/>
<path fill-rule="evenodd" clip-rule="evenodd" d="M357.38 80.9108C358.34 80.3015 359.379 80.1695 359.959 80.5735L359.575 82.1121L358.795 83.0161L357.38 80.9108ZM357.072 81.1255C357.139 81.0748 357.204 81.0268 357.272 80.9815L357.779 84.3588C356.993 84.5988 356.273 84.5028 355.917 84.0374C355.377 83.3254 355.893 82.0215 357.072 81.1255Z" fill="#4C6186"/>
<path fill-rule="evenodd" clip-rule="evenodd" d="M356.992 80.0121L357.817 85.5068L359.964 84.4321L356.992 80.0121Z" fill="#A3B9C6"/>
<path fill-rule="evenodd" clip-rule="evenodd" d="M361.079 78.6895L362.316 84.1014L358.973 85.5895L359.031 84.8988L359.964 84.4321L359.169 83.2521L359.263 82.1601L360.253 81.9948L361.079 78.6895Z" fill="#A3B9C6"/>
<path fill-rule="evenodd" clip-rule="evenodd" d="M356.992 80.0121L359.497 84.6655L359.964 84.4321L356.992 80.0121Z" fill="#C9D5DC"/>
<path fill-rule="evenodd" clip-rule="evenodd" d="M361.079 78.6895L362.316 84.1015L361.429 84.4961L361.079 78.6895Z" fill="#C9D5DC"/>
<path fill-rule="evenodd" clip-rule="evenodd" d="M372.996 68.2495L369.209 73.8521L369.208 73.8308L368.944 73.7241L373.055 67.6428L372.996 68.2495Z" fill="#7894AE"/>
<path fill-rule="evenodd" clip-rule="evenodd" d="M375.011 56.3881H374.579V57.4508H375.011V56.3881Z" fill="#7894AE"/>
<path fill-rule="evenodd" clip-rule="evenodd" d="M371.532 56.7695H375.011V57.0681H371.532V56.7695Z" fill="#7894AE"/>
<path fill-rule="evenodd" clip-rule="evenodd" d="M372.617 58.2108H373.055V58.5108H372.617V58.2108Z" fill="#7894AE"/>
<path fill-rule="evenodd" clip-rule="evenodd" d="M372.024 56.3881H371.592V57.4508H372.024V56.3881Z" fill="#7894AE"/>
<path fill-rule="evenodd" clip-rule="evenodd" d="M373.055 56.7695H373.488V73.0228H373.055V56.7695Z" fill="#7894AE"/>
<path fill-rule="evenodd" clip-rule="evenodd" d="M327.719 69.0281H331.723V72.0295H327.719V69.0281Z" fill="#4C6186"/>
<path fill-rule="evenodd" clip-rule="evenodd" d="M278.804 66.1508H282.879V69.0281H278.804V66.1508Z" fill="#7894AE"/>
<path fill-rule="evenodd" clip-rule="evenodd" d="M282.013 66.1495V67.2401H278.804V66.1495H282.013Z" fill="#A3B9C6"/>
<path fill-rule="evenodd" clip-rule="evenodd" d="M282.879 65.3988H293.441V69.7788H282.879V65.3988Z" fill="#A3B9C6"/>
<path fill-rule="evenodd" clip-rule="evenodd" d="M293.441 66.6815V69.7788H282.879V66.6815H293.441Z" fill="#7894AE"/>
<path fill-rule="evenodd" clip-rule="evenodd" d="M286.436 69.7801H289.188V74.1588H286.436V69.7801Z" fill="#4C6186"/>
<path fill-rule="evenodd" clip-rule="evenodd" d="M233.176 62.1534H237.251V65.0308H233.176V62.1534Z" fill="#7894AE"/>
<path fill-rule="evenodd" clip-rule="evenodd" d="M236.385 62.1535V63.2428H233.176V62.1535H236.385Z" fill="#A3B9C6"/>
<path fill-rule="evenodd" clip-rule="evenodd" d="M237.251 61.4028H247.813V65.7815H237.251V61.4028Z" fill="#A3B9C6"/>
<path fill-rule="evenodd" clip-rule="evenodd" d="M247.813 62.6854V65.7815H237.251V62.6854H247.813Z" fill="#7894AE"/>
<path fill-rule="evenodd" clip-rule="evenodd" d="M240.808 65.7828H243.559V70.1615H240.808V65.7828Z" fill="#4C6186"/>
<path fill-rule="evenodd" clip-rule="evenodd" d="M60.872 79.6188C61.2933 79.6188 61.636 79.9615 61.636 80.3828C61.636 80.8055 61.2933 81.1468 60.872 81.1468C60.4493 81.1468 60.108 80.8055 60.108 80.3828C60.108 79.9615 60.4493 79.6188 60.872 79.6188Z" fill="#4C6186"/>
<path fill-rule="evenodd" clip-rule="evenodd" d="M74.928 79.6188C75.3507 79.6188 75.692 79.9615 75.692 80.3828C75.692 80.8055 75.3507 81.1468 74.928 81.1468C74.5053 81.1468 74.164 80.8055 74.164 80.3828C74.164 79.9615 74.5053 79.6188 74.928 79.6188Z" fill="#4C6186"/>
<path fill-rule="evenodd" clip-rule="evenodd" d="M187.621 79.6188C188.044 79.6188 188.387 79.9615 188.387 80.3828C188.387 80.8055 188.044 81.1468 187.621 81.1468C187.2 81.1468 186.857 80.8055 186.857 80.3828C186.857 79.9615 187.2 79.6188 187.621 79.6188Z" fill="#4C6186"/>
<path fill-rule="evenodd" clip-rule="evenodd" d="M63.8013 79.6188C64.224 79.6188 64.5653 79.9615 64.5653 80.3828C64.5653 80.8055 64.224 81.1468 63.8013 81.1468C63.3787 81.1468 63.0373 80.8055 63.0373 80.3828C63.0373 79.9615 63.3787 79.6188 63.8013 79.6188Z" fill="#4C6186"/>
<path fill-rule="evenodd" clip-rule="evenodd" d="M77.8573 79.6188C78.28 79.6188 78.6213 79.9615 78.6213 80.3828C78.6213 80.8055 78.28 81.1468 77.8573 81.1468C77.4347 81.1468 77.0933 80.8055 77.0933 80.3828C77.0933 79.9615 77.4347 79.6188 77.8573 79.6188Z" fill="#4C6186"/>
<path fill-rule="evenodd" clip-rule="evenodd" d="M190.552 79.6188C190.973 79.6188 191.316 79.9615 191.316 80.3828C191.316 80.8055 190.973 81.1468 190.552 81.1468C190.129 81.1468 189.787 80.8055 189.787 80.3828C189.787 79.9615 190.129 79.6188 190.552 79.6188Z" fill="#4C6186"/>
<path fill-rule="evenodd" clip-rule="evenodd" d="M53.512 79.6188C53.9346 79.6188 54.276 79.9615 54.276 80.3828C54.276 80.8055 53.9346 81.1468 53.512 81.1468C53.0906 81.1468 52.748 80.8055 52.748 80.3828C52.748 79.9615 53.0906 79.6188 53.512 79.6188Z" fill="#4C6186"/>
<path fill-rule="evenodd" clip-rule="evenodd" d="M46.1533 79.6188C46.5747 79.6188 46.9173 79.9615 46.9173 80.3828C46.9173 80.8055 46.5747 81.1468 46.1533 81.1468C45.7307 81.1468 45.388 80.8055 45.388 80.3828C45.388 79.9615 45.7307 79.6188 46.1533 79.6188Z" fill="#4C6186"/>
<path fill-rule="evenodd" clip-rule="evenodd" d="M56.4413 79.6188C56.864 79.6188 57.2053 79.9615 57.2053 80.3828C57.2053 80.8055 56.864 81.1468 56.4413 81.1468C56.02 81.1468 55.6773 80.8055 55.6773 80.3828C55.6773 79.9615 56.02 79.6188 56.4413 79.6188Z" fill="#4C6186"/>
<path fill-rule="evenodd" clip-rule="evenodd" d="M49.0827 79.6188C49.504 79.6188 49.8467 79.9615 49.8467 80.3828C49.8467 80.8055 49.504 81.1468 49.0827 81.1468C48.66 81.1468 48.3187 80.8055 48.3187 80.3828C48.3187 79.9615 48.66 79.6188 49.0827 79.6188Z" fill="#4C6186"/>
<path fill-rule="evenodd" clip-rule="evenodd" d="M83.5107 79.6188C83.932 79.6188 84.2747 79.9615 84.2747 80.3828C84.2747 80.8055 83.932 81.1468 83.5107 81.1468C83.088 81.1468 82.7467 80.8055 82.7467 80.3828C82.7467 79.9615 83.088 79.6188 83.5107 79.6188Z" fill="#4C6186"/>
<path fill-rule="evenodd" clip-rule="evenodd" d="M196.204 79.6188C196.627 79.6188 196.969 79.9615 196.969 80.3828C196.969 80.8055 196.627 81.1468 196.204 81.1468C195.783 81.1468 195.44 80.8055 195.44 80.3828C195.44 79.9615 195.783 79.6188 196.204 79.6188Z" fill="#4C6186"/>
<path fill-rule="evenodd" clip-rule="evenodd" d="M92.0933 79.6188C92.5146 79.6188 92.8573 79.9615 92.8573 80.3828C92.8573 80.8055 92.5146 81.1468 92.0933 81.1468C91.6706 81.1468 91.3293 80.8055 91.3293 80.3828C91.3293 79.9615 91.6706 79.6188 92.0933 79.6188Z" fill="#4C6186"/>
<path fill-rule="evenodd" clip-rule="evenodd" d="M204.787 79.6188C205.209 79.6188 205.551 79.9615 205.551 80.3828C205.551 80.8055 205.209 81.1468 204.787 81.1468C204.365 81.1468 204.023 80.8055 204.023 80.3828C204.023 79.9615 204.365 79.6188 204.787 79.6188Z" fill="#4C6186"/>
<path fill-rule="evenodd" clip-rule="evenodd" d="M100.676 79.6188C101.097 79.6188 101.44 79.9615 101.44 80.3828C101.44 80.8055 101.097 81.1468 100.676 81.1468C100.253 81.1468 99.9106 80.8055 99.9106 80.3828C99.9106 79.9615 100.253 79.6188 100.676 79.6188Z" fill="#4C6186"/>
<path fill-rule="evenodd" clip-rule="evenodd" d="M213.369 79.6188C213.792 79.6188 214.133 79.9615 214.133 80.3828C214.133 80.8055 213.792 81.1468 213.369 81.1468C212.948 81.1468 212.605 80.8055 212.605 80.3828C212.605 79.9615 212.948 79.6188 213.369 79.6188Z" fill="#4C6186"/>
<path fill-rule="evenodd" clip-rule="evenodd" d="M113.715 79.6188C114.136 79.6188 114.479 79.9615 114.479 80.3828C114.479 80.8055 114.136 81.1468 113.715 81.1468C113.292 81.1468 112.949 80.8055 112.949 80.3828C112.949 79.9615 113.292 79.6188 113.715 79.6188Z" fill="#4C6186"/>
<path fill-rule="evenodd" clip-rule="evenodd" d="M226.408 79.6188C226.831 79.6188 227.172 79.9615 227.172 80.3828C227.172 80.8055 226.831 81.1468 226.408 81.1468C225.987 81.1468 225.644 80.8055 225.644 80.3828C225.644 79.9615 225.987 79.6188 226.408 79.6188Z" fill="#4C6186"/>
<path fill-rule="evenodd" clip-rule="evenodd" d="M122.627 79.6188C123.048 79.6188 123.391 79.9615 123.391 80.3828C123.391 80.8055 123.048 81.1468 122.627 81.1468C122.204 81.1468 121.861 80.8055 121.861 80.3828C121.861 79.9615 122.204 79.6188 122.627 79.6188Z" fill="#4C6186"/>
<path fill-rule="evenodd" clip-rule="evenodd" d="M235.32 79.6188C235.743 79.6188 236.084 79.9615 236.084 80.3828C236.084 80.8055 235.743 81.1468 235.32 81.1468C234.899 81.1468 234.556 80.8055 234.556 80.3828C234.556 79.9615 234.899 79.6188 235.32 79.6188Z" fill="#4C6186"/>
<path fill-rule="evenodd" clip-rule="evenodd" d="M86.44 79.6188C86.8627 79.6188 87.204 79.9615 87.204 80.3828C87.204 80.8055 86.8627 81.1468 86.44 81.1468C86.0173 81.1468 85.676 80.8055 85.676 80.3828C85.676 79.9615 86.0173 79.6188 86.44 79.6188Z" fill="#4C6186"/>
<path fill-rule="evenodd" clip-rule="evenodd" d="M199.135 79.6188C199.556 79.6188 199.899 79.9615 199.899 80.3828C199.899 80.8055 199.556 81.1468 199.135 81.1468C198.712 81.1468 198.369 80.8055 198.369 80.3828C198.369 79.9615 198.712 79.6188 199.135 79.6188Z" fill="#4C6186"/>
<path fill-rule="evenodd" clip-rule="evenodd" d="M95.0227 79.6188C95.444 79.6188 95.7867 79.9615 95.7867 80.3828C95.7867 80.8055 95.444 81.1468 95.0227 81.1468C94.6 81.1468 94.2587 80.8055 94.2587 80.3828C94.2587 79.9615 94.6 79.6188 95.0227 79.6188Z" fill="#4C6186"/>
<path fill-rule="evenodd" clip-rule="evenodd" d="M207.716 79.6188C208.139 79.6188 208.481 79.9615 208.481 80.3828C208.481 80.8055 208.139 81.1468 207.716 81.1468C207.295 81.1468 206.952 80.8055 206.952 80.3828C206.952 79.9615 207.295 79.6188 207.716 79.6188Z" fill="#4C6186"/>
<path fill-rule="evenodd" clip-rule="evenodd" d="M103.605 79.6188C104.027 79.6188 104.369 79.9615 104.369 80.3828C104.369 80.8055 104.027 81.1468 103.605 81.1468C103.183 81.1468 102.841 80.8055 102.841 80.3828C102.841 79.9615 103.183 79.6188 103.605 79.6188Z" fill="#4C6186"/>
<path fill-rule="evenodd" clip-rule="evenodd" d="M216.299 79.6188C216.721 79.6188 217.064 79.9615 217.064 80.3828C217.064 80.8055 216.721 81.1468 216.299 81.1468C215.877 81.1468 215.535 80.8055 215.535 80.3828C215.535 79.9615 215.877 79.6188 216.299 79.6188Z" fill="#4C6186"/>
<path fill-rule="evenodd" clip-rule="evenodd" d="M116.644 79.6188C117.065 79.6188 117.408 79.9615 117.408 80.3828C117.408 80.8055 117.065 81.1468 116.644 81.1468C116.221 81.1468 115.88 80.8055 115.88 80.3828C115.88 79.9615 116.221 79.6188 116.644 79.6188Z" fill="#4C6186"/>
<path fill-rule="evenodd" clip-rule="evenodd" d="M229.337 79.6188C229.76 79.6188 230.101 79.9615 230.101 80.3828C230.101 80.8055 229.76 81.1468 229.337 81.1468C228.916 81.1468 228.573 80.8055 228.573 80.3828C228.573 79.9615 228.916 79.6188 229.337 79.6188Z" fill="#4C6186"/>
<path fill-rule="evenodd" clip-rule="evenodd" d="M125.556 79.6188C125.977 79.6188 126.32 79.9615 126.32 80.3828C126.32 80.8055 125.977 81.1468 125.556 81.1468C125.133 81.1468 124.792 80.8055 124.792 80.3828C124.792 79.9615 125.133 79.6188 125.556 79.6188Z" fill="#4C6186"/>
<path fill-rule="evenodd" clip-rule="evenodd" d="M238.249 79.6188C238.672 79.6188 239.015 79.9615 239.015 80.3828C239.015 80.8055 238.672 81.1468 238.249 81.1468C237.828 81.1468 237.485 80.8055 237.485 80.3828C237.485 79.9615 237.828 79.6188 238.249 79.6188Z" fill="#4C6186"/>
<path fill-rule="evenodd" clip-rule="evenodd" d="M162.893 64.7135H225.945V67.3121H199.951V65.7415H163.032L162.893 64.7135Z" fill="#4C6186"/>
<path fill-rule="evenodd" clip-rule="evenodd" d="M164.58 49.8188H204.896V51.3854H164.58V49.8188Z" fill="#4C6186"/>
<path fill-rule="evenodd" clip-rule="evenodd" d="M164.917 50.7255H176.457L174.167 55.1881H162.627L164.917 50.7255Z" fill="#4C6186"/>
<path fill-rule="evenodd" clip-rule="evenodd" d="M173.593 64.1348H227.969V64.7161H173.593V64.1348Z" fill="#A3B9C6"/>
<path fill-rule="evenodd" clip-rule="evenodd" d="M159.777 33.9801H181.761V34.5601H159.777V33.9801Z" fill="#C9D5DC"/>
<path fill-rule="evenodd" clip-rule="evenodd" d="M187.133 41.9841H204.776V42.5641H187.133V41.9841Z" fill="#C9D5DC"/>
<path fill-rule="evenodd" clip-rule="evenodd" d="M163.967 64.8775H175.507L173.217 69.3415H163.155L163.109 66.5481L163.967 64.8775Z" fill="#4C6186"/>
<path d="M165.079 47.6401H168.175V47.1441H165.079V47.6401ZM168.631 47.6401H172.011V47.1441H168.631V47.6401ZM172.436 47.6401H175.848V47.1441H172.436V47.6401ZM176.272 47.6401H179.684V47.1441H176.272V47.6401ZM180.107 47.6401H183.52V47.1441H180.107V47.6401ZM183.944 47.6401H187.071V47.1441H183.944V47.6401ZM165.079 48.4561H168.175V47.9295H165.079V48.4561ZM168.631 48.4561H172.011V47.9295H168.631V48.4561ZM172.436 48.4561H175.848V47.9295H172.436V48.4561ZM176.272 48.4561H179.684V47.9295H176.272V48.4561ZM180.107 48.4561H183.52V47.9295H180.107V48.4561ZM183.944 48.4561H187.071V47.9295H183.944V48.4561ZM165.079 49.0508H168.175V48.7455H165.079V49.0508ZM168.631 49.0508H172.011V48.7455H168.631V49.0508ZM172.436 49.0508H175.848V48.7455H172.436V49.0508ZM176.272 49.0508H179.684V48.7455H176.272V49.0508ZM180.107 49.0508H183.52V48.7455H180.107V49.0508ZM183.944 49.0508H187.071V48.7455H183.944V49.0508ZM187.496 49.3628H187.071V49.3401H168.631V49.3628H168.205V49.3401H164.653V46.8055H165.079V46.8561H168.175V46.8055H168.597V46.8295H168.631V46.8561H172.011V46.8055H172.436V46.8561H175.848V46.8055H176.272V46.8561H179.684V46.8055H180.107V46.8561H183.52V46.8055H183.944V46.8561H187.071V46.8295H187.496V49.3628Z" fill="#231F20"/>
<path fill-rule="evenodd" clip-rule="evenodd" d="M164.58 49.2415H206.665V49.8215H164.58V49.2415Z" fill="#A3B9C6"/>
<path d="M187.652 47.6401H190.748V47.1441H187.652V47.6401ZM191.204 47.6401H194.584V47.1441H191.203L191.204 47.6401ZM195.009 47.6401H198.42V47.1441H195.009V47.6401ZM198.845 47.6401H202.256V47.1441H198.845V47.6401ZM202.68 47.6401H206.093V47.1441H202.68V47.6401ZM187.652 48.4561H190.748V47.9295H187.652V48.4561ZM191.204 48.4561H194.584V47.9295H191.203L191.204 48.4561ZM195.009 48.4561H198.42V47.9295H195.009V48.4561ZM198.845 48.4561H202.256V47.9295H198.845V48.4561ZM202.68 48.4561H206.093V47.9295H202.68V48.4561ZM187.652 49.0508H190.748V48.7455H187.652V49.0508ZM191.204 49.0508H194.584V48.7455H191.203L191.204 49.0508ZM195.009 49.0508H198.42V48.7455H195.009V49.0508ZM198.845 49.0508H202.256V48.7455H198.845V49.0508ZM202.68 49.0508H206.093V48.7455H202.68V49.0508ZM191.203 49.3628H190.779V49.3401H187.228V46.8055H187.652V46.8561H190.748V46.8055H191.172V46.8295H191.203L191.204 46.8561H194.584V46.8055H195.009V46.8561H198.42V46.8055H198.845V46.8561H202.256V46.8055H202.68V46.8561H206.093V46.8055H206.517L206.509 49.3401H191.203V49.3628ZM173.868 62.5188H177.32V62.0228H173.868V62.5188ZM177.747 62.5188H181.197V62.0228H177.747V62.5188ZM181.625 62.5188H185.077V62.0228H181.625V62.5188ZM185.503 62.5188H188.955V62.0228H185.503V62.5188ZM189.38 62.5188H192.832V62.0228H189.38V62.5188ZM193.257 62.5188H196.709V62.0228H193.257V62.5188ZM197.136 62.5188H200.588V62.0228H197.136V62.5188ZM201.015 62.5188H204.467V62.0228H201.015V62.5188ZM204.892 62.5188H208.344V62.0228H204.892V62.5188ZM208.769 62.5188H212.223V62.0228H208.769V62.5188ZM212.648 62.5188H216.1V62.0228H212.648V62.5188ZM216.527 62.5188H219.977V62.0228H216.527V62.5188ZM220.404 62.5188H223.856V62.0228H220.404V62.5188ZM224.281 62.5188H227.447V62.0228H224.281V62.5188ZM173.868 63.3335H177.32V62.8068H173.868V63.3335ZM177.747 63.3335H181.197V62.8068H177.747V63.3335ZM181.625 63.3335H185.077V62.8068H181.625V63.3335ZM185.503 63.3335H188.955V62.8068H185.503V63.3335ZM189.38 63.3335H192.832V62.8068H189.38V63.3335ZM193.257 63.3335H196.709V62.8068H193.257V63.3335ZM197.136 63.3335H200.588V62.8068H197.136V63.3335ZM201.015 63.3335H204.467V62.8068H201.015V63.3335ZM204.892 63.3335H208.344V62.8068H204.892V63.3335ZM208.769 63.3335H212.223V62.8068H208.769V63.3335ZM212.648 63.3335H216.1V62.8068H212.648V63.3335ZM216.527 63.3335H219.977V62.8068H216.527V63.3335ZM220.404 63.3335H223.856V62.8068H220.404V63.3335ZM224.281 63.3335H227.447V62.8068H224.281V63.3335ZM173.868 63.9295H177.32V63.6228H173.868V63.9295ZM177.747 63.9295H181.197V63.6228H177.747V63.9295ZM181.625 63.9295H185.077V63.6228H181.625V63.9295ZM185.503 63.9295H188.955V63.6228H185.503V63.9295ZM189.38 63.9295H192.832V63.6228H189.38V63.9295ZM193.257 63.9295H196.709V63.6228H193.257V63.9295ZM197.136 63.9295H200.588V63.6228H197.136V63.9295ZM201.015 63.9295H204.467V63.6228H201.015V63.9295ZM204.892 63.9295H208.344V63.6228H204.892V63.9295ZM208.769 63.9295H212.223V63.6228H208.769V63.9295ZM212.648 63.9295H216.1V63.6228H212.648V63.9295ZM216.527 63.9295H219.977V63.6228H216.527V63.9295ZM220.404 63.9295H223.856V63.6228H220.404V63.9295ZM224.281 63.9295H227.447V63.6228H224.281V63.9295ZM227.872 64.2415H227.447V64.2188H173.443V61.6855H173.868V61.7335H177.32V61.6841H177.747V61.7335H181.197V61.6841H181.625V61.7335H185.077V61.6841H185.503V61.7335H188.955V61.6841H189.38V61.7335H192.832V61.6841H193.257V61.7335H196.709V61.6841H197.136V61.7335H200.588V61.6841H201.015V61.7335H204.467V61.6841H204.892V61.7335H208.344V61.6841H208.769V61.7335H212.223V61.6841H212.648V61.7335H216.1V61.6841H216.527V61.7335H219.977V61.6841H220.404V61.7335H223.856V61.6855H224.281V61.7335H227.447V61.7068H227.872V64.2415Z" fill="#231F20"/>
<path fill-rule="evenodd" clip-rule="evenodd" d="M224.249 56.4228H225.659V46.0415H224.249V56.4228Z" fill="#7894AE"/>
<path fill-rule="evenodd" clip-rule="evenodd" d="M230.844 51.4374L229.567 52.1575L228.289 52.8761V49.9988L229.567 50.7174L230.844 51.4374Z" fill="#A3B9C6"/>
<path fill-rule="evenodd" clip-rule="evenodd" d="M224.955 51.4375L226.621 53.0468L228.288 54.6561V48.2188L226.621 49.8281L224.955 51.4375Z" fill="#4C6186"/>
<path fill-rule="evenodd" clip-rule="evenodd" d="M228.288 53.0121V48.2188L226.621 49.8281L225.407 51.0001L228.288 53.0121Z" fill="#7894AE"/>
<path fill-rule="evenodd" clip-rule="evenodd" d="M221.559 45.5281H227.581V46.6815H221.559V45.5281Z" fill="#7894AE"/>
<path fill-rule="evenodd" clip-rule="evenodd" d="M166.337 57.1921H168.472V62.2721H166.337V57.1921Z" fill="#4C6186"/>
<path fill-rule="evenodd" clip-rule="evenodd" d="M161.435 60.4081H173.832V64.1348H161.435V60.4081Z" fill="#A3B9C6"/>
<path fill-rule="evenodd" clip-rule="evenodd" d="M161.435 61.3588H173.489V64.7135H161.435V61.3588Z" fill="#7894AE"/>
<path fill-rule="evenodd" clip-rule="evenodd" d="M162.884 60.4081H161.437V64.7135H162.884V60.4081Z" fill="#4C6186"/>
<path fill-rule="evenodd" clip-rule="evenodd" d="M174.148 69.7175H177.74V70.0708H174.148V69.7175Z" fill="#A3B9C6"/>
<path fill-rule="evenodd" clip-rule="evenodd" d="M179.783 68.8014H178.608C177.795 68.8014 177.129 69.4668 177.129 70.2801V71.9988C177.129 72.1961 177.171 72.3841 177.241 72.5561H181.151C181.221 72.3841 181.261 72.1961 181.261 71.9988V70.2801C181.261 69.4668 180.596 68.8014 179.783 68.8014Z" fill="#C9D5DC"/>
<path fill-rule="evenodd" clip-rule="evenodd" d="M177.329 69.5414C177.204 69.7588 177.129 70.0108 177.129 70.2801V71.9988C177.129 72.1961 177.169 72.3841 177.24 72.5561H180.531V70.9148C180.531 70.1015 179.864 69.4348 179.051 69.4348H177.877C177.684 69.4348 177.5 69.4721 177.329 69.5414Z" fill="#A3B9C6"/>
<path fill-rule="evenodd" clip-rule="evenodd" d="M176.925 70.8281H181.46L182.071 72.5174H176.268L176.925 70.8281Z" fill="#A3B9C6"/>
<path fill-rule="evenodd" clip-rule="evenodd" d="M177.075 71.0588H177.407L176.892 72.3601H176.56L177.075 71.0588Z" fill="#7894AE"/>
<path fill-rule="evenodd" clip-rule="evenodd" d="M177.843 71.0588C177.953 71.0588 178.064 71.0588 178.175 71.0588C178.071 71.4935 177.967 71.9268 177.864 72.3601C177.753 72.3601 177.643 72.3601 177.532 72.3601C177.636 71.9268 177.74 71.4935 177.843 71.0588Z" fill="#7894AE"/>
<path fill-rule="evenodd" clip-rule="evenodd" d="M178.611 71.0588C178.721 71.0588 178.832 71.0588 178.943 71.0588C178.907 71.4935 178.871 71.9268 178.835 72.3601C178.724 72.3601 178.613 72.3601 178.503 72.3601C178.539 71.9268 178.575 71.4935 178.611 71.0588Z" fill="#7894AE"/>
<path fill-rule="evenodd" clip-rule="evenodd" d="M179.379 71.0588C179.488 71.0588 179.599 71.0588 179.709 71.0588C179.741 71.4935 179.773 71.9268 179.805 72.3601C179.695 72.3601 179.584 72.3601 179.473 72.3601C179.441 71.9268 179.409 71.4935 179.379 71.0588Z" fill="#7894AE"/>
<path fill-rule="evenodd" clip-rule="evenodd" d="M180.145 71.0588C180.256 71.0588 180.367 71.0588 180.477 71.0588C180.576 71.4935 180.676 71.9268 180.776 72.3601C180.665 72.3601 180.555 72.3601 180.444 72.3601C180.344 71.9268 180.245 71.4935 180.145 71.0588Z" fill="#7894AE"/>
<path fill-rule="evenodd" clip-rule="evenodd" d="M180.912 71.0588H181.244L181.747 72.3601H181.415L180.912 71.0588Z" fill="#7894AE"/>
<path fill-rule="evenodd" clip-rule="evenodd" d="M181.167 57.4935H185.376V60.8041H181.167V57.4935Z" fill="#A3B9C6"/>
<path fill-rule="evenodd" clip-rule="evenodd" d="M181.431 57.1975H185.639V60.5068H181.431V57.1975Z" fill="#4C6186"/>
<path fill-rule="evenodd" clip-rule="evenodd" d="M186.439 57.4935H190.648V60.8041H186.439V57.4935Z" fill="#A3B9C6"/>
<path fill-rule="evenodd" clip-rule="evenodd" d="M186.703 57.1975H190.911V60.5068H186.703V57.1975Z" fill="#4C6186"/>
<path fill-rule="evenodd" clip-rule="evenodd" d="M1.16931 76.0188H324.592V76.5988H1.16931V76.0188Z" fill="#A3B9C6"/>
<path fill-rule="evenodd" clip-rule="evenodd" d="M258.839 57.2095L254.965 58.2988L255.059 58.6321L258.932 57.5428L258.839 57.2095Z" fill="#7894AE"/>
<path fill-rule="evenodd" clip-rule="evenodd" d="M258.239 56.9201L258.72 56.7841L259.052 57.9695L258.572 58.1041L258.239 56.9201Z" fill="#7894AE"/>
<path d="M254.68 56.4388L255.069 57.5388L258.664 55.8014L258.64 55.1308L254.68 56.4388ZM253.204 57.5854L254.781 57.5908L254.407 56.5295L253.315 56.8908L253.204 57.5854ZM254.899 57.9201L254.884 57.8788L252.865 57.8721L253.057 56.6721L258.917 54.7374L258.959 55.9775L258.873 56.0201L255.165 57.8121L255.169 57.8241L254.899 57.9201Z" fill="#7894AE"/>
<path d="M255.336 64.1041L255.747 64.7561V64.1041H255.336ZM255.052 65.4014L255.747 66.1761V65.4014H255.052ZM254.773 66.6975L255.747 67.5335V66.6975H254.773ZM254.528 67.9935L255.747 68.8641V67.9935H254.528ZM254.253 69.2908L255.747 70.1868V69.2908H254.253ZM254.091 70.5841L255.747 71.4908V70.5841H254.091ZM253.791 71.8788L255.747 72.8028V71.8788H253.791ZM255.891 73.1735C255.869 73.1735 255.849 73.1681 255.829 73.1588L253.087 71.8641C253.027 71.8361 252.993 71.7681 253.008 71.7028C253.023 71.6375 253.081 71.5895 253.148 71.5895H255.328L253.46 70.5668C253.403 70.5348 253.372 70.4681 253.389 70.4055C253.405 70.3415 253.463 70.2961 253.528 70.2961H255.371L253.66 69.2695C253.604 69.2361 253.579 69.1695 253.595 69.1068C253.613 69.0455 253.669 69.0014 253.735 69.0014H255.444L253.996 67.9668C253.945 67.9295 253.923 67.8641 253.943 67.8055C253.961 67.7455 254.017 67.7041 254.08 67.7041H255.504L254.292 66.6628C254.247 66.6241 254.229 66.5601 254.251 66.5041C254.271 66.4468 254.325 66.4095 254.385 66.4095H255.569L254.624 65.3535C254.585 65.3095 254.576 65.2508 254.599 65.1975C254.623 65.1455 254.673 65.1121 254.731 65.1121H255.631L254.953 64.0361C254.925 63.9921 254.924 63.9361 254.949 63.8908C254.975 63.8441 255.024 63.8148 255.076 63.8148H255.891C255.971 63.8148 256.035 63.8801 256.035 63.9601V65.2548C256.035 65.2548 256.035 65.2548 256.035 65.2561V66.5521C256.035 66.5521 256.035 66.5521 256.035 66.5535V67.8481C256.035 67.8495 256.035 67.8495 256.035 67.8495V69.1441C256.035 69.1455 256.035 69.1455 256.035 69.1455V73.0281C256.035 73.0788 256.009 73.1241 255.968 73.1495C255.944 73.1655 255.917 73.1735 255.891 73.1735Z" fill="#7894AE"/>
<path fill-rule="evenodd" clip-rule="evenodd" d="M258.796 51.9281C259.069 51.9281 259.291 51.9708 259.291 52.0241V56.0575C259.291 56.1108 259.069 56.1535 258.796 56.1535C258.523 56.1535 258.301 56.1108 258.301 56.0575V52.0241C258.301 51.9708 258.523 51.9281 258.796 51.9281Z" fill="#7894AE"/>
<path fill-rule="evenodd" clip-rule="evenodd" d="M221.249 49.6961H226.909V53.1801H221.249V49.6961Z" fill="#4C6186"/>
<path fill-rule="evenodd" clip-rule="evenodd" d="M221.249 49.6961H226.909V52.1921H221.249V49.6961Z" fill="#7894AE"/>
<path fill-rule="evenodd" clip-rule="evenodd" d="M209.693 36.6228L208.416 37.3428L207.139 38.0628V35.1855L208.416 35.9041L209.693 36.6228Z" fill="#A3B9C6"/>
<path fill-rule="evenodd" clip-rule="evenodd" d="M203.804 36.6228L205.471 38.2321L207.139 39.8415V33.4055L205.471 35.0135L203.804 36.6228Z" fill="#4C6186"/>
<path fill-rule="evenodd" clip-rule="evenodd" d="M207.139 38.1988V33.4055L205.471 35.0135L204.256 36.1868L207.139 38.1988Z" fill="#7894AE"/>
<path fill-rule="evenodd" clip-rule="evenodd" d="M200.099 34.8828H205.759V38.3655H200.099V34.8828Z" fill="#4C6186"/>
<path fill-rule="evenodd" clip-rule="evenodd" d="M200.099 34.8828H205.759V37.3788H200.099V34.8828Z" fill="#7894AE"/>
<path fill-rule="evenodd" clip-rule="evenodd" d="M179.665 26.2215H181.761V33.9801H179.665V26.2215Z" fill="#7894AE"/>
</svg>
