<svg width="512" height="512" viewBox="0 0 512 512" fill="none" xmlns="http://www.w3.org/2000/svg">
<g clip-path="url(#clip0_48_2)">
<path d="M256 0C205.368 0 155.873 15.0141 113.774 43.1438C71.6751 71.2734 38.863 111.255 19.487 158.033C0.110921 204.811 -4.95873 256.284 4.91908 305.943C14.7969 355.602 39.1785 401.217 74.9808 437.019C110.783 472.822 156.398 497.203 206.057 507.081C255.716 516.959 307.189 511.889 353.967 492.513C400.745 473.137 440.727 440.325 468.856 398.226C496.986 356.127 512 306.632 512 256C511.927 188.127 484.932 123.055 436.938 75.0618C388.945 27.0683 323.873 0.0734097 256 0ZM288 445.12V384H224V445.12C184.772 438.409 148.591 419.692 120.45 391.551C92.3079 363.409 73.5909 327.229 66.8801 288H128V224H66.8801C73.5909 184.771 92.3079 148.591 120.45 120.45C148.591 92.3078 184.772 73.5908 224 66.88V128H288V66.88C327.234 73.579 363.42 92.2921 391.564 120.436C419.708 148.58 438.421 184.766 445.12 224H384V288H445.12C438.421 327.234 419.708 363.42 391.564 391.564C363.42 419.708 327.234 438.421 288 445.12ZM288 224H341.333V288H288V341.333H224V288H170.667V224H224V170.667H288V224Z" fill="white"/>
</g>
<defs>
<clipPath id="clip0_48_2">
<rect width="512" height="512" fill="white"/>
</clipPath>
</defs>
</svg>
