<svg width="512" height="512" viewBox="0 0 512 512" fill="none" xmlns="http://www.w3.org/2000/svg">
<path d="M281 445.12V453.417L289.178 452.02C329.841 445.077 367.345 425.683 396.514 396.514C425.683 367.345 445.077 329.841 452.02 289.178L453.417 281H445.12H391V231H445.12H453.417L452.02 222.822C445.077 182.159 425.683 144.655 396.514 115.486C367.345 86.3174 329.841 66.9228 289.178 59.9799L281 58.5835V66.88V121H231V66.88V58.5808L222.82 59.9802C182.163 66.9353 144.666 86.3336 115.5 115.5C86.3337 144.666 66.9354 182.163 59.9804 222.82L58.581 231H66.8801H121V281H66.8801H58.581L59.9804 289.18C66.9354 329.837 86.3337 367.334 115.5 396.5C144.666 425.666 182.163 445.065 222.82 452.02L231 453.419V445.12V391H281V445.12ZM281 224V231H288H334.333V281H288H281V288V334.333H231V288V281H224H177.667V231H224H231V224V177.667H281V224ZM117.663 48.9641C158.61 21.6043 206.75 7.00071 255.997 7C322.014 7.07245 385.307 33.3299 431.989 80.0115C478.671 126.694 504.929 189.989 505 256.008C504.999 305.253 490.395 353.391 463.036 394.337C435.676 435.285 396.787 467.2 351.288 486.046C305.79 504.892 255.724 509.823 207.423 500.216C159.121 490.608 114.754 466.893 79.9305 432.07C45.1073 397.246 21.3923 352.879 11.7846 304.577C2.17686 256.276 7.10789 206.211 25.9541 160.712C44.8003 115.213 76.7153 76.3245 117.663 48.9641Z" fill="white" stroke="#484848" stroke-width="14"/>
</svg>
