<svg width="286" height="60" viewBox="0 0 286 60" fill="none" xmlns="http://www.w3.org/2000/svg">
<path fill-rule="evenodd" clip-rule="evenodd" d="M179.363 0.315983C179.5 0.315983 179.612 0.462641 179.612 0.641308V16.036C179.612 16.2146 179.5 16.3613 179.363 16.3613C179.225 16.3613 179.115 16.2146 179.115 16.036V0.641308C179.115 0.462641 179.225 0.315983 179.363 0.315983Z" fill="#4D6987"/>
<path fill-rule="evenodd" clip-rule="evenodd" d="M178.461 2.36537H180.264V2.56537H178.461V2.36537Z" fill="#4D6987"/>
<path fill-rule="evenodd" clip-rule="evenodd" d="M184.839 2.05199C184.975 2.05199 185.087 2.18264 185.087 2.34264V16.072C185.087 16.2306 184.975 16.3613 184.839 16.3613C184.701 16.3613 184.589 16.2306 184.589 16.072V2.34264C184.589 2.18264 184.701 2.05199 184.839 2.05199Z" fill="#4D6987"/>
<path fill-rule="evenodd" clip-rule="evenodd" d="M184.256 2.36537H185.421V2.56537H184.256V2.36537Z" fill="#4D6987"/>
<path fill-rule="evenodd" clip-rule="evenodd" d="M187.143 1.15065C187.279 1.15065 187.391 1.28933 187.391 1.45866V16.0533C187.391 16.2227 187.279 16.3613 187.143 16.3613C187.005 16.3613 186.893 16.2227 186.893 16.0533V1.45866C186.893 1.28933 187.005 1.15065 187.143 1.15065Z" fill="#4D6987"/>
<path fill-rule="evenodd" clip-rule="evenodd" d="M186.66 1.58533H187.624V3.15466H186.66V1.58533Z" fill="#4D6987"/>
<path fill-rule="evenodd" clip-rule="evenodd" d="M193.887 1.15065C194.024 1.15065 194.135 1.28933 194.135 1.45866V16.0533C194.135 16.2227 194.024 16.3613 193.887 16.3613C193.749 16.3613 193.637 16.2227 193.637 16.0533V1.45866C193.637 1.28933 193.749 1.15065 193.887 1.15065Z" fill="#4D6987"/>
<path fill-rule="evenodd" clip-rule="evenodd" d="M193.06 2.81332H194.713V3.15466H193.06V2.81332Z" fill="#4D6987"/>
<path fill-rule="evenodd" clip-rule="evenodd" d="M192.8 2.01871H194.973V2.36005H192.8V2.01871Z" fill="#4D6987"/>
<path fill-rule="evenodd" clip-rule="evenodd" d="M194.645 1.62002H194.973V2.02002H194.645V1.62002Z" fill="#4D6987"/>
<path fill-rule="evenodd" clip-rule="evenodd" d="M196.779 2.53998C196.915 2.53998 197.027 2.66665 197.027 2.81999V16.0813C197.027 16.236 196.915 16.3613 196.779 16.3613C196.641 16.3613 196.529 16.236 196.529 16.0813V2.81999C196.529 2.66665 196.641 2.53998 196.779 2.53998Z" fill="#4D6987"/>
<path fill-rule="evenodd" clip-rule="evenodd" d="M189.8 0C189.871 0 189.928 0.147997 189.928 0.330664V16.0293C189.928 16.212 189.871 16.3613 189.8 16.3613C189.729 16.3613 189.671 16.212 189.671 16.0293V0.330664C189.671 0.147997 189.729 0 189.8 0Z" fill="#4D6987"/>
<path fill-rule="evenodd" clip-rule="evenodd" d="M189.391 2.36537H190.208V2.56537H189.391V2.36537Z" fill="#4D6987"/>
<path fill-rule="evenodd" clip-rule="evenodd" d="M231.525 22.7173L231.953 22.72C232.179 22.7213 232.36 22.9067 232.359 23.132L232.347 24.8947C232.344 25.12 232.159 25.3013 231.933 25.3L231.507 25.2973C231.281 25.296 231.099 25.1093 231.1 24.884L231.113 23.124C231.116 22.8987 231.3 22.7147 231.525 22.7173Z" fill="#39506E"/>
<path fill-rule="evenodd" clip-rule="evenodd" d="M253.908 22.7933L254.335 22.8147C254.56 22.8267 254.735 23.02 254.723 23.2453L254.633 25.004C254.621 25.2293 254.428 25.404 254.203 25.392L253.776 25.3706C253.552 25.3586 253.377 25.1653 253.388 24.94L253.479 23.1813C253.491 22.9573 253.684 22.7827 253.908 22.7933Z" fill="#39506E"/>
<path fill-rule="evenodd" clip-rule="evenodd" d="M256.049 22.9027L256.476 22.9254C256.7 22.936 256.875 23.1294 256.864 23.3547L256.773 25.1147C256.763 25.3387 256.568 25.5134 256.344 25.5014L255.917 25.48C255.692 25.468 255.517 25.276 255.529 25.0507L255.62 23.2907C255.631 23.0667 255.824 22.892 256.049 22.9027Z" fill="#39506E"/>
<path fill-rule="evenodd" clip-rule="evenodd" d="M100.087 26.556L100.511 26.5053C100.733 26.4786 100.939 26.64 100.965 26.8627L101.175 28.612C101.203 28.836 101.041 29.04 100.817 29.068L100.393 29.1173C100.171 29.1453 99.9653 28.984 99.9387 28.76L99.7293 27.012C99.7013 26.788 99.8627 26.5827 100.087 26.556Z" fill="#39506E"/>
<path fill-rule="evenodd" clip-rule="evenodd" d="M79.0427 29.1147L79.4667 29.0653C79.6907 29.04 79.8947 29.2013 79.92 29.4253L80.1227 31.1746C80.148 31.3986 79.9853 31.6027 79.7613 31.6293L79.3373 31.6773C79.1147 31.7026 78.9107 31.5413 78.884 31.3173L78.6827 29.568C78.6573 29.344 78.8187 29.14 79.0427 29.1147Z" fill="#39506E"/>
<path fill-rule="evenodd" clip-rule="evenodd" d="M81.172 28.8693L81.596 28.82C81.82 28.7947 82.024 28.956 82.0507 29.18L82.252 30.9294C82.2774 31.1547 82.116 31.3574 81.892 31.384L81.468 31.432C81.244 31.4587 81.0401 31.296 81.0147 31.072L80.8121 29.3227C80.7867 29.0987 80.948 28.8947 81.172 28.8693Z" fill="#39506E"/>
<path fill-rule="evenodd" clip-rule="evenodd" d="M126.772 24.7507L127.197 24.7213C127.423 24.7067 127.619 24.8774 127.635 25.1014L127.757 26.8587C127.773 27.084 127.601 27.28 127.377 27.296L126.951 27.3253C126.727 27.3413 126.531 27.1707 126.515 26.9453L126.392 25.188C126.377 24.964 126.548 24.7667 126.772 24.7507Z" fill="#39506E"/>
<path fill-rule="evenodd" clip-rule="evenodd" d="M128.911 24.6027L129.336 24.5734C129.561 24.5574 129.757 24.728 129.773 24.9534L129.896 26.7107C129.912 26.9347 129.74 27.1307 129.516 27.1467L129.089 27.176C128.865 27.192 128.668 27.0214 128.653 26.7974L128.531 25.04C128.515 24.8147 128.687 24.6187 128.911 24.6027Z" fill="#39506E"/>
<path fill-rule="evenodd" clip-rule="evenodd" d="M149.888 23.3947H150.315C150.54 23.3947 150.724 23.5787 150.724 23.804V25.5654C150.724 25.7907 150.54 25.9747 150.315 25.9747H149.888C149.663 25.9747 149.479 25.7907 149.479 25.5654V23.804C149.479 23.5787 149.663 23.3947 149.888 23.3947Z" fill="#39506E"/>
<path fill-rule="evenodd" clip-rule="evenodd" d="M152.032 23.3947H152.459C152.684 23.3947 152.868 23.5787 152.868 23.804V25.5654C152.868 25.7907 152.684 25.9747 152.459 25.9747H152.032C151.807 25.9747 151.623 25.7907 151.623 25.5654V23.804C151.623 23.5787 151.807 23.3947 152.032 23.3947Z" fill="#39506E"/>
<path d="M141.275 25.124L141.269 21.692H141.559L141.564 25.124H141.275ZM158.989 25.124L158.984 21.692H159.273L159.279 25.124H158.989ZM173.929 25.124L173.925 21.692H174.213L174.219 25.124H173.929ZM186.392 25.124L186.387 21.692H186.676L186.681 25.124H186.392ZM121.852 26.396L121.528 23.2026L121.815 23.1733L122.139 26.368L121.852 26.396ZM102.808 27.8293L102.469 24.8026L102.756 24.7706L103.093 27.796L102.808 27.8293ZM84.8053 29.708L84.4387 27.3253L84.7227 27.2813L85.0893 29.664L84.8053 29.708ZM66.7747 32.224L66.4093 29.8427L66.6933 29.7987L67.0587 32.18L66.7747 32.224Z" fill="#231F20"/>
<path fill-rule="evenodd" clip-rule="evenodd" d="M160.331 27.1733C168.247 19.8587 178.232 14.7027 191.556 13.0254C199.579 11.868 206.075 12.5734 211.56 14.7334C213.924 15.664 214.377 17.0827 214.487 18.392C214.773 21.828 216.976 23.8653 219.365 25.7107C199.688 26.1973 180.009 26.6853 160.331 27.1733Z" fill="#4D6987"/>
<path fill-rule="evenodd" clip-rule="evenodd" d="M165.415 28.2547C172.519 20.94 181.48 15.7827 193.436 14.1053C200.636 12.948 206.465 13.6547 211.388 15.8134C213.509 16.744 213.917 18.164 214.015 19.472C214.272 22.908 216.248 24.9454 218.393 26.7907C200.733 27.2787 183.075 27.7667 165.415 28.2547Z" fill="#6987A1"/>
<path d="M195.64 24.2573L195.611 21.3587L195.9 21.356L195.928 24.2547L195.64 24.2573ZM208.643 24.2573L208.613 21.3587L208.903 21.356L208.931 24.2547L208.643 24.2573ZM221.645 24.2573L221.616 21.3587L221.905 21.356L221.933 24.2547L221.645 24.2573ZM234.648 24.2573L234.619 21.3587L234.908 21.356L234.936 24.2547L234.648 24.2573ZM247.649 24.2573L247.621 21.3587L247.911 21.356L247.939 24.2547L247.649 24.2573ZM260.288 24.796L260.26 21.8974L260.549 21.8947L260.577 24.7934L260.288 24.796Z" fill="#231F20"/>
<path fill-rule="evenodd" clip-rule="evenodd" d="M183.159 19.148C186.72 17.4827 190.649 16.2773 195.009 15.616C201.66 14.4587 207.045 15.164 211.592 17.3227C212.683 17.8414 213.283 18.5107 213.617 19.228L213.503 19.1854C207.683 17.0267 200.788 16.32 192.275 17.4773C189.057 17.8587 186.024 18.4213 183.159 19.148Z" fill="#8CABBA"/>
<path fill-rule="evenodd" clip-rule="evenodd" d="M20.3827 59.268V20.368H28.3107C29.1053 20.368 29.788 20.7667 30.1773 21.46L37.82 35.0453C38.2227 35.7627 38.9427 36.1667 39.7653 36.136L53.904 35.6147C49.6813 40.3427 45.4573 45.0707 41.2347 49.7987C38.504 50.148 35.964 50.8334 34.7587 53.8534C34.1413 55.2174 33.5227 56.5827 32.9053 57.9453C32.552 58.7253 31.8227 59.2 30.9667 59.204L20.3827 59.268Z" fill="#4D6987"/>
<path fill-rule="evenodd" clip-rule="evenodd" d="M0.364006 43.2027C34.1707 38.104 71.0027 30.3747 101.785 27.9054C114.957 26.8494 144.449 24.7547 151.623 24.684L240.812 23.8187C250.643 23.724 261.697 24.3187 269.937 25.8814C295.656 30.756 288.121 56.3347 261.224 57.0894L249.371 57.4227L138.347 58.8067C123.948 58.9867 101.485 58.0694 82.7573 56.2027C57.124 53.6494 28.8507 48.8494 0.365341 44.0494C0.154674 44.0147 8.62854e-06 43.84 8.62854e-06 43.6267C-0.0013247 43.4134 0.152006 43.2347 0.364006 43.2027Z" fill="#4D6987"/>
<path fill-rule="evenodd" clip-rule="evenodd" d="M0.364006 43.2027C34.1707 38.104 71.0027 30.3747 101.785 27.9053C114.957 26.8493 144.449 24.7547 151.623 24.684L240.812 23.8187C250.643 23.724 261.697 24.3187 269.937 25.8814C281.74 28.1174 286.533 34.716 285.673 41.2734C283.244 48.1854 274.149 54.4827 260.112 54.852L247.453 55.184L128.888 56.568C113.512 56.748 89.524 55.8307 69.524 53.964C60.1307 53.088 50.404 51.9467 40.452 50.632C27.3093 48.5974 13.8613 46.324 0.365341 44.0494C0.154674 44.0147 8.62854e-06 43.84 8.62854e-06 43.6267C-0.0013247 43.4134 0.152006 43.2347 0.364006 43.2027Z" fill="#39506E"/>
<path fill-rule="evenodd" clip-rule="evenodd" d="M0.617355 43.164C34.356 38.0654 71.08 30.3693 101.785 27.9053C114.957 26.8493 144.449 24.7547 151.623 24.684L240.812 23.8187C250.643 23.724 261.697 24.3187 269.937 25.8813C274.245 26.6973 277.615 28.0974 280.121 29.8614C284.12 39.0187 274.788 51.02 256.491 51.5334L244.637 51.8654L133.612 53.2493C119.213 53.4293 96.752 52.512 78.024 50.6453C54.6133 48.3147 26.94 47.0267 0.617355 43.164Z" fill="#4D6987"/>
<path fill-rule="evenodd" clip-rule="evenodd" d="M3.95203 43.4787C41.148 38.18 67.796 32.6507 98.5014 30.188C111.672 29.132 140.333 26.812 147.507 26.7427L236.696 25.8773C246.525 25.7813 257.621 26.1747 265.821 27.9387C282.037 31.4293 277.789 46.5027 252.58 47.2107L240.727 47.544L129.701 48.9267C115.303 49.1067 92.84 48.1893 74.112 46.324C50.7027 43.992 24.3134 44.3627 3.95203 43.4787Z" fill="#6987A1"/>
<path fill-rule="evenodd" clip-rule="evenodd" d="M3.95203 42.6533C4.82803 42.5173 5.7067 42.38 6.58803 42.2413V45.0974L3.95203 44.6533V42.6533Z" fill="#CA7731"/>
<path fill-rule="evenodd" clip-rule="evenodd" d="M3.95203 42.6533L5.35069 42.436L5.38136 42.4307L5.39202 42.4293L6.58803 42.2413V43.9933C5.70803 43.8773 4.82936 43.7587 3.95203 43.6373V42.6533Z" fill="#E5962E"/>
<path fill-rule="evenodd" clip-rule="evenodd" d="M20.384 26.4H27.0493C27.4787 26.4 27.8293 26.7507 27.8293 27.18V37.2027C27.8293 37.632 27.4787 37.9827 27.0493 37.9827H20.384V26.4Z" fill="#39506E"/>
<path fill-rule="evenodd" clip-rule="evenodd" d="M34.7187 34.196H33.048C32.772 34.196 32.5467 34.4214 32.5467 34.6974V36.368C32.5467 36.6427 32.772 36.8693 33.048 36.8693H34.7187C34.9947 36.8693 35.22 36.6427 35.22 36.368V34.6974C35.22 34.4214 34.9947 34.196 34.7187 34.196Z" fill="#39506E"/>
<path fill-rule="evenodd" clip-rule="evenodd" d="M20.384 26.8773H26.7214C27.1147 26.8773 27.4374 27.1987 27.4374 27.592V36.7894C27.4374 37.184 27.1147 37.5053 26.7214 37.5053H20.384V26.8773Z" fill="#8CABBA"/>
<path fill-rule="evenodd" clip-rule="evenodd" d="M20.3827 27.3147H26.4C26.76 27.3147 27.0547 27.6227 27.0547 28V36.82C27.0547 37.1974 26.76 37.5053 26.4 37.5053H20.3827V27.3147Z" fill="#4D6987"/>
<path fill-rule="evenodd" clip-rule="evenodd" d="M34.9573 33.992H33.2867C33.1054 33.992 32.9467 34.088 32.8573 34.2334C32.916 34.2094 32.9814 34.196 33.048 34.196H34.7187C34.9947 34.196 35.22 34.4213 35.22 34.6973V36.368C35.22 36.4627 35.192 36.5507 35.1467 36.6267C35.328 36.5507 35.4587 36.372 35.4587 36.1627V34.492C35.4587 34.2173 35.2333 33.992 34.9573 33.992Z" fill="#8CABBA"/>
<path fill-rule="evenodd" clip-rule="evenodd" d="M33.244 34.196H34.772C35.024 34.196 35.2293 34.4027 35.2293 34.6547V36.1827C35.2293 36.4347 35.024 36.64 34.772 36.64H33.244C32.992 36.64 32.7854 36.4347 32.7854 36.1827V34.6547C32.7854 34.4027 32.992 34.196 33.244 34.196Z" fill="#4D6987"/>
<path fill-rule="evenodd" clip-rule="evenodd" d="M16.764 43.5267H19.144C19.2307 43.5267 19.3027 43.5973 19.3027 43.684V44.0053C19.3027 44.0933 19.2307 44.1653 19.144 44.1653H16.764C16.676 44.1653 16.6053 44.0933 16.6053 44.0053V43.684C16.6053 43.5973 16.676 43.5267 16.764 43.5267Z" fill="#E5962E"/>
<path fill-rule="evenodd" clip-rule="evenodd" d="M18.0134 44.0267C17.7787 43.6947 16.9907 41.8333 17.8334 41.672C17.944 41.6507 18.0507 41.7 18.1067 41.7973C18.4827 42.4533 18.492 43.188 18.0134 44.0267Z" fill="#CA7731"/>
<path fill-rule="evenodd" clip-rule="evenodd" d="M17.8213 43.7573C18.056 44.0907 18.844 45.9507 18.0013 46.112C17.8907 46.1347 17.784 46.0853 17.728 45.9867C17.352 45.332 17.344 44.596 17.8213 43.7573Z" fill="#F7B859"/>
<path fill-rule="evenodd" clip-rule="evenodd" d="M6.58803 42.2413L5.24936 38.9693C4.92402 38.1773 3.95203 38.3373 3.95203 39.3827V42.6534L6.58803 42.2413Z" fill="#F7B859"/>
<path fill-rule="evenodd" clip-rule="evenodd" d="M4.00002 39.008C3.96936 39.1173 3.95203 39.2413 3.95203 39.3827V42.6534L6.26669 42.2907L5.05203 39.324C4.83203 38.7854 4.31069 38.6867 4.00002 39.008Z" fill="#CA7731"/>
<path fill-rule="evenodd" clip-rule="evenodd" d="M6.58803 45.0654L5.24936 48.336C4.92402 49.1293 3.95203 48.9693 3.95203 47.924V44.652L6.58803 45.0654Z" fill="#CA7731"/>
<path fill-rule="evenodd" clip-rule="evenodd" d="M4.27735 48.7227C4.08935 48.584 3.95203 48.316 3.95203 47.924V44.652L6.18269 45.0014L4.86135 48.2267C4.73469 48.5387 4.50669 48.7014 4.27735 48.7227Z" fill="#F7B859"/>
<path fill-rule="evenodd" clip-rule="evenodd" d="M140.441 29.5027H137.897C137.811 29.5027 137.74 29.5734 137.74 29.66V30.9614C137.74 31.048 137.811 31.1174 137.897 31.1174H140.441C140.528 31.1174 140.599 31.048 140.599 30.9614V29.66C140.599 29.5734 140.528 29.5027 140.441 29.5027Z" fill="#8CABBA"/>
<path fill-rule="evenodd" clip-rule="evenodd" d="M140.56 29.3053H138.016C137.929 29.3053 137.859 29.376 137.859 29.4614V30.7627C137.859 30.8494 137.929 30.92 138.016 30.92H140.56C140.647 30.92 140.717 30.8494 140.717 30.7627V29.4614C140.717 29.376 140.647 29.3053 140.56 29.3053Z" fill="#39506E"/>
<path fill-rule="evenodd" clip-rule="evenodd" d="M136.764 29.5027H134.219C134.133 29.5027 134.063 29.5734 134.063 29.66V30.9614C134.063 31.048 134.133 31.1174 134.219 31.1174H136.764C136.849 31.1174 136.92 31.048 136.92 30.9614V29.66C136.92 29.5734 136.849 29.5027 136.764 29.5027Z" fill="#8CABBA"/>
<path fill-rule="evenodd" clip-rule="evenodd" d="M136.883 29.3053H134.337C134.252 29.3053 134.181 29.376 134.181 29.4614V30.7627C134.181 30.8494 134.252 30.92 134.337 30.92H136.883C136.968 30.92 137.039 30.8494 137.039 30.7627V29.4614C137.039 29.376 136.968 29.3053 136.883 29.3053Z" fill="#39506E"/>
<path fill-rule="evenodd" clip-rule="evenodd" d="M99.372 30.336H97.6293C97.5707 30.336 97.5227 30.384 97.5227 30.4427V31.3334C97.5227 31.392 97.5707 31.44 97.6293 31.44H99.372C99.4307 31.44 99.4787 31.392 99.4787 31.3334V30.4427C99.4787 30.384 99.4307 30.336 99.372 30.336Z" fill="#8CABBA"/>
<path fill-rule="evenodd" clip-rule="evenodd" d="M99.5187 30.188H97.7774C97.7187 30.188 97.6694 30.236 97.6694 30.2947V31.1867C97.6694 31.2453 97.7187 31.2933 97.7774 31.2933H99.5187C99.5787 31.2933 99.6267 31.2453 99.6267 31.1867V30.2947C99.6267 30.236 99.5787 30.188 99.5187 30.188Z" fill="#39506E"/>
<path fill-rule="evenodd" clip-rule="evenodd" d="M96.1973 30.336H94.4546C94.396 30.336 94.348 30.384 94.348 30.4427V31.3334C94.348 31.392 94.396 31.44 94.4546 31.44H96.1973C96.256 31.44 96.304 31.392 96.304 31.3334V30.4427C96.304 30.384 96.256 30.336 96.1973 30.336Z" fill="#8CABBA"/>
<path fill-rule="evenodd" clip-rule="evenodd" d="M96.344 30.188H94.6027C94.544 30.188 94.4947 30.236 94.4947 30.2947V31.1867C94.4947 31.2453 94.544 31.2933 94.6027 31.2933H96.344C96.404 31.2933 96.452 31.2453 96.452 31.1867V30.2947C96.452 30.236 96.404 30.188 96.344 30.188Z" fill="#39506E"/>
<path fill-rule="evenodd" clip-rule="evenodd" d="M93.0227 30.336H91.2814C91.2214 30.336 91.1734 30.384 91.1734 30.4427V31.3334C91.1734 31.392 91.2214 31.44 91.2814 31.44H93.0227C93.0827 31.44 93.1307 31.392 93.1307 31.3334V30.4427C93.1307 30.384 93.0827 30.336 93.0227 30.336Z" fill="#8CABBA"/>
<path fill-rule="evenodd" clip-rule="evenodd" d="M93.1707 30.188H91.428C91.3693 30.188 91.3213 30.236 91.3213 30.2947V31.1867C91.3213 31.2453 91.3693 31.2933 91.428 31.2933H93.1707C93.2294 31.2933 93.2774 31.2453 93.2774 31.1867V30.2947C93.2774 30.236 93.2294 30.188 93.1707 30.188Z" fill="#39506E"/>
<path fill-rule="evenodd" clip-rule="evenodd" d="M59.9947 34.572L58.2694 34.8107C58.2107 34.8187 58.1694 34.8733 58.1774 34.932L58.3 35.8133C58.308 35.872 58.3627 35.9133 58.4213 35.9053L60.1467 35.6667C60.2054 35.6587 60.2454 35.604 60.2387 35.5453L60.116 34.6627C60.108 34.604 60.0534 34.5627 59.9947 34.572Z" fill="#8CABBA"/>
<path fill-rule="evenodd" clip-rule="evenodd" d="M60.1214 34.4053L58.3947 34.644C58.336 34.652 58.2947 34.7067 58.304 34.7654L58.4254 35.648C58.4347 35.7067 58.488 35.7467 58.5467 35.7387L60.272 35.5C60.3307 35.492 60.372 35.4373 60.364 35.3787L60.2414 34.4974C60.2334 34.4387 60.18 34.3973 60.1214 34.4053Z" fill="#39506E"/>
<path fill-rule="evenodd" clip-rule="evenodd" d="M63.6547 34.0653L61.9294 34.304C61.8707 34.312 61.8294 34.3653 61.8374 34.424L61.96 35.3066C61.968 35.3653 62.0227 35.4067 62.0814 35.3987L63.8067 35.16C63.8654 35.152 63.9067 35.0973 63.8987 35.0386L63.776 34.156C63.768 34.0973 63.7134 34.0573 63.6547 34.0653Z" fill="#8CABBA"/>
<path fill-rule="evenodd" clip-rule="evenodd" d="M63.7814 33.8987L62.0547 34.1373C61.996 34.1453 61.956 34.2 61.964 34.2587L62.0867 35.1413C62.0947 35.2 62.148 35.24 62.2067 35.232L63.932 34.9933C63.9907 34.9853 64.032 34.9307 64.024 34.872L63.9014 33.9893C63.8934 33.932 63.84 33.8907 63.7814 33.8987Z" fill="#39506E"/>
<path fill-rule="evenodd" clip-rule="evenodd" d="M67.316 33.5573L65.5893 33.7974C65.5307 33.8054 65.4907 33.8587 65.4987 33.9173L65.62 34.8C65.6293 34.8587 65.6827 34.9 65.7414 34.892L67.4667 34.6533C67.5254 34.644 67.5667 34.5907 67.5587 34.532L67.436 33.6493C67.428 33.5907 67.3733 33.5493 67.316 33.5573Z" fill="#8CABBA"/>
<path fill-rule="evenodd" clip-rule="evenodd" d="M67.4414 33.392L65.716 33.6307C65.6573 33.6387 65.616 33.6933 65.624 33.752L65.7467 34.6333C65.7547 34.692 65.8094 34.7333 65.8667 34.7253L67.592 34.4867C67.6507 34.4787 67.692 34.424 67.684 34.3653L67.5614 33.484C67.5547 33.4253 67.5 33.384 67.4414 33.392Z" fill="#39506E"/>
<path fill-rule="evenodd" clip-rule="evenodd" d="M70.976 33.0507L69.2493 33.2893C69.1907 33.2987 69.1507 33.352 69.1587 33.4107L69.28 34.2933C69.2894 34.352 69.3427 34.3933 69.4014 34.3853L71.1267 34.1453C71.1854 34.1387 71.2267 34.084 71.2187 34.0253L71.096 33.1427C71.088 33.084 71.0347 33.0427 70.976 33.0507Z" fill="#8CABBA"/>
<path fill-rule="evenodd" clip-rule="evenodd" d="M71.1013 32.8853L69.376 33.124C69.3174 33.132 69.276 33.1867 69.284 33.2453L69.4067 34.128C69.4147 34.1853 69.4693 34.2267 69.528 34.2187L71.2533 33.98C71.312 33.972 71.352 33.9173 71.344 33.8587L71.2227 32.976C71.2147 32.9187 71.16 32.8773 71.1013 32.8853Z" fill="#39506E"/>
<path fill-rule="evenodd" clip-rule="evenodd" d="M74.636 32.544L72.9107 32.784C72.852 32.792 72.8107 32.8453 72.8187 32.904L72.9414 33.7867C72.9494 33.8453 73.004 33.8866 73.0613 33.8773L74.7867 33.6386C74.8453 33.6306 74.8867 33.5773 74.8787 33.5187L74.7573 32.636C74.7493 32.5773 74.6947 32.536 74.636 32.544Z" fill="#8CABBA"/>
<path fill-rule="evenodd" clip-rule="evenodd" d="M74.7613 32.3787L73.036 32.6173C72.9774 32.6253 72.936 32.68 72.944 32.7387L73.0667 33.62C73.0747 33.6787 73.1293 33.72 73.188 33.712L74.9134 33.4733C74.972 33.4653 75.0134 33.4107 75.004 33.352L74.8827 32.4693C74.8747 32.4106 74.82 32.3693 74.7613 32.3787Z" fill="#39506E"/>
<path fill-rule="evenodd" clip-rule="evenodd" d="M78.296 32.0373L76.5707 32.276C76.512 32.284 76.4707 32.3387 76.4787 32.3973L76.6014 33.28C76.6094 33.3386 76.664 33.38 76.7227 33.3706L78.448 33.132C78.5067 33.124 78.5467 33.0693 78.5387 33.012L78.4173 32.1293C78.4093 32.0707 78.3547 32.0293 78.296 32.0373Z" fill="#8CABBA"/>
<path fill-rule="evenodd" clip-rule="evenodd" d="M78.4213 31.872L76.696 32.1106C76.6374 32.1186 76.596 32.172 76.6054 32.2307L76.7267 33.1133C76.7347 33.172 76.7894 33.2133 76.848 33.2053L78.5734 32.9667C78.632 32.9573 78.6734 32.904 78.6654 32.8453L78.5427 31.9627C78.5347 31.904 78.48 31.8626 78.4213 31.872Z" fill="#39506E"/>
<path fill-rule="evenodd" clip-rule="evenodd" d="M202.875 17.648H214.379C214.345 17.4987 214.304 17.3494 214.253 17.2014H202.875V17.648ZM174.652 17.648H186.364V17.2014H175.673C175.331 17.348 174.991 17.496 174.652 17.648Z" fill="#8CABBA"/>
<path fill-rule="evenodd" clip-rule="evenodd" d="M230.939 37.5413H234.224C234.767 37.5413 235.211 37.0987 235.211 36.556V33.2706C235.211 32.728 234.767 32.284 234.224 32.284H230.939C230.396 32.284 229.953 32.728 229.953 33.2706V36.556C229.953 37.0987 230.396 37.5413 230.939 37.5413Z" fill="#39506E"/>
<path fill-rule="evenodd" clip-rule="evenodd" d="M230.469 37.944H233.756C234.112 37.944 234.425 37.7534 234.597 37.468C234.483 37.516 234.357 37.5413 234.224 37.5413H230.939C230.396 37.5413 229.953 37.0987 229.953 36.556V33.2707C229.953 33.084 230.007 32.9107 230.097 32.7614C229.739 32.9094 229.484 33.2627 229.484 33.672V36.9587C229.484 37.5 229.928 37.944 230.469 37.944Z" fill="#8CABBA"/>
<path fill-rule="evenodd" clip-rule="evenodd" d="M230.855 37.5413H233.86C234.356 37.5413 234.761 37.136 234.761 36.64V33.6347C234.761 33.1387 234.356 32.7333 233.86 32.7333H230.855C230.359 32.7333 229.953 33.1387 229.953 33.6347V36.64C229.953 37.136 230.359 37.5413 230.855 37.5413Z" fill="#6987A1"/>
<path fill-rule="evenodd" clip-rule="evenodd" d="M49.9533 37.7907C65.992 35.276 81.0267 33.1307 97.1827 31.8347C110.355 30.7787 139.016 28.4587 146.188 28.3893L235.379 27.524C245.208 27.4293 256.304 27.8213 264.504 29.5853C269.009 30.556 271.931 32.42 273.267 34.6213C271.664 33.4533 269.436 32.4973 266.579 31.892C258.257 30.1267 246.997 29.7347 237.021 29.8307L146.508 30.696C139.228 30.7654 106.024 32.2613 92.6573 33.3173C78.2507 34.456 64.4053 35.9693 49.9533 37.7907Z" fill="#8CABBA"/>
<path fill-rule="evenodd" clip-rule="evenodd" d="M171.568 27.7094H169.023C168.937 27.7094 168.867 27.78 168.867 27.8654V29.1667C168.867 29.2534 168.937 29.324 169.023 29.324H171.568C171.653 29.324 171.724 29.2534 171.724 29.1667V27.8654C171.724 27.78 171.653 27.7094 171.568 27.7094Z" fill="#8CABBA"/>
<path fill-rule="evenodd" clip-rule="evenodd" d="M171.687 27.5107H169.141C169.056 27.5107 168.985 27.5813 168.985 27.668V28.9693C168.985 29.0546 169.056 29.1253 169.141 29.1253H171.687C171.772 29.1253 171.843 29.0546 171.843 28.9693V27.668C171.843 27.5813 171.772 27.5107 171.687 27.5107Z" fill="#39506E"/>
<path fill-rule="evenodd" clip-rule="evenodd" d="M167.889 27.7094H165.345C165.259 27.7094 165.188 27.78 165.188 27.8654V29.1667C165.188 29.2534 165.259 29.324 165.345 29.324H167.889C167.976 29.324 168.047 29.2534 168.047 29.1667V27.8654C168.047 27.78 167.976 27.7094 167.889 27.7094Z" fill="#8CABBA"/>
<path fill-rule="evenodd" clip-rule="evenodd" d="M168.008 27.5107H165.464C165.377 27.5107 165.307 27.5813 165.307 27.668V28.9693C165.307 29.0546 165.377 29.1253 165.464 29.1253H168.008C168.095 29.1253 168.165 29.0546 168.165 28.9693V27.668C168.165 27.5813 168.095 27.5107 168.008 27.5107Z" fill="#39506E"/>
<path fill-rule="evenodd" clip-rule="evenodd" d="M186.357 27.7094H183.813C183.727 27.7094 183.656 27.78 183.656 27.8654V29.1667C183.656 29.2534 183.727 29.324 183.813 29.324H186.357C186.444 29.324 186.515 29.2534 186.515 29.1667V27.8654C186.515 27.78 186.444 27.7094 186.357 27.7094Z" fill="#8CABBA"/>
<path fill-rule="evenodd" clip-rule="evenodd" d="M186.476 27.5107H183.932C183.845 27.5107 183.775 27.5813 183.775 27.668V28.9693C183.775 29.0546 183.845 29.1253 183.932 29.1253H186.476C186.563 29.1253 186.633 29.0546 186.633 28.9693V27.668C186.633 27.5813 186.563 27.5107 186.476 27.5107Z" fill="#39506E"/>
<path fill-rule="evenodd" clip-rule="evenodd" d="M182.68 27.7094H180.135C180.048 27.7094 179.979 27.78 179.979 27.8654V29.1667C179.979 29.2534 180.048 29.324 180.135 29.324H182.68C182.765 29.324 182.836 29.2534 182.836 29.1667V27.8654C182.836 27.78 182.765 27.7094 182.68 27.7094Z" fill="#8CABBA"/>
<path fill-rule="evenodd" clip-rule="evenodd" d="M182.799 27.5107H180.253C180.167 27.5107 180.097 27.5813 180.097 27.668V28.9693C180.097 29.0546 180.167 29.1253 180.253 29.1253H182.799C182.884 29.1253 182.955 29.0546 182.955 28.9693V27.668C182.955 27.5813 182.884 27.5107 182.799 27.5107Z" fill="#39506E"/>
<path fill-rule="evenodd" clip-rule="evenodd" d="M200.207 27.7094H197.663C197.576 27.7094 197.505 27.78 197.505 27.8654V29.1667C197.505 29.2534 197.576 29.324 197.663 29.324H200.207C200.293 29.324 200.363 29.2534 200.363 29.1667V27.8654C200.363 27.78 200.293 27.7094 200.207 27.7094Z" fill="#8CABBA"/>
<path fill-rule="evenodd" clip-rule="evenodd" d="M200.325 27.5107H197.78C197.695 27.5107 197.624 27.5813 197.624 27.668V28.9693C197.624 29.0546 197.695 29.1253 197.78 29.1253H200.325C200.412 29.1253 200.481 29.0546 200.481 28.9693V27.668C200.481 27.5813 200.412 27.5107 200.325 27.5107Z" fill="#39506E"/>
<path fill-rule="evenodd" clip-rule="evenodd" d="M196.528 27.7094H193.984C193.897 27.7094 193.827 27.78 193.827 27.8654V29.1667C193.827 29.2534 193.897 29.324 193.984 29.324H196.528C196.615 29.324 196.685 29.2534 196.685 29.1667V27.8654C196.685 27.78 196.615 27.7094 196.528 27.7094Z" fill="#8CABBA"/>
<path fill-rule="evenodd" clip-rule="evenodd" d="M196.647 27.5107H194.103C194.016 27.5107 193.945 27.5813 193.945 27.668V28.9693C193.945 29.0546 194.016 29.1253 194.103 29.1253H196.647C196.733 29.1253 196.803 29.0546 196.803 28.9693V27.668C196.803 27.5813 196.733 27.5107 196.647 27.5107Z" fill="#39506E"/>
<path fill-rule="evenodd" clip-rule="evenodd" d="M242.385 27.7094H239.84C239.753 27.7094 239.684 27.78 239.684 27.8654V29.1667C239.684 29.2534 239.753 29.324 239.84 29.324H242.385C242.471 29.324 242.541 29.2534 242.541 29.1667V27.8654C242.541 27.78 242.471 27.7094 242.385 27.7094Z" fill="#8CABBA"/>
<path fill-rule="evenodd" clip-rule="evenodd" d="M242.503 27.5107H239.959C239.872 27.5107 239.803 27.5813 239.803 27.668V28.9693C239.803 29.0546 239.872 29.1253 239.959 29.1253H242.503C242.589 29.1253 242.66 29.0546 242.66 28.9693V27.668C242.66 27.5813 242.589 27.5107 242.503 27.5107Z" fill="#39506E"/>
<path fill-rule="evenodd" clip-rule="evenodd" d="M238.707 27.7094H236.161C236.076 27.7094 236.005 27.78 236.005 27.8654V29.1667C236.005 29.2534 236.076 29.324 236.161 29.324H238.707C238.793 29.324 238.863 29.2534 238.863 29.1667V27.8654C238.863 27.78 238.793 27.7094 238.707 27.7094Z" fill="#8CABBA"/>
<path fill-rule="evenodd" clip-rule="evenodd" d="M238.825 27.5107H236.28C236.195 27.5107 236.124 27.5813 236.124 27.668V28.9693C236.124 29.0546 236.195 29.1253 236.28 29.1253H238.825C238.912 29.1253 238.981 29.0546 238.981 28.9693V27.668C238.981 27.5813 238.912 27.5107 238.825 27.5107Z" fill="#39506E"/>
<path fill-rule="evenodd" clip-rule="evenodd" d="M211.251 29.0747H209.525C209.468 29.0747 209.42 29.136 209.42 29.2107V30.3373C209.42 30.412 209.468 30.472 209.525 30.472H211.251C211.309 30.472 211.357 30.412 211.357 30.3373V29.2107C211.357 29.136 211.309 29.0747 211.251 29.0747Z" fill="#8CABBA"/>
<path fill-rule="evenodd" clip-rule="evenodd" d="M211.397 28.8893H209.672C209.613 28.8893 209.565 28.9493 209.565 29.024V30.1507C209.565 30.2253 209.613 30.2853 209.672 30.2853H211.397C211.456 30.2853 211.503 30.2253 211.503 30.1507V29.024C211.503 28.9493 211.456 28.8893 211.397 28.8893Z" fill="#39506E"/>
<path fill-rule="evenodd" clip-rule="evenodd" d="M214.883 29.0747H213.157C213.099 29.0747 213.052 29.136 213.052 29.2107V30.3373C213.052 30.412 213.099 30.472 213.157 30.472H214.883C214.941 30.472 214.989 30.412 214.989 30.3373V29.2107C214.989 29.136 214.941 29.0747 214.883 29.0747Z" fill="#8CABBA"/>
<path fill-rule="evenodd" clip-rule="evenodd" d="M215.028 28.8893H213.304C213.245 28.8893 213.197 28.9493 213.197 29.024V30.1507C213.197 30.2253 213.245 30.2853 213.304 30.2853H215.028C215.087 30.2853 215.135 30.2253 215.135 30.1507V29.024C215.135 28.9493 215.087 28.8893 215.028 28.8893Z" fill="#39506E"/>
<path fill-rule="evenodd" clip-rule="evenodd" d="M228.296 26.3213L226.283 31.9253C226.163 32.256 225.848 32.612 225.401 32.9187C224.956 33.224 224.503 33.396 224.139 33.3973L215.121 33.424C214.409 33.4253 214.127 33.024 214.38 32.3693L216.727 26.3213H228.296Z" fill="#39506E"/>
<path fill-rule="evenodd" clip-rule="evenodd" d="M227.249 25.684C227.896 25.772 228.296 26.1853 228.296 26.3213C228.296 26.5947 226.696 26.816 224.724 26.816C222.752 26.816 221.152 26.5947 221.152 26.3213C221.152 25.74 226.391 25.5653 227.249 25.684Z" fill="#4D6987"/>
<path fill-rule="evenodd" clip-rule="evenodd" d="M218.513 29.0747H216.789C216.731 29.0747 216.683 29.136 216.683 29.2107V30.3373C216.683 30.412 216.731 30.472 216.789 30.472H218.513C218.572 30.472 218.62 30.412 218.62 30.3373V29.2107C218.62 29.136 218.572 29.0747 218.513 29.0747Z" fill="#7A8999"/>
<path fill-rule="evenodd" clip-rule="evenodd" d="M218.66 28.8893H216.935C216.876 28.8893 216.829 28.9493 216.829 29.024V30.1507C216.829 30.2253 216.876 30.2853 216.935 30.2853H218.66C218.719 30.2853 218.767 30.2253 218.767 30.1507V29.024C218.767 28.9493 218.719 28.8893 218.66 28.8893Z" fill="#39506E"/>
<path fill-rule="evenodd" clip-rule="evenodd" d="M222.145 29.0747H220.42C220.363 29.0747 220.315 29.136 220.315 29.2107V30.3373C220.315 30.412 220.363 30.472 220.42 30.472H222.145C222.204 30.472 222.252 30.412 222.252 30.3373V29.2107C222.252 29.136 222.204 29.0747 222.145 29.0747Z" fill="#7A8999"/>
<path fill-rule="evenodd" clip-rule="evenodd" d="M222.292 28.8893H220.567C220.508 28.8893 220.46 28.9493 220.46 29.024V30.1507C220.46 30.2253 220.508 30.2853 220.567 30.2853H222.292C222.349 30.2853 222.397 30.2253 222.397 30.1507V29.024C222.397 28.9493 222.349 28.8893 222.292 28.8893Z" fill="#39506E"/>
<path fill-rule="evenodd" clip-rule="evenodd" d="M265.817 30.7747H264.092C264.033 30.7747 263.985 30.8347 263.985 30.9093V32.036C263.985 32.1107 264.033 32.172 264.092 32.172H265.817C265.876 32.172 265.923 32.1107 265.923 32.036V30.9093C265.923 30.8347 265.876 30.7747 265.817 30.7747Z" fill="#8CABBA"/>
<path fill-rule="evenodd" clip-rule="evenodd" d="M265.963 30.588H264.239C264.18 30.588 264.132 30.6494 264.132 30.724V31.8493C264.132 31.924 264.18 31.9854 264.239 31.9854H265.963C266.021 31.9854 266.069 31.924 266.069 31.8493V30.724C266.069 30.6494 266.021 30.588 265.963 30.588Z" fill="#39506E"/>
<path fill-rule="evenodd" clip-rule="evenodd" d="M262.185 30.7747H260.461C260.403 30.7747 260.355 30.8347 260.355 30.9093V32.036C260.355 32.1107 260.403 32.172 260.461 32.172H262.185C262.244 32.172 262.292 32.1107 262.292 32.036V30.9093C262.292 30.8347 262.244 30.7747 262.185 30.7747Z" fill="#8CABBA"/>
<path fill-rule="evenodd" clip-rule="evenodd" d="M262.332 30.588H260.607C260.548 30.588 260.5 30.6494 260.5 30.724V31.8493C260.5 31.924 260.548 31.9854 260.607 31.9854H262.332C262.391 31.9854 262.437 31.924 262.437 31.8493V30.724C262.437 30.6494 262.391 30.588 262.332 30.588Z" fill="#39506E"/>
<path fill-rule="evenodd" clip-rule="evenodd" d="M258.553 30.7747H256.829C256.771 30.7747 256.723 30.8347 256.723 30.9093V32.036C256.723 32.1107 256.771 32.172 256.829 32.172H258.553C258.612 32.172 258.66 32.1107 258.66 32.036V30.9093C258.66 30.8347 258.612 30.7747 258.553 30.7747Z" fill="#8CABBA"/>
<path fill-rule="evenodd" clip-rule="evenodd" d="M258.7 30.588H256.975C256.916 30.588 256.868 30.6494 256.868 30.724V31.8493C256.868 31.924 256.916 31.9854 256.975 31.9854H258.7C258.759 31.9854 258.807 31.924 258.807 31.8493V30.724C258.807 30.6494 258.759 30.588 258.7 30.588Z" fill="#39506E"/>
<path fill-rule="evenodd" clip-rule="evenodd" d="M254.923 30.7747H253.197C253.139 30.7747 253.092 30.8347 253.092 30.9093V32.036C253.092 32.1107 253.139 32.172 253.197 32.172H254.923C254.981 32.172 255.029 32.1107 255.029 32.036V30.9093C255.029 30.8347 254.981 30.7747 254.923 30.7747Z" fill="#8CABBA"/>
<path fill-rule="evenodd" clip-rule="evenodd" d="M255.068 30.588H253.344C253.285 30.588 253.237 30.6494 253.237 30.724V31.8493C253.237 31.924 253.285 31.9854 253.344 31.9854H255.068C255.127 31.9854 255.175 31.924 255.175 31.8493V30.724C255.175 30.6494 255.127 30.588 255.068 30.588Z" fill="#39506E"/>
<path fill-rule="evenodd" clip-rule="evenodd" d="M125.616 29.5027H123.072C122.985 29.5027 122.915 29.5734 122.915 29.66V30.9614C122.915 31.048 122.985 31.1174 123.072 31.1174H125.616C125.703 31.1174 125.773 31.048 125.773 30.9614V29.66C125.773 29.5734 125.703 29.5027 125.616 29.5027Z" fill="#8CABBA"/>
<path fill-rule="evenodd" clip-rule="evenodd" d="M125.735 29.3053H123.191C123.104 29.3053 123.033 29.376 123.033 29.4614V30.7627C123.033 30.8494 123.104 30.92 123.191 30.92H125.735C125.821 30.92 125.892 30.8494 125.892 30.7627V29.4614C125.892 29.376 125.821 29.3053 125.735 29.3053Z" fill="#39506E"/>
<path fill-rule="evenodd" clip-rule="evenodd" d="M121.937 29.5027H119.393C119.307 29.5027 119.237 29.5734 119.237 29.66V30.9614C119.237 31.048 119.307 31.1174 119.393 31.1174H121.937C122.024 31.1174 122.095 31.048 122.095 30.9614V29.66C122.095 29.5734 122.024 29.5027 121.937 29.5027Z" fill="#8CABBA"/>
<path fill-rule="evenodd" clip-rule="evenodd" d="M122.057 29.3053H119.512C119.425 29.3053 119.356 29.376 119.356 29.4614V30.7627C119.356 30.8494 119.425 30.92 119.512 30.92H122.057C122.143 30.92 122.213 30.8494 122.213 30.7627V29.4614C122.213 29.376 122.143 29.3053 122.057 29.3053Z" fill="#39506E"/>
<path fill-rule="evenodd" clip-rule="evenodd" d="M114.976 30.336H113.233C113.175 30.336 113.127 30.384 113.127 30.4427V31.3334C113.127 31.392 113.175 31.44 113.233 31.44H114.976C115.035 31.44 115.083 31.392 115.083 31.3334V30.4427C115.083 30.384 115.035 30.336 114.976 30.336Z" fill="#8CABBA"/>
<path fill-rule="evenodd" clip-rule="evenodd" d="M115.123 30.188H113.38C113.321 30.188 113.273 30.236 113.273 30.2947V31.1867C113.273 31.2453 113.321 31.2933 113.38 31.2933H115.123C115.181 31.2933 115.229 31.2453 115.229 31.1867V30.2947C115.229 30.236 115.181 30.188 115.123 30.188Z" fill="#39506E"/>
<path fill-rule="evenodd" clip-rule="evenodd" d="M111.8 30.336H110.059C110 30.336 109.951 30.384 109.951 30.4427V31.3334C109.951 31.392 110 31.44 110.059 31.44H111.8C111.86 31.44 111.908 31.392 111.908 31.3334V30.4427C111.908 30.384 111.86 30.336 111.8 30.336Z" fill="#8CABBA"/>
<path fill-rule="evenodd" clip-rule="evenodd" d="M111.948 30.188H110.207C110.147 30.188 110.099 30.236 110.099 30.2947V31.1867C110.099 31.2453 110.147 31.2933 110.207 31.2933H111.948C112.007 31.2933 112.055 31.2453 112.055 31.1867V30.2947C112.055 30.236 112.007 30.188 111.948 30.188Z" fill="#39506E"/>
<path fill-rule="evenodd" clip-rule="evenodd" d="M108.627 30.336H106.884C106.825 30.336 106.777 30.384 106.777 30.4427V31.3334C106.777 31.392 106.825 31.44 106.884 31.44H108.627C108.685 31.44 108.733 31.392 108.733 31.3334V30.4427C108.733 30.384 108.685 30.336 108.627 30.336Z" fill="#8CABBA"/>
<path fill-rule="evenodd" clip-rule="evenodd" d="M108.773 30.188H107.032C106.972 30.188 106.924 30.236 106.924 30.2947V31.1867C106.924 31.2453 106.972 31.2933 107.032 31.2933H108.773C108.832 31.2933 108.881 31.2453 108.881 31.1867V30.2947C108.881 30.236 108.832 30.188 108.773 30.188Z" fill="#39506E"/>
<path fill-rule="evenodd" clip-rule="evenodd" d="M35.3414 49.832L34.36 52.5627C34.1853 53.048 33.7253 53.5667 33.0733 54.0147C32.4213 54.4627 31.7613 54.712 31.228 54.7133L20.3827 54.7453V47.404C25.3973 48.2347 30.388 49.048 35.3414 49.832Z" fill="#39506E"/>
<path fill-rule="evenodd" clip-rule="evenodd" d="M40.5707 43.2053L38.036 50.256C32.7133 49.4227 27.3427 48.5534 21.9413 47.6627L23.6707 43.2053H40.5707Z" fill="#39506E"/>
<path fill-rule="evenodd" clip-rule="evenodd" d="M19.1867 43.6707C23.0987 41.984 29.16 41.568 37.8507 41.956C40.9693 42.096 41.5253 43.8267 38.788 44.1867C34.2013 44.7907 30.7387 45.108 27.1653 45.0907C21.8613 45.0747 18.7694 44.4333 19.1867 43.6707Z" fill="#4D6987"/>
<path fill-rule="evenodd" clip-rule="evenodd" d="M19.1867 43.6707C23.0987 41.984 29.16 41.568 37.8507 41.956C39.2387 42.0187 40.1173 42.396 40.4267 42.8267C39.1307 43.6187 34.7654 44.3467 29.5547 44.5733C27.724 44.652 25.9907 44.66 24.4547 44.608L19.1867 43.6707Z" fill="#8CABBA"/>
<path fill-rule="evenodd" clip-rule="evenodd" d="M26.4613 42.772C30.7693 42.772 34.2627 43.244 34.2627 43.8254C34.2627 44.408 30.7693 44.88 26.4613 44.88C22.1533 44.88 18.6587 44.408 18.6587 43.8254C18.6587 43.244 22.1533 42.772 26.4613 42.772Z" fill="#4D6987"/>
<path fill-rule="evenodd" clip-rule="evenodd" d="M20.384 49.708H27.0493C27.4787 49.708 27.8293 50.0587 27.8293 50.4867V59.2227L20.384 59.268V49.708Z" fill="#39506E"/>
<path fill-rule="evenodd" clip-rule="evenodd" d="M20.384 50.184H26.7214C27.1147 50.184 27.4374 50.5067 27.4374 50.9V59.2254L20.384 59.268V50.184Z" fill="#8CABBA"/>
<path fill-rule="evenodd" clip-rule="evenodd" d="M20.384 50.184H26.7214C27.1147 50.184 27.4374 50.5067 27.4374 50.9V54.7253L20.384 54.7453V50.184Z" fill="#4D6987"/>
<path fill-rule="evenodd" clip-rule="evenodd" d="M20.3827 50.6227H26.4C26.7613 50.6227 27.0547 50.9307 27.0547 51.308V59.228L20.3827 59.268V50.6227Z" fill="#4D6987"/>
<path fill-rule="evenodd" clip-rule="evenodd" d="M20.3827 50.6227H26.4C26.7613 50.6227 27.0547 50.9307 27.0547 51.308V54.7253L20.3827 54.7453V50.6227Z" fill="#39506E"/>
<path fill-rule="evenodd" clip-rule="evenodd" d="M194.964 34.9907H193.239C193.18 34.9907 193.132 35.0507 193.132 35.1254V36.252C193.132 36.3267 193.18 36.3867 193.239 36.3867H194.964C195.023 36.3867 195.069 36.3267 195.069 36.252V35.1254C195.069 35.0507 195.023 34.9907 194.964 34.9907Z" fill="#8CABBA"/>
<path fill-rule="evenodd" clip-rule="evenodd" d="M195.109 34.804H193.385C193.327 34.804 193.279 34.8653 193.279 34.9387V36.0654C193.279 36.14 193.327 36.2014 193.385 36.2014H195.109C195.168 36.2014 195.216 36.14 195.216 36.0654V34.9387C195.216 34.8653 195.168 34.804 195.109 34.804Z" fill="#39506E"/>
<path fill-rule="evenodd" clip-rule="evenodd" d="M189.727 38.304H186.753C186.653 38.304 186.571 38.408 186.571 38.5373V40.4773C186.571 40.6067 186.653 40.7107 186.753 40.7107H189.727C189.827 40.7107 189.909 40.6067 189.909 40.4773V38.5373C189.909 38.408 189.827 38.304 189.727 38.304Z" fill="#8CABBA"/>
<path fill-rule="evenodd" clip-rule="evenodd" d="M189.977 37.9827H187.005C186.904 37.9827 186.823 38.088 186.823 38.216V40.156C186.823 40.2854 186.904 40.3907 187.005 40.3907H189.977C190.079 40.3907 190.16 40.2854 190.16 40.156V38.216C190.16 38.088 190.079 37.9827 189.977 37.9827Z" fill="#39506E"/>
<path fill-rule="evenodd" clip-rule="evenodd" d="M150.912 43.016H147.94C147.84 43.016 147.757 43.1213 147.757 43.2507V45.1907C147.757 45.3187 147.84 45.424 147.94 45.424H150.912C151.013 45.424 151.096 45.3187 151.096 45.1907V43.2507C151.096 43.1213 151.013 43.016 150.912 43.016Z" fill="#8CABBA"/>
<path fill-rule="evenodd" clip-rule="evenodd" d="M151.164 42.696H148.192C148.091 42.696 148.009 42.8 148.009 42.9294V44.8693C148.009 44.9987 148.091 45.1027 148.192 45.1027H151.164C151.265 45.1027 151.347 44.9987 151.347 44.8693V42.9294C151.347 42.8 151.265 42.696 151.164 42.696Z" fill="#39506E"/>
<path fill-rule="evenodd" clip-rule="evenodd" d="M126.273 47.9067H123.301C123.201 47.9067 123.119 47.9987 123.119 48.112V49.824C123.119 49.9374 123.201 50.0307 123.301 50.0307H126.273C126.375 50.0307 126.457 49.9374 126.457 49.824V48.112C126.457 47.9987 126.375 47.9067 126.273 47.9067Z" fill="#8CABBA"/>
<path fill-rule="evenodd" clip-rule="evenodd" d="M126.525 47.6227H123.553C123.452 47.6227 123.371 47.716 123.371 47.8294V49.5413C123.371 49.6547 123.452 49.7467 123.553 49.7467H126.525C126.627 49.7467 126.708 49.6547 126.708 49.5413V47.8294C126.708 47.716 126.627 47.6227 126.525 47.6227Z" fill="#39506E"/>
<path fill-rule="evenodd" clip-rule="evenodd" d="M203.329 24.144V16.7534H202.883V24.144H203.329Z" fill="#39506E"/>
<path fill-rule="evenodd" clip-rule="evenodd" d="M186.357 24.3493V13.8893L185.911 13.9827V24.3493H186.357Z" fill="#39506E"/>
<path fill-rule="evenodd" clip-rule="evenodd" d="M202.883 24.144V16.7534H202.437V24.144H202.883Z" fill="#8CABBA"/>
<path fill-rule="evenodd" clip-rule="evenodd" d="M185.911 24.3493V13.9827L185.465 14.0813V24.3493H185.911Z" fill="#8CABBA"/>
<path fill-rule="evenodd" clip-rule="evenodd" d="M202.875 17.2014H214.253C214.201 17.052 214.139 16.904 214.064 16.756H202.875V17.2014ZM175.671 17.2014H186.364V16.756H176.756C176.391 16.9013 176.029 17.0494 175.671 17.2014Z" fill="#39506E"/>
<path d="M60.588 33.3333L60.4467 33.0827L66.5307 29.6773L102.587 24.5667L141.464 21.5507L186.649 21.4787L186.693 21.5227L189.279 24.2213L189.071 24.42L186.528 21.7667L141.476 21.8386L102.619 24.8533L66.5974 29.9587L60.588 33.3333Z" fill="#231F20"/>
<path fill-rule="evenodd" clip-rule="evenodd" d="M198.636 24.144V18.476H199.083V24.144H198.636Z" fill="#39506E"/>
<path fill-rule="evenodd" clip-rule="evenodd" d="M198.636 18.0307H202.361V18.476H198.636V18.0307Z" fill="#39506E"/>
<path fill-rule="evenodd" clip-rule="evenodd" d="M199.083 18.476H202.361V18.9227H199.083V18.476Z" fill="#8CABBA"/>
<path fill-rule="evenodd" clip-rule="evenodd" d="M190.735 15.3947H189.628C189.447 15.3947 189.297 15.5653 189.297 15.7733V17.0333C189.297 17.2413 189.447 17.4106 189.628 17.4106H190.735C190.917 17.4106 191.067 17.2413 191.067 17.0333V15.7733C191.067 15.5653 190.917 15.3947 190.735 15.3947Z" fill="#39506E"/>
<path fill-rule="evenodd" clip-rule="evenodd" d="M190.892 15.2413H189.787C189.667 15.2413 189.561 15.3147 189.503 15.424C189.541 15.4053 189.584 15.3947 189.628 15.3947H190.735C190.917 15.3947 191.067 15.5653 191.067 15.7733V17.0333C191.067 17.1053 191.048 17.172 191.017 17.2293C191.139 17.172 191.224 17.036 191.224 16.8787V15.6187C191.224 15.4107 191.075 15.2413 190.892 15.2413Z" fill="#8CABBA"/>
<path fill-rule="evenodd" clip-rule="evenodd" d="M190.763 15.3947H189.752C189.584 15.3947 189.448 15.5507 189.448 15.7413V16.8933C189.448 17.084 189.584 17.2386 189.752 17.2386H190.763C190.929 17.2386 191.067 17.084 191.067 16.8933V15.7413C191.067 15.5507 190.929 15.3947 190.763 15.3947Z" fill="#6987A1"/>
<path fill-rule="evenodd" clip-rule="evenodd" d="M196.571 15.3947H195.465C195.283 15.3947 195.133 15.5653 195.133 15.7733V17.0333C195.133 17.2413 195.283 17.4106 195.465 17.4106H196.571C196.753 17.4106 196.903 17.2413 196.903 17.0333V15.7733C196.903 15.5653 196.753 15.3947 196.571 15.3947Z" fill="#39506E"/>
<path fill-rule="evenodd" clip-rule="evenodd" d="M196.729 15.2413H195.623C195.503 15.2413 195.397 15.3147 195.34 15.424C195.379 15.4053 195.421 15.3947 195.465 15.3947H196.571C196.753 15.3947 196.903 15.5653 196.903 15.7733V17.0333C196.903 17.1053 196.885 17.172 196.855 17.2293C196.975 17.172 197.061 17.036 197.061 16.8787V15.6187C197.061 15.4107 196.912 15.2413 196.729 15.2413Z" fill="#8CABBA"/>
<path fill-rule="evenodd" clip-rule="evenodd" d="M196.6 15.3947H195.588C195.421 15.3947 195.284 15.5507 195.284 15.7413V16.8933C195.284 17.084 195.421 17.2386 195.588 17.2386H196.6C196.767 17.2386 196.903 17.084 196.903 16.8933V15.7413C196.903 15.5507 196.767 15.3947 196.6 15.3947Z" fill="#6987A1"/>
<path fill-rule="evenodd" clip-rule="evenodd" d="M192.621 15.3454H191.889C191.768 15.3454 191.669 15.4587 191.669 15.5987V16.4467C191.669 16.5854 191.768 16.7 191.889 16.7H192.621C192.741 16.7 192.841 16.5854 192.841 16.4467V15.5987C192.841 15.4587 192.741 15.3454 192.621 15.3454Z" fill="#39506E"/>
<path fill-rule="evenodd" clip-rule="evenodd" d="M192.725 15.2413H191.993C191.913 15.2413 191.844 15.2907 191.805 15.364C191.831 15.352 191.859 15.3453 191.889 15.3453H192.621C192.741 15.3453 192.841 15.4587 192.841 15.5987V16.4467C192.841 16.4947 192.829 16.5387 192.809 16.5773C192.888 16.5387 192.945 16.448 192.945 16.3427V15.4947C192.945 15.356 192.847 15.2413 192.725 15.2413Z" fill="#8CABBA"/>
<path fill-rule="evenodd" clip-rule="evenodd" d="M192.64 15.3453H191.971C191.859 15.3453 191.769 15.4493 191.769 15.5773V16.352C191.769 16.48 191.859 16.584 191.971 16.584H192.64C192.751 16.584 192.841 16.48 192.841 16.352V15.5773C192.841 15.4493 192.751 15.3453 192.64 15.3453Z" fill="#6987A1"/>
<path fill-rule="evenodd" clip-rule="evenodd" d="M194.225 15.3454H193.493C193.372 15.3454 193.273 15.4587 193.273 15.5987V16.4467C193.273 16.5854 193.372 16.7 193.493 16.7H194.225C194.347 16.7 194.445 16.5854 194.445 16.4467V15.5987C194.445 15.4587 194.347 15.3454 194.225 15.3454Z" fill="#39506E"/>
<path fill-rule="evenodd" clip-rule="evenodd" d="M194.329 15.2413H193.597C193.519 15.2413 193.448 15.2907 193.409 15.364C193.436 15.352 193.463 15.3453 193.493 15.3453H194.225C194.347 15.3453 194.445 15.4587 194.445 15.5987V16.4467C194.445 16.4947 194.433 16.5387 194.413 16.5773C194.493 16.5387 194.549 16.448 194.549 16.3427V15.4947C194.549 15.356 194.451 15.2413 194.329 15.2413Z" fill="#8CABBA"/>
<path fill-rule="evenodd" clip-rule="evenodd" d="M194.244 15.3453H193.575C193.464 15.3453 193.373 15.4493 193.373 15.5773V16.352C193.373 16.48 193.464 16.584 193.575 16.584H194.244C194.355 16.584 194.445 16.48 194.445 16.352V15.5773C194.445 15.4493 194.355 15.3453 194.244 15.3453Z" fill="#6987A1"/>
<path d="M264.66 25.2787L260.348 22.0747L247.757 21.416L195.817 21.5013L193.145 24.3813L192.933 24.1853L195.693 21.2133H195.756L247.764 21.128L260.449 21.792L260.484 21.8173L264.832 25.048L264.66 25.2787Z" fill="#231F20"/>
<path d="M285.772 39.8413C273.307 39.8413 263.988 39.8267 252.408 39.8267C252.037 39.8267 251.703 39.976 251.461 40.2173V40.2187C251.22 40.4613 251.069 40.796 251.069 41.1654H251.068V47.8387H251.069C251.069 48.6667 251.333 49.3747 251.772 49.9893C252.225 50.6253 252.863 51.168 253.589 51.6453C256.196 53.3587 259.827 54.808 263.832 55.824C264.855 56.084 265.903 56.3147 266.963 56.5147C266.264 56.6373 265.549 56.744 264.816 56.8307C264.425 56.7414 264.036 56.648 263.651 56.5507C259.571 55.516 255.86 54.0307 253.179 52.2693C252.381 51.744 251.673 51.14 251.163 50.4227C250.637 49.6853 250.319 48.8347 250.319 47.8387H250.32V41.1654H250.319C250.319 40.5894 250.553 40.068 250.932 39.6893V39.6907C251.311 39.312 251.833 39.0773 252.408 39.0773C263.996 39.0773 273.288 39.0947 285.752 39.0947C285.768 39.3427 285.773 39.592 285.772 39.8413Z" fill="#8CABBA"/>
<path d="M285.711 39.544C273.421 39.544 264.299 39.5747 252.872 39.5747C252.503 39.5747 252.167 39.724 251.927 39.9653V39.9667C251.684 40.2093 251.533 40.5453 251.533 40.9133H251.532V47.5413H251.533C251.533 48.3693 251.797 49.0773 252.236 49.692C252.689 50.3267 253.328 50.8707 254.053 51.348C256.66 53.0613 260.292 54.5107 264.296 55.5267C265.497 55.8307 266.733 56.096 267.984 56.3173C267.321 56.4547 266.644 56.5773 265.949 56.68C265.331 56.548 264.719 56.4053 264.115 56.252C260.035 55.2173 256.324 53.7333 253.644 51.9707C252.845 51.4467 252.139 50.8427 251.627 50.1253C251.101 49.388 250.784 48.5373 250.784 47.5413H250.785V40.9133H250.784C250.784 40.3373 251.019 39.816 251.396 39.4373L251.397 39.4387C251.776 39.06 252.299 38.8253 252.872 38.8253C264.296 38.8253 273.377 38.7973 285.652 38.7973C285.68 39.0453 285.699 39.2933 285.711 39.544Z" fill="#39506E"/>
<path fill-rule="evenodd" clip-rule="evenodd" d="M225.927 25.2893C227.773 25.6667 228.296 26.4813 228.296 26.916C227.887 27.2813 225.187 27.6627 221.352 27.6627C217.517 27.6627 215.025 27.3747 214.451 26.832C214.912 25.412 223.887 24.8733 225.927 25.2893Z" fill="#8CABBA"/>
<path fill-rule="evenodd" clip-rule="evenodd" d="M221.352 26.3493C225.187 26.3493 228.296 26.644 228.296 27.0053C228.296 27.368 225.187 27.6613 221.352 27.6613C217.517 27.6613 214.407 27.368 214.407 27.0053C214.407 26.644 217.517 26.3493 221.352 26.3493Z" fill="#4D6987"/>
<path fill-rule="evenodd" clip-rule="evenodd" d="M213.916 54.0574L212.052 54.068C211.988 54.068 211.937 54.104 211.937 54.1494L211.945 54.8254C211.945 54.8707 211.997 54.9067 212.06 54.9067L213.925 54.896C213.989 54.896 214.04 54.8587 214.04 54.8134L214.032 54.1373C214.032 54.0933 213.98 54.0574 213.916 54.0574Z" fill="#4D6987"/>
<path fill-rule="evenodd" clip-rule="evenodd" d="M214.275 53.636L212.409 53.6467C212.345 53.6467 212.295 53.684 212.295 53.728L212.303 54.404C212.303 54.4493 212.355 54.4854 212.419 54.4854L214.284 54.4747C214.347 54.4747 214.399 54.4374 214.397 54.3934L214.391 53.7174C214.389 53.672 214.337 53.636 214.275 53.636Z" fill="#39506E"/>
<path fill-rule="evenodd" clip-rule="evenodd" d="M218.303 54.0574L216.437 54.068C216.373 54.068 216.323 54.104 216.323 54.1494L216.331 54.8254C216.331 54.8707 216.383 54.9067 216.447 54.9067L218.312 54.896C218.375 54.896 218.425 54.8587 218.425 54.8134L218.419 54.1373C218.417 54.0933 218.365 54.0574 218.303 54.0574Z" fill="#4D6987"/>
<path fill-rule="evenodd" clip-rule="evenodd" d="M218.66 53.636L216.795 53.6467C216.732 53.6467 216.68 53.684 216.681 53.728L216.688 54.404C216.689 54.4493 216.74 54.4854 216.804 54.4854L218.669 54.4747C218.732 54.4747 218.784 54.4374 218.783 54.3934L218.776 53.7174C218.775 53.672 218.724 53.636 218.66 53.636Z" fill="#39506E"/>
<path fill-rule="evenodd" clip-rule="evenodd" d="M222.688 54.0574L220.823 54.068C220.76 54.068 220.708 54.104 220.709 54.1494L220.716 54.8254C220.717 54.8707 220.768 54.9067 220.832 54.9067L222.697 54.896C222.76 54.896 222.812 54.8587 222.811 54.8134L222.804 54.1373C222.803 54.0933 222.751 54.0574 222.688 54.0574Z" fill="#4D6987"/>
<path fill-rule="evenodd" clip-rule="evenodd" d="M223.045 53.636L221.18 53.6467C221.117 53.6467 221.065 53.684 221.067 53.728L221.073 54.404C221.075 54.4493 221.127 54.4854 221.189 54.4854L223.055 54.4747C223.119 54.4747 223.169 54.4374 223.169 54.3934L223.161 53.7174C223.161 53.672 223.109 53.636 223.045 53.636Z" fill="#39506E"/>
<path fill-rule="evenodd" clip-rule="evenodd" d="M227.073 54.0574L225.208 54.068C225.145 54.068 225.093 54.104 225.095 54.1494L225.101 54.8254C225.103 54.8707 225.155 54.9067 225.217 54.9067L227.083 54.896C227.147 54.896 227.197 54.8587 227.196 54.8134L227.189 54.1373C227.189 54.0933 227.137 54.0574 227.073 54.0574Z" fill="#4D6987"/>
<path fill-rule="evenodd" clip-rule="evenodd" d="M227.432 53.636L225.567 53.6467C225.503 53.6467 225.452 53.684 225.452 53.728L225.46 54.404C225.46 54.4493 225.512 54.4854 225.576 54.4854L227.44 54.4747C227.504 54.4747 227.555 54.4374 227.555 54.3934L227.547 53.7174C227.547 53.672 227.495 53.636 227.432 53.636Z" fill="#39506E"/>
<path fill-rule="evenodd" clip-rule="evenodd" d="M231.459 54.0574L229.593 54.068C229.531 54.068 229.48 54.104 229.48 54.1494L229.488 54.8254C229.488 54.8707 229.54 54.9067 229.603 54.9067L231.468 54.896C231.532 54.896 231.583 54.8587 231.583 54.8134L231.575 54.1373C231.575 54.0933 231.523 54.0574 231.459 54.0574Z" fill="#4D6987"/>
<path fill-rule="evenodd" clip-rule="evenodd" d="M231.817 53.636L229.952 53.6467C229.888 53.6467 229.837 53.684 229.837 53.728L229.845 54.404C229.845 54.4493 229.897 54.4854 229.961 54.4854L231.827 54.4747C231.889 54.4747 231.94 54.4374 231.94 54.3934L231.932 53.7174C231.932 53.672 231.88 53.636 231.817 53.636Z" fill="#39506E"/>
<path fill-rule="evenodd" clip-rule="evenodd" d="M235.845 54.0574L233.98 54.068C233.916 54.068 233.865 54.104 233.865 54.1494L233.873 54.8254C233.873 54.8707 233.925 54.9067 233.988 54.9067L235.853 54.896C235.917 54.896 235.968 54.8587 235.968 54.8134L235.96 54.1373C235.96 54.0933 235.908 54.0574 235.845 54.0574Z" fill="#4D6987"/>
<path fill-rule="evenodd" clip-rule="evenodd" d="M236.203 53.636L234.337 53.6467C234.273 53.6467 234.223 53.684 234.224 53.728L234.231 54.404C234.231 54.4493 234.284 54.4854 234.347 54.4854L236.212 54.4747C236.275 54.4747 236.327 54.4374 236.325 54.3934L236.319 53.7174C236.317 53.672 236.265 53.636 236.203 53.636Z" fill="#39506E"/>
<path fill-rule="evenodd" clip-rule="evenodd" d="M179.719 54.0574L177.853 54.068C177.791 54.068 177.739 54.104 177.74 54.1494L177.747 54.8254C177.748 54.8707 177.8 54.9067 177.863 54.9067L179.728 54.896C179.791 54.896 179.843 54.8587 179.841 54.8134L179.835 54.1373C179.833 54.0933 179.783 54.0574 179.719 54.0574Z" fill="#4D6987"/>
<path fill-rule="evenodd" clip-rule="evenodd" d="M180.076 53.636L178.212 53.6467C178.148 53.6467 178.097 53.684 178.097 53.728L178.105 54.404C178.105 54.4493 178.157 54.4854 178.22 54.4854L180.085 54.4747C180.149 54.4747 180.2 54.4374 180.2 54.3934L180.192 53.7174C180.192 53.672 180.14 53.636 180.076 53.636Z" fill="#39506E"/>
<path fill-rule="evenodd" clip-rule="evenodd" d="M184.113 54.0574L182.248 54.068C182.184 54.068 182.133 54.104 182.135 54.1494L182.141 54.8254C182.141 54.8707 182.193 54.9067 182.257 54.9067L184.123 54.896C184.185 54.896 184.237 54.8587 184.236 54.8134L184.229 54.1373C184.228 54.0933 184.176 54.0574 184.113 54.0574Z" fill="#4D6987"/>
<path fill-rule="evenodd" clip-rule="evenodd" d="M184.471 53.636L182.605 53.6467C182.543 53.6467 182.492 53.684 182.492 53.728L182.499 54.404C182.5 54.4493 182.552 54.4854 182.615 54.4854L184.48 54.4747C184.544 54.4747 184.595 54.4374 184.595 54.3934L184.587 53.7174C184.587 53.672 184.535 53.636 184.471 53.636Z" fill="#39506E"/>
<path fill-rule="evenodd" clip-rule="evenodd" d="M188.508 54.0574L186.643 54.068C186.579 54.068 186.528 54.104 186.528 54.1494L186.536 54.8254C186.536 54.8707 186.588 54.9067 186.652 54.9067L188.517 54.896C188.58 54.896 188.631 54.8587 188.631 54.8134L188.623 54.1373C188.623 54.0933 188.571 54.0574 188.508 54.0574Z" fill="#4D6987"/>
<path fill-rule="evenodd" clip-rule="evenodd" d="M188.865 53.636L187 53.6467C186.937 53.6467 186.885 53.684 186.887 53.728L186.893 54.404C186.895 54.4493 186.947 54.4854 187.009 54.4854L188.875 54.4747C188.939 54.4747 188.989 54.4374 188.988 54.3934L188.981 53.7174C188.981 53.672 188.929 53.636 188.865 53.636Z" fill="#39506E"/>
<path fill-rule="evenodd" clip-rule="evenodd" d="M192.903 54.0574L191.037 54.068C190.973 54.068 190.923 54.104 190.923 54.1494L190.931 54.8254C190.931 54.8707 190.983 54.9067 191.045 54.9067L192.911 54.896C192.975 54.896 193.025 54.8587 193.025 54.8134L193.017 54.1373C193.017 54.0933 192.965 54.0574 192.903 54.0574Z" fill="#4D6987"/>
<path fill-rule="evenodd" clip-rule="evenodd" d="M193.26 53.636L191.395 53.6467C191.331 53.6467 191.28 53.684 191.28 53.728L191.288 54.404C191.288 54.4493 191.34 54.4854 191.404 54.4854L193.269 54.4747C193.332 54.4747 193.384 54.4374 193.383 54.3934L193.376 53.7174C193.375 53.672 193.323 53.636 193.26 53.636Z" fill="#39506E"/>
<path fill-rule="evenodd" clip-rule="evenodd" d="M146.623 54.0574L144.759 54.068C144.695 54.068 144.644 54.104 144.644 54.1494L144.652 54.8254C144.652 54.8707 144.704 54.9067 144.767 54.9067L146.632 54.896C146.696 54.896 146.747 54.8587 146.747 54.8134L146.739 54.1373C146.739 54.0933 146.687 54.0574 146.623 54.0574Z" fill="#4D6987"/>
<path fill-rule="evenodd" clip-rule="evenodd" d="M146.981 53.636L145.116 53.6467C145.052 53.6467 145.001 53.684 145.003 53.728L145.009 54.404C145.009 54.4493 145.061 54.4854 145.125 54.4854L146.991 54.4747C147.053 54.4747 147.105 54.4374 147.104 54.3934L147.097 53.7174C147.096 53.672 147.044 53.636 146.981 53.636Z" fill="#39506E"/>
<path fill-rule="evenodd" clip-rule="evenodd" d="M151.841 54.0574L149.976 54.068C149.913 54.068 149.861 54.104 149.863 54.1494L149.869 54.8254C149.871 54.8707 149.923 54.9067 149.985 54.9067L151.851 54.896C151.915 54.896 151.965 54.8587 151.965 54.8134L151.957 54.1373C151.957 54.0933 151.905 54.0574 151.841 54.0574Z" fill="#4D6987"/>
<path fill-rule="evenodd" clip-rule="evenodd" d="M152.2 53.636L150.335 53.6467C150.271 53.6467 150.22 53.684 150.22 53.728L150.228 54.404C150.228 54.4493 150.28 54.4854 150.344 54.4854L152.208 54.4747C152.272 54.4747 152.323 54.4374 152.323 54.3934L152.315 53.7174C152.315 53.672 152.263 53.636 152.2 53.636Z" fill="#39506E"/>
<path fill-rule="evenodd" clip-rule="evenodd" d="M157.06 54.0574L155.195 54.068C155.131 54.068 155.08 54.104 155.081 54.1494L155.088 54.8254C155.089 54.8707 155.141 54.9067 155.204 54.9067L157.069 54.896C157.132 54.896 157.184 54.8587 157.183 54.8134L157.176 54.1373C157.175 54.0933 157.123 54.0574 157.06 54.0574Z" fill="#4D6987"/>
<path fill-rule="evenodd" clip-rule="evenodd" d="M157.417 53.636L155.553 53.6467C155.489 53.6467 155.439 53.684 155.439 53.728L155.447 54.404C155.447 54.4493 155.499 54.4854 155.561 54.4854L157.427 54.4747C157.491 54.4747 157.541 54.4374 157.541 54.3934L157.533 53.7174C157.533 53.672 157.481 53.636 157.417 53.636Z" fill="#39506E"/>
<path fill-rule="evenodd" clip-rule="evenodd" d="M60.464 51.0214L58.6094 50.824C58.5467 50.8174 58.492 50.848 58.4867 50.8934L58.4187 51.5654C58.4147 51.6107 58.4627 51.652 58.5253 51.6587L60.38 51.856C60.4427 51.8627 60.4974 51.8307 60.5027 51.7867L60.5694 51.1133C60.5747 51.0693 60.5267 51.028 60.464 51.0214Z" fill="#4D6987"/>
<path fill-rule="evenodd" clip-rule="evenodd" d="M60.8667 50.6427L59.012 50.4453C58.948 50.4387 58.8933 50.4693 58.8893 50.5133L58.8213 51.1867C58.8173 51.232 58.864 51.2733 58.928 51.28L60.7827 51.476C60.8453 51.484 60.9 51.452 60.9053 51.408L60.972 50.7347C60.9773 50.6907 60.9293 50.6493 60.8667 50.6427Z" fill="#39506E"/>
<path fill-rule="evenodd" clip-rule="evenodd" d="M64.8227 51.508L62.968 51.3107C62.9054 51.304 62.8507 51.3347 62.8454 51.38L62.7774 52.052C62.7734 52.0974 62.8214 52.1387 62.884 52.1454L64.7387 52.3427C64.8014 52.3494 64.856 52.3174 64.8614 52.2734L64.928 51.6C64.9334 51.556 64.8854 51.5147 64.8227 51.508Z" fill="#4D6987"/>
<path fill-rule="evenodd" clip-rule="evenodd" d="M65.2253 51.128L63.3707 50.932C63.3067 50.9253 63.252 50.956 63.248 51.0013L63.18 51.6733C63.176 51.7186 63.2227 51.76 63.2867 51.7667L65.1414 51.964C65.204 51.9693 65.2587 51.9387 65.2627 51.8947L65.3307 51.2213C65.336 51.1773 65.288 51.1347 65.2253 51.128Z" fill="#39506E"/>
<path fill-rule="evenodd" clip-rule="evenodd" d="M69.1814 51.9947L67.3267 51.7973C67.264 51.7907 67.208 51.8213 67.204 51.8667L67.136 52.5387C67.132 52.584 67.18 52.6253 67.2427 52.632L69.0973 52.828C69.16 52.8347 69.2147 52.804 69.2187 52.76L69.2867 52.0867C69.292 52.0427 69.244 52.0013 69.1814 51.9947Z" fill="#4D6987"/>
<path fill-rule="evenodd" clip-rule="evenodd" d="M69.584 51.6147L67.728 51.4187C67.6653 51.412 67.6107 51.4427 67.6067 51.4867L67.5387 52.16C67.5347 52.204 67.5813 52.2467 67.6453 52.2533L69.5 52.4493C69.5627 52.4573 69.6173 52.4253 69.6213 52.3813L69.6893 51.708C69.6947 51.664 69.6467 51.6227 69.584 51.6147Z" fill="#39506E"/>
<path fill-rule="evenodd" clip-rule="evenodd" d="M73.54 52.4813L71.6853 52.284C71.6213 52.2773 71.5667 52.308 71.5627 52.3534L71.4947 53.0254C71.4907 53.0707 71.5387 53.112 71.6013 53.1187L73.456 53.316C73.5187 53.3227 73.5733 53.2907 73.5773 53.2467L73.6453 52.5733C73.6493 52.5293 73.6027 52.4867 73.54 52.4813Z" fill="#4D6987"/>
<path fill-rule="evenodd" clip-rule="evenodd" d="M73.9427 52.1013L72.0867 51.9053C72.024 51.8986 71.9694 51.9293 71.9654 51.9733L71.8974 52.6467C71.892 52.692 71.94 52.7333 72.0027 52.74L73.8587 52.936C73.9214 52.9426 73.976 52.912 73.98 52.868L74.048 52.1947C74.052 52.1507 74.0054 52.108 73.9427 52.1013Z" fill="#39506E"/>
<path fill-rule="evenodd" clip-rule="evenodd" d="M77.8987 52.9667L76.0427 52.7707C75.98 52.764 75.9253 52.7947 75.9213 52.8387L75.8533 53.512C75.8493 53.5573 75.896 53.5987 75.9587 53.6053L77.8147 53.8014C77.8774 53.808 77.932 53.7774 77.936 53.7334L78.004 53.06C78.008 53.016 77.9614 52.9747 77.8987 52.9667Z" fill="#4D6987"/>
<path fill-rule="evenodd" clip-rule="evenodd" d="M78.3014 52.588L76.4454 52.392C76.3827 52.3853 76.328 52.416 76.3227 52.46L76.256 53.1334C76.252 53.1774 76.2987 53.22 76.3614 53.2267L78.2174 53.4227C78.28 53.4293 78.3347 53.3987 78.3387 53.3547L78.4067 52.6813C78.4107 52.6373 78.364 52.5947 78.3014 52.588Z" fill="#39506E"/>
<path fill-rule="evenodd" clip-rule="evenodd" d="M82.2573 53.4534L80.4013 53.2574C80.3387 53.2507 80.284 53.2814 80.28 53.3254L80.212 53.9987C80.208 54.0427 80.2547 54.0854 80.3173 54.092L82.1733 54.288C82.236 54.2947 82.2907 54.264 82.2947 54.22L82.3627 53.5467C82.3667 53.5027 82.32 53.46 82.2573 53.4534Z" fill="#4D6987"/>
<path fill-rule="evenodd" clip-rule="evenodd" d="M82.6587 53.0747L80.804 52.8787C80.7414 52.872 80.6867 52.9027 80.6814 52.9467L80.6147 53.62C80.6107 53.664 80.6573 53.7067 80.72 53.7133L82.576 53.9093C82.6387 53.916 82.6933 53.8853 82.6973 53.84L82.7653 53.168C82.7693 53.124 82.7227 53.0813 82.6587 53.0747Z" fill="#39506E"/>
</svg>
